<svg width="64" height="64" viewBox="0 0 64 64" fill="none" xmlns="http://www.w3.org/2000/svg">
<mask id="mask0" mask-type="alpha" maskUnits="userSpaceOnUse" x="0" y="0" width="64" height="64">
<path d="M64 0H0V64H64V0Z" fill="white"/>
</mask>
<g mask="url(#mask0)">
<path d="M32.0004 0C45.8977 0 57.1638 11.266 57.1638 25.1634C57.1638 31.1185 55.0518 36.8806 51.2033 41.4251L32.0004 64.1013L12.7974 41.4251C3.8163 30.8196 5.13315 14.9415 15.7387 5.96044C20.2832 2.112 26.0453 0 32.0004 0Z" fill="#21973B"/>
<path d="M39.1491 22.3205C39.8854 22.3205 40.4824 22.9174 40.4824 23.6538V36.7579H35.7634V31.5527C35.7634 29.4811 34.084 27.8017 32.0124 27.8017C30.0626 27.8017 28.4603 29.2893 28.2786 31.1915L28.2614 31.5527V36.7579H23.5424V23.6538C23.5424 22.9174 24.1393 22.3205 24.8757 22.3205H39.1491ZM19.6826 19.4246C20.7872 19.4246 21.6826 20.32 21.6826 21.4246V36.7579H17.6826V21.4246C17.6826 20.32 18.578 19.4246 19.6826 19.4246ZM44.3184 19.4246C45.423 19.4246 46.3184 20.32 46.3184 21.4246V36.7579H42.3184V21.4246C42.3184 20.32 43.2139 19.4246 44.3184 19.4246ZM31.7971 8.21484C35.8236 9.64582 38.3809 11.4496 39.4692 13.6261C40.5575 15.8027 40.341 18.2145 38.8197 20.8614H24.7746C23.2533 18.2145 23.0368 15.8027 24.1251 13.6261C25.2134 11.4496 27.7707 9.64582 31.7971 8.21484Z" fill="white"/>
</g>
</svg>
