<svg id="Layer_1" data-name="Layer 1" xmlns="http://www.w3.org/2000/svg" viewBox="0 0 226.33 233.95"><defs><style>.cls-1{fill:#acb8c1;}</style></defs><title>icon</title><path class="cls-1" d="M24.09,0V36.49H0V234H181.14V215.58h.05V205H34.64V41.21H215.78V205h-.05v10.55h10.6V0ZM148.93,30.66H34.64V10.55H148.93Zm10.55-20.11h22.3V30.66h-22.3Zm32.85,0h23.45V30.66H192.33Z"/><polygon class="cls-1" points="66.05 164.51 66.05 175.06 181.13 175.06 185.86 175.06 185.86 164.51 181.13 164.51 66.05 164.51"/><path class="cls-1" d="M66,103.93v49.63H184.62v-90H155.85V143H139.67V80.49H110.9V143H94.77V103.93ZM84.22,143H76.51V114.48h7.71Zm37.23-52h7.67v52h-7.67Zm45-16.92h7.67V143H166.4Z"/></svg>