<svg id="Layer_1" data-name="Layer 1" xmlns="http://www.w3.org/2000/svg" viewBox="0 0 271.99 265.55"><defs><style>.cls-1{fill:#216af6;}</style></defs><title>icon</title><path class="cls-1" d="M272,229.39,258.53,216V0L248.05,5.05,170.4,42.25l-82.3-39L0,45.43V265.55l10.48-5L88.13,223.3l82.3,39,79.64-38.17,13.59,13.56ZM170.42,95a42.57,42.57,0,1,1-42.57,42.56A42.61,42.61,0,0,1,170.42,95Zm0,152.58-74.85-35.5.06-157.38H82.31V204.87l0,6.3-69,33.2V53.81L88.13,18l75.63,35.86v29a55.12,55.12,0,1,0,42,97l34.37,34.32Z"/></svg>