<svg id="Layer_1" data-name="Layer 1" xmlns="http://www.w3.org/2000/svg" viewBox="0 0 181.07 236.68"><defs><style>.cls-1,.cls-2{fill:#acb8c1;}.cls-1{fill-rule:evenodd;}</style></defs><title>icon</title><path class="cls-1" d="M135.49,100.19V99a10.25,10.25,0,0,0,6.87-7c1.85-6-.59-13.54-4.08-17.37C128.08,60.12,108.47,46.73,90.55,42l-.3-.1-.35.1c-9.81,2.19-22.75,9.15-33.75,18.21C44.25,70,37.44,80,37.44,87.45c0,4.83,2.43,10.2,7.86,12v.49a8.77,8.77,0,0,0-4.13,2.39A11.68,11.68,0,0,0,38,110.84L38,234.29l-.06.05v2.34l105-.05v-.31l.06.06.3.3V113.83c.3-5.82-1.64-9.21-3.34-11A9.48,9.48,0,0,0,135.49,100.19ZM46.43,223.84H43.7l2.24-2.29,88.9-.05.64.74,1.35,1.5Zm-2.34,2.53h.2l92.69-.05,1.14,1.25.9,1h0l-.18-.19-.65-.7v.5l.36.39h-.42l-94.77.05h-.72l.78-.74v-.3l-1,1H41.8l.35-.39,1.2-1.15ZM39.53,234l1.74-1.39h.45l.63-.6,96.1-.05.63.6h1l1.54,1.39h-.55Zm100.32-4.57V229l-1.09-1.24-.65-.7-.8-.94v-2.24l-1.44-1.65-.94-1-89.1.05-2.49,2.49,0,2.93-1.79,1.64-.44-116.82c0-7.71,6.32-7.71,7.56-7.66V96.66c-4.82-.15-7.86-3.19-7.86-8.21C40.87,73,74,47.63,90.3,45.74,108.17,50,126,63.46,135.69,77.25c4.53,6,7.42,18.26-3.83,19.21v7.47c6.87-.05,8.21,4.82,8,10.5l.3,115.33Z"/><path class="cls-1" d="M83.45,84c-1.1-1.43-2.79-.31-1.78,1.27-1.37.87-3.25,2.36-3.83.57-1.51,1.63,0,3.27,1.5,2.63l3.22-1.82c.7,1.81,3,.7,1.88-1,1.45-.88,3.1-1.92,4.84-3a1.21,1.21,0,0,0,2.28-.05c1.76,1.1,3.43,2.15,4.9,3.05-1.08,1.68,1.19,2.78,1.89,1l3.22,1.81c1.47.64,3-1,1.49-2.63-.58,1.79-2.45.3-3.83-.56,1-1.59-.69-2.7-1.77-1.27-1.77-1-3.52-2-5.25-3.15,5.67-3.5,11.75-7,15.44-7.67-4.88-1.18-10.51,2.24-16.44,6,0-2.45.07-5,0-7.32a2.37,2.37,0,0,1,1.34,1A9.2,9.2,0,0,0,93,69.48a11.2,11.2,0,0,1,1.85,2.38,7.44,7.44,0,0,0-.23-3.79,5.66,5.66,0,0,1,1.92,2.54,3.88,3.88,0,0,0-1.22-4.52c.3-.27,1.65-.13,2.23,0-.33-1.47-1.84-2-3.57-2a2,2,0,0,1,1.54-.86c-1.23-1.37-2.77-.81-3.89-.67a4,4,0,0,0-1-2.22,3.3,3.3,0,0,0-1,2c-1.77-.3-3.64-.19-4.25,1,.58-.11,1.43.12,1.51.4-1.36.31-2.74.21-3.37,2.38a4.1,4.1,0,0,1,2-.36,5.71,5.71,0,0,0-1.23,4.94,9.77,9.77,0,0,1,2.06-2.36,10.79,10.79,0,0,0,0,3.84,11,11,0,0,1,1.51-2.66,10,10,0,0,0,.86,3.58c.36-.79.58-1.1,1-1.31v7.23c-5.88-3.76-11.47-7.13-16.33-6,3.69.65,9.78,4.16,15.45,7.65C87,81.93,85.2,83,83.45,84Z"/><polygon class="cls-1" points="98.91 170.89 99.68 171.69 126.51 143.76 125.74 142.96 98.91 170.89"/><polygon class="cls-1" points="97.22 169.76 122.42 124.67 121.48 124.11 96.27 169.19 97.22 169.76"/><polygon class="cls-1" points="94.25 168.63 116.06 83.83 115 83.53 93.19 168.34 94.25 168.63"/><rect class="cls-2" x="89.9" y="101.48" width="1.09" height="66.24" transform="translate(-0.65 0.44) rotate(-0.28)"/><polygon class="cls-1" points="82.06 170.9 55.19 143.01 54.42 143.82 81.28 171.71 82.06 170.9"/><polygon class="cls-1" points="84.69 169.2 59.42 124.15 58.48 124.72 83.75 169.77 84.69 169.2"/><polygon class="cls-1" points="87.77 168.34 65.84 83.57 64.79 83.86 86.72 168.64 87.77 168.34"/><path class="cls-1" d="M81.52,174.91a11.77,11.77,0,0,1-8.31.64L58.53,200.89a27.13,27.13,0,0,0,16.22.3,18.79,18.79,0,0,1,8.76-.65,8.71,8.71,0,0,1,1.1.25,4.16,4.16,0,0,1,1.24.35,22,22,0,0,1,4.63,2l.15-19.86,0-8.12C85.75,173.21,83.71,174,81.52,174.91Z"/><path class="cls-1" d="M102.16,200.46c.67.06,1.34.16,2,.28A19.06,19.06,0,0,0,102.16,200.46Z"/><path class="cls-1" d="M95.31,201.49a15.83,15.83,0,0,1,6.85-1A14.45,14.45,0,0,0,95.31,201.49Z"/><path class="cls-1" d="M123.19,200.84,108.45,175.5a11.77,11.77,0,0,1-8.31-.64c-2.19-.85-4.23-1.65-9.06.34l0,8.12.2,19.86c7.27-4,11.2-3.09,15.73-2A26.75,26.75,0,0,0,123.19,200.84Z"/><path class="cls-1" d="M124.58,205l-.89-2.89a28.84,28.84,0,0,1-16.83.45c-6.17-1.44-10.25-.94-16,2.34-3.73-2.14-6.72-3.08-10.1-3.08a23.49,23.49,0,0,0-5.87.79,29.18,29.18,0,0,1-16.93-.5l-.94,3a10.78,10.78,0,0,0,3.18,1.34H56.54v2.1l32.25,0c1.7-1.9,2.54-2,4.23,0h31.81v-2.1h-5.37A28.9,28.9,0,0,0,124.58,205Zm-50.82,1.44c2.59-1.34,8-1.89,11.45,0Zm14.83,1.3,0,0,0,.05v.05l0,0c-5-4.38-9.5-3.54-14.78-2.49-4.63.89-9.81,1.84-16.38-.35l0-.25c6.57,2.19,11.75,1.2,16.33.35,5.33-1,9.81-1.89,14.83,2.49Zm.2-.4v.1l-.05.1c-5-4.43-9.5-3.53-14.78-2.54-4.63.9-9.81,1.89-16.38-.35l.05-.25c6.57,2.24,11.75,1.25,16.33.35,5.33-1,9.81-1.89,14.83,2.49l-.05,0ZM89,207l0,0v.05c-5-4.38-9.5-3.53-14.83-2.49-4.58.85-9.76,1.84-16.33-.35l0-.24c6.57,2.19,11.75,1.19,16.33.34,5.28-1,9.8-1.89,14.83,2.49l0,.05v0Zm.2-.55,0,.05,0,0v.05l0,.05c-5-4.38-9.51-3.53-14.83-2.48-4.58.84-9.76,1.84-16.33-.35l.05-.25c6.57,2.19,11.75,1.19,16.33.35,5.27-1,9.8-1.9,14.83,2.48Zm.2-.44,0,.05v0l0,.05,0,0c-5-4.38-9.51-3.49-14.78-2.49-4.58.89-9.81,1.89-16.38-.35l0-.25c6.57,2.24,11.75,1.24,16.33.35,5.32-1.05,9.85-1.89,14.83,2.49Zm.3-.55,0,.05v.05c-4.93-4.18-9.36-3.34-14.59-2.29-4.67.9-9.9,1.89-16.62-.45l0-.25c6.67,2.34,12,1.3,16.57.4,5.23-1,9.71-1.84,14.64,2.34l0,0v.05Zm2.34,0c4.93-4.28,9.36-3.44,14.58-2.54,4.68.9,9.91,1.94,16.63-.4.05.1,0,.15.05.25-6.72,2.34-12,1.3-16.63.45-5.22-1-9.7-1.74-14.58,2.49C92,205.57,92.08,205.52,92,205.42Zm.35.75,0,0v-.2c5-4.38,9.5-3.54,14.78-2.54,4.58.89,9.81,1.89,16.38-.35.05.1,0,.15.05.25-6.62,2.24-11.8,1.24-16.43.35C101.83,202.63,97.35,201.79,92.38,206.17Zm.15.39v-.05l0,0,0-.05v0c5-4.38,9.5-3.53,14.83-2.53,4.58.89,9.76,1.84,16.33-.35l0,.25c-6.57,2.24-11.8,1.24-16.38.35-5.28-1-9.81-1.85-14.78,2.53Zm.2.45v0l0-.05,0,0v-.05c5-4.38,9.5-3.53,14.83-2.54,4.58.9,9.75,1.9,16.33-.34,0,.15,0,.1,0,.24-6.57,2.24-11.74,1.25-16.37.35-5.28-1-9.81-1.84-14.79,2.54Zm.24.5,0-.1v-.2c5-4.38,9.51-3.53,14.84-2.49,4.58.85,9.75,1.84,16.32-.4,0,.1,0,.15,0,.25-6.57,2.24-11.74,1.25-16.32.4C102.48,203.93,98,203.08,93,207.51Zm3.19-1.1a14.73,14.73,0,0,1,11.6,0Zm11.8-1c-5.28-1-9.81-1.84-14.79,2.54l0,0v-.2c5-4.38,9.51-3.53,14.84-2.54,4.58.9,9.75,1.89,16.32-.35,0,.1,0,.15,0,.25C117.71,207.26,112.54,206.27,108,205.37Z"/><path class="cls-1" d="M167,216.3c.72-.62,1.26-1.28,1.1-1.92a1.25,1.25,0,0,0-.86-.86C166.81,213.86,167.07,215.8,167,216.3Z"/><path class="cls-1" d="M167,216.32v0l0,0Z"/><path class="cls-1" d="M35.52,47.3a1.32,1.32,0,0,0,.22,1.23c.58,0,1.45-1.75,1.77-2.14C36.56,46.46,35.75,46.69,35.52,47.3Z"/><path class="cls-1" d="M161.26,108.59a3.68,3.68,0,0,0-.26,2.85C162.14,110.56,162.59,109.2,161.26,108.59Z"/><path class="cls-1" d="M18.49,101.37c.73-.3.76-1.87.77-2.78C17.38,99.71,17.6,100.75,18.49,101.37Z"/><path class="cls-1" d="M175.13,153.71a4.45,4.45,0,0,0,1.08.11c.67-.1,1-.68.42-1.37C176.25,152.21,175.41,153.42,175.13,153.71Z"/><path class="cls-1" d="M81.44,22c.31-.14,0-.29-.16-.42-1.42-1.17-2.06-1.13-2.51.47A7.52,7.52,0,0,0,81.44,22Z"/><path class="cls-1" d="M167,97.69c.61-.59,1.36-1.47,1-2.15a1.22,1.22,0,0,0-.7-.6C166.63,95.41,167,97,167,97.69Z"/><path class="cls-1" d="M158.25,153.94c-.84.64.62,3.35,1.17,3.94a19.16,19.16,0,0,0,2.39-2.31,6.92,6.92,0,0,0-2.9-1.69A.8.8,0,0,0,158.25,153.94Z"/><path class="cls-1" d="M37.51,46.39h0Z"/><path class="cls-1" d="M170.28,52A79.66,79.66,0,0,0,163,41.93c-7.72-9.15-18-17.53-30.63-24.9-4.59-2.68-9.49-5.21-14.56-7.53A160.77,160.77,0,0,0,95.18,1.1L95,1.05,94.81,1,93,.49,91.16,0A89.6,89.6,0,0,0,68.68,7.1l-.06,0-.2.09,0,0-.48.22-.14.07A161.07,161.07,0,0,0,47.28,18.87c-17,11.05-30.74,24.26-38.75,37.2C-.73,71-.35,81.18.28,98v0L.64,234.54l32,0-.05-124.42A17.41,17.41,0,0,1,36.22,99,18.92,18.92,0,0,1,32,86.83C32,81.68,34.19,76,38.53,70A82.45,82.45,0,0,1,52.67,55.4C64.24,45.85,78,38.46,88.55,36.11l1.67-.37,1.65.44c18.89,5,39.55,19.11,50.42,34.38,4.31,5,7.48,14.42,5,22.42a16.46,16.46,0,0,1-3.17,5.85c2.29,2.65,4.7,7.19,4.37,14.37V234.7l31.81.11.77-141.95C181.05,75,179.64,67.41,170.28,52Zm2.76,68.4a1,1,0,0,1,.33-2c.59,0,1.56.15,1.68-.06l.87.33c-.58.41-1.29.11-1.88.11a.84.84,0,1,0-.15,1.68,2.6,2.6,0,0,0,1.51-.17l.84.33c-.82.44-1.89.22-2.4.55s-.6,1.21-.26,1.37a15.11,15.11,0,0,1,1.79-.62,6.26,6.26,0,0,1,1,.32c-1,.11-1.83.77-2.63.59-1.07-.23-1.62-1-.94-1.72a1.57,1.57,0,0,1,1.09-.47A3.17,3.17,0,0,1,173,120.42Zm-15.49-16.23c.28.18.32.18-.06.19a2.94,2.94,0,0,1-1.31-.25c-.77-.41-.33-1.14.26-1.39a2.58,2.58,0,0,1,1.2-.16,18.94,18.94,0,0,1,2.7.58c.9.22.45.25,0,.19a15.21,15.21,0,0,0-2.7-.33c-.44,0-.93.51-.83.94A3.1,3.1,0,0,0,157.55,104.19Zm15.3-19.67a5.28,5.28,0,0,0,.78-1.53,5.58,5.58,0,0,1,1.31.21c.42.17.37.42.12.88a5.6,5.6,0,0,1-3.22,2.24c-.53.16-.34.11.2.14a7.26,7.26,0,0,1,3.28.71c.91.55.81,1.44-.15,2l-1-.36a1.53,1.53,0,0,0,.63-.8c.18-1-1.95-1-2.51-1.1a5.82,5.82,0,0,1-2.14-.45l-.32,0a22.38,22.38,0,0,0-4.17.09c-.66.16-1.31,1-1.07,1.62a4.85,4.85,0,0,0,1.16.19c.45.2.51.2-.07.3a4.4,4.4,0,0,1-2-.09c-1.25-.45-.73-1.67.1-2.17a3.92,3.92,0,0,1,1.8-.52,29.5,29.5,0,0,1,4.22.29l.26,0a.25.25,0,0,1,.12-.1,7.61,7.61,0,0,0,3-1.41C173.06,84.6,173,84.64,172.85,84.52ZM163.46,99.9a2.44,2.44,0,0,0,1.18-1.26c.44-1.24-.42-3.16.37-4.24,1.06-1.45,3.39-.81,4.52.41a2.27,2.27,0,0,1,0,3.38,7,7,0,0,1-5.81,2.15,6.28,6.28,0,0,1-2.7-.8c-2.37-1.82-5.55-7-7.33-9.89a71.35,71.35,0,0,1-3.12-9.86c-.23-.92,0-.63.36.2a78.09,78.09,0,0,0,4.49,8.74C157.92,92.92,160.36,97,163.46,99.9Zm2.91,20.92,1.93,1.09-1.38,2.37L165,123.15Zm.61,3.41,1.94,1.09-1.39,2.37-1.91-1.13Zm1-.36,1.36-2.33,1.93,1.09L169.9,125Zm2.82-10.57-.56-.41a1.7,1.7,0,0,0,.84-.29c.29-.42-.19-1-.61-1.53a2.42,2.42,0,0,0-1.1,2.27c.3.9.57,1.44.78,2l-1.18-.6c-.71-1.81-1.25-3.16-2.12-5.1l1.1.44.65,1.51a3.18,3.18,0,0,1,1.12-1.32c.62-.28,3.28,2.16,2.42,2.9A1.44,1.44,0,0,1,170.81,113.3Zm4.73-.65a4.16,4.16,0,0,1-.95.86c-.12.11-.67-.24-.9-.32a8.14,8.14,0,0,0,1.07-1.13c-3-2-5.46-7.22-6.82-9.85-.81-1.59.13-.31.34,0,1.85,3,4,7.11,6.68,9.53.42-.5,1-1.34,1.68-1.34a1.89,1.89,0,0,1,1.48,1c.8,1.25.2,2-1,1.85A4.28,4.28,0,0,1,175.54,112.65Zm2-8.07a18.56,18.56,0,0,0-3.32-.74c-.55,0-1.22.51-1.15,1.06a3.94,3.94,0,0,0,.89.39c.32.24.37.26-.1.22a3.63,3.63,0,0,1-1.61-.47c-.9-.6-.27-1.47.49-1.7a3.19,3.19,0,0,1,1.52-.06,24.65,24.65,0,0,1,3.29,1.06C178.65,104.73,178.1,104.7,177.55,104.58Zm-1.31-8.14c-.08.35-.34.53-.66.38a10.11,10.11,0,0,1-3.23-1.74,11.57,11.57,0,0,1-.84-2.94c-.17-.74.06-.41.47.28a10.89,10.89,0,0,0,2.06,3,18.74,18.74,0,0,0-.4-4.07l2.27,1A13.63,13.63,0,0,1,176.24,96.44Zm-.55-19.87c.91.16.47.21,0,.18A15.29,15.29,0,0,0,173,76.6c-.44.07-.9.57-.78,1a3.16,3.16,0,0,0,.75.18c.28.15.32.16-.06.19a2.93,2.93,0,0,1-1.32-.16c-.78-.36-.39-1.12.18-1.41a2.61,2.61,0,0,1,1.19-.24A18.93,18.93,0,0,1,175.69,76.57Zm-3.78-5.37c.87.2,1,1,.37,1.64h-.92a1.33,1.33,0,0,0,.31-.82c-.1-.86-1.85-.33-2.32-.22a4.73,4.73,0,0,1-1.94.22c-.13,0-.14-.14,0-.27a6.65,6.65,0,0,0,2.07-1.95c-.07-.07-.08,0-.27-.07a4.79,4.79,0,0,0,.26-1.45,4.74,4.74,0,0,1,1.12-.19c.38,0,.4.24.31.68a4.88,4.88,0,0,1-2.06,2.69c-.38.28-.24.19.2.06A6.28,6.28,0,0,1,171.91,71.2Zm-4.52-8.35a4.62,4.62,0,0,0,.16-1.47,5.57,5.57,0,0,1,1.11-.27c.38,0,.41.22.35.67a5,5,0,0,1-1.88,2.83c-.37.29-.23.19.2,0a6.25,6.25,0,0,1,2.82-.51c.89.14,1.08.88.48,1.62l-.92,0A1.33,1.33,0,0,0,170,65c-.16-.85-1.87-.2-2.33,0a4.71,4.71,0,0,1-1.92.35c-.14,0-.16-.13,0-.27a6.68,6.68,0,0,0,1.94-2.09C167.58,62.84,167.58,62.88,167.39,62.85Zm-5.67,13.66a3.35,3.35,0,0,0,.77,0c.31.06.35,0,0,.2a3.12,3.12,0,0,1-1.31.23c-.86-.11-.69-1-.22-1.4a2.49,2.49,0,0,1,1.08-.58,18.38,18.38,0,0,1,2.72-.42c.92-.11.51.07.08.17a15.33,15.33,0,0,0-2.65.66C161.79,75.52,161.48,76.14,161.72,76.51Zm-1.88-3.72.68-3,2.46.46-.7,3.07Zm5-5.25c-.21.15-.42.13-.86.15a3.9,3.9,0,0,0-1.51-1.8c-.39-.21-.33-.24-.83.17-2,1.89-3.14,3.21-5.93,4.19-.44.16-.61.09-.08-.17C157.9,69,159,67.77,161,66a2.06,2.06,0,0,1,2.09-.5,3.13,3.13,0,0,1,1.39,1.19c.51-.84.19-1.49-.48-1.57-.41,0-.38-.12.15-.17.69-.1,1.5-.06,1.53.66A3.18,3.18,0,0,1,164.89,67.54Zm.43-7.68c1.39-.26.79,0,.13.26a23.07,23.07,0,0,0-4,1.26,1.45,1.45,0,0,0-.61,1.86A4.66,4.66,0,0,0,162,63.1c.49.06.55,0,0,.31a4.55,4.55,0,0,1-2,.48,1.13,1.13,0,0,1-.61-.22c-6.36-.47-9.1,5.29-5.73,10.44A28.93,28.93,0,0,0,162,81.82c1.52-1.31,3.3-3.36,5.15-4.12a2.06,2.06,0,0,0,.36-.56l2,.16c.29,0,.25,0,.07.28-.49.7-1.15,1.55-1.7,2.26-.31.39-.86.81-.62,0,0-.07,0-.27.09-.43s0-.22-.21-.09c-1.2.84-1.73,2-3.44,2.69a4.78,4.78,0,0,1-4.24-.11,30.79,30.79,0,0,1-8-7.32c-4.26-6.23.86-12.14,7.68-11.35a1.63,1.63,0,0,1,.44-1.47,4,4,0,0,1,1.59-1A30.19,30.19,0,0,1,165.32,59.86ZM159,52.52a4.15,4.15,0,0,0,.07-1.47,5.27,5.27,0,0,1,1.09-.34c.38,0,.43.18.4.64a5,5,0,0,1-1.71,2.94c-.35.32-.22.21.21,0a6.18,6.18,0,0,1,2.78-.69c.89.09,1.13.81.57,1.58l-.91.11a1.43,1.43,0,0,0,.21-.86c-.22-.84-1.88-.07-2.33.1a4.85,4.85,0,0,1-1.9.48h0a1.46,1.46,0,0,1-.55.31,18.67,18.67,0,0,0-3.15,1.3,1.19,1.19,0,0,0-.38,1.56,3.77,3.77,0,0,0,.93-.2c.41,0,.46,0,0,.25a3.57,3.57,0,0,1-1.58.53c-1.08,0-1-1.06-.52-1.69a3.43,3.43,0,0,1,1.24-.93,23.36,23.36,0,0,1,3.3-1,2,2,0,0,1,.63-.13s0-.14.06-.24a6.67,6.67,0,0,0,1.81-2.21C159.21,52.5,159.21,52.53,159,52.52Zm-9.42-8.6a6.8,6.8,0,0,0,1-2.7c-.09,0-.08,0-.27.06a4.58,4.58,0,0,0-.39-1.42,5.39,5.39,0,0,1,.93-.69c.35-.15.46,0,.57.47a5.13,5.13,0,0,1-.7,3.36c-.23.42-.14.28.21,0a6.25,6.25,0,0,1,2.41-1.6c.87-.22,1.33.39,1,1.3l-.83.41a1.38,1.38,0,0,0-.07-.88c-.46-.72-1.8.56-2.17.88a5.1,5.1,0,0,1-1.65,1.09C149.56,44.21,149.5,44.11,149.59,43.92ZM140,30.9c.3-.24.46-.1.67.29a5.17,5.17,0,0,1,.18,3.44c-.12.47-.07.3.19-.1A6.35,6.35,0,0,1,143,32.34c.79-.45,1.38,0,1.33,1l-.69.62a1.43,1.43,0,0,0-.29-.83c-.63-.57-1.6,1-1.88,1.44a5,5,0,0,1-1.31,1.5c-.12.08-.2,0-.16-.21a7,7,0,0,0,.3-2.88c-.09,0-.07,0-.24.12a4.71,4.71,0,0,0-.74-1.26A4.91,4.91,0,0,1,140,30.9Zm-4.71-8.44c.2.31,1.47,4,1.92,5.5.09.31.15.67.17.75.09.32,0,.64-.24.28a9,9,0,0,0-.9-.94c-.16-.11-.18-.05-.2.25.34,5.5,2.85,12.61,1.25,17.76a8.53,8.53,0,0,1-1,2.09c-.32.57-.52.83-.28.1a14.45,14.45,0,0,0,.21-1.69c.7-6.06-2.1-13.88-1.84-21.16a5.09,5.09,0,0,0-.34-.84C134.22,24.36,135.13,22.65,135.31,22.46ZM133.1,40.58c.77-.89.53-.37.21.1a19.79,19.79,0,0,0-2,2.88c-.23.53,0,1.37.49,1.52a4,4,0,0,0,.68-.69c.35-.22.39-.26.16.18a3.72,3.72,0,0,1-1,1.34c-.88.63-1.4-.31-1.31-1.13a3.51,3.51,0,0,1,.55-1.47A26.74,26.74,0,0,1,133.1,40.58Zm-5-12.62a3.79,3.79,0,0,1,.55-1.48,25.46,25.46,0,0,1,2.24-2.72c.78-.9.54-.38.21.1a20,20,0,0,0-2,2.87c-.22.53,0,1.37.49,1.52a4.1,4.1,0,0,0,.69-.69c.34-.21.38-.26.16.19a4,4,0,0,1-1.05,1.34C128.56,29.72,128.05,28.77,128.13,28Zm-5-10.24c.24-.31.42-.21.72.12a5.08,5.08,0,0,1,1,3.29c0,.49,0,.31.16-.13a6.64,6.64,0,0,1,1.38-2.61c.66-.63,1.34-.33,1.51.62l-.54.77a1.3,1.3,0,0,0-.47-.73c-.74-.4-1.31,1.39-1.49,1.85a5.29,5.29,0,0,1-.94,1.79c-.09.1-.19,0-.2-.17a7.08,7.08,0,0,0-.36-2.88c-.09,0-.07.05-.21.18a4.16,4.16,0,0,0-1-1A5.24,5.24,0,0,1,123.09,17.72Zm-2.75,6,1.9-1.65a12.81,12.81,0,0,1,3.64,1.55.48.48,0,0,1,0,.78,10.32,10.32,0,0,1-3,2.2A10.48,10.48,0,0,1,120,26c-.71-.18-.32-.24.46-.31a9.88,9.88,0,0,0,3.52-.53A17.42,17.42,0,0,0,120.34,23.71Zm-5.43-9.44c.24-.31.42-.21.72.12a5.08,5.08,0,0,1,1,3.29c0,.49,0,.32.16-.13a6.64,6.64,0,0,1,1.38-2.61c.66-.63,1.34-.33,1.51.62l-.54.78a1.36,1.36,0,0,0-.47-.74c-.74-.4-1.31,1.4-1.49,1.86a5.24,5.24,0,0,1-.94,1.78c-.09.1-.19,0-.2-.17a7.14,7.14,0,0,0-.36-2.88c-.09,0-.07,0-.21.19a4.4,4.4,0,0,0-1-1A5.5,5.5,0,0,1,114.91,14.27Zm-1.36,16.14c.57-2.49.36-4.18.27-6.86a2.24,2.24,0,0,1,.93-2,3,3,0,0,1,1.76-.39c-.32-.94-1-1.08-1.48-.58-.28.3-.33.22,0-.24.35-.62.89-1.26,1.45-.84a3.28,3.28,0,0,1,.94,1.85c0,.26-.16.42-.42.79a3.61,3.61,0,0,0-2.3.1c-.4.19-.39.12-.39.79.19,2.77.46,4.55-.55,7.43C113.57,30.9,113.42,31,113.55,30.41Zm-5.5-13.85a29.88,29.88,0,0,1,2-3.77c.69-1.25.53-.58.27.06a24.06,24.06,0,0,0-1.62,3.88c-.14.67.29,1.61.93,1.65a5.09,5.09,0,0,0,.64-1c.36-.34.39-.39.23.18a4.8,4.8,0,0,1-.91,1.84c-.89,1-1.71,0-1.8-1A4.06,4.06,0,0,1,108.05,16.56Zm-.39,10.79c0,.57,0,.37.19-.16a7.74,7.74,0,0,1,1.62-3.08c.78-.74,1.58-.39,1.79.73l-.64.92a1.55,1.55,0,0,0-.55-.87c-.88-.47-1.56,1.64-1.77,2.19a6.12,6.12,0,0,1-1.1,2.1c-.12.12-.23.05-.24-.19a8.25,8.25,0,0,0-.43-3.4c-.11,0-.08.05-.24.21a5,5,0,0,0-1.19-1.23,7.59,7.59,0,0,1,.58-1.26c.29-.36.5-.24.86.15A6.09,6.09,0,0,1,107.66,27.35ZM101.38,7.93c.24-.3.42-.2.72.13a5.08,5.08,0,0,1,1,3.29c0,.48,0,.31.16-.14a6.6,6.6,0,0,1,1.38-2.6c.66-.63,1.34-.33,1.51.62l-.54.77a1.3,1.3,0,0,0-.47-.73c-.74-.4-1.32,1.39-1.49,1.85a5.15,5.15,0,0,1-.94,1.78c-.09.11-.19,0-.2-.16a7.08,7.08,0,0,0-.36-2.88c-.09,0-.07,0-.21.18a4.16,4.16,0,0,0-1-1A5.53,5.53,0,0,1,101.38,7.93ZM100,24c.57-2.49.36-4.18.27-6.86a2.25,2.25,0,0,1,.93-2,3.11,3.11,0,0,1,1.76-.39c-.32-.93-1-1.07-1.48-.58-.29.31-.33.23,0-.24s.89-1.25,1.45-.83a3.22,3.22,0,0,1,.94,1.84c0,.27-.16.43-.42.8a3.61,3.61,0,0,0-2.3.1c-.4.18-.39.12-.39.78.19,2.78.46,4.55-.55,7.43C100,24.5,99.89,24.59,100,24ZM84.87,8.11c3.91-1.66,5.34-2.27,9.2-3.83l-.54,1.06c-2,.78-7.81,3.36-9.09,3.78Zm6.32,6.39a3.88,3.88,0,0,0,.38-.91c.25-.33.26-.38.22.11a4,4,0,0,1-.49,1.66c-.59.93-1.41.25-1.62-.53a3.52,3.52,0,0,1,0-1.59,27.63,27.63,0,0,1,1.08-3.4c.39-1.13.36-.55.23,0a20.92,20.92,0,0,0-.78,3.44C90.17,13.87,90.66,14.57,91.19,14.5Zm-13-8.17c.4.17,4.51,3,4.86,3.35s.67.7.17.54a13.25,13.25,0,0,0-1.48-.28c-.2,0-.18.06,0,.32,2.49,3.61,10.66,9,10.84,14.26,0,.91,0,1.75-.39.63a4.94,4.94,0,0,0-.72-1.72c-1.9-2.82-7.87-8.2-10.89-12A18,18,0,0,1,79,9.19a4.67,4.67,0,0,0-.77-.5C78.21,8.44,78.21,6.72,78.24,6.33Zm.49,8.44c0,.41.48.84.85.72a3.15,3.15,0,0,0,.16-.69c.13-.27.14-.31.16,0a2.79,2.79,0,0,1-.14,1.23c-.3.73-1,.36-1.21-.17a2.71,2.71,0,0,1-.21-1.11,19.91,19.91,0,0,1,.36-2.53c.14-.85.18-.44.16,0A14.05,14.05,0,0,0,78.73,14.77ZM70.1,24.21c.18,1.26-1.33,2-1.95.66-.27-.59-.63-1.58-.86-1.58l-.13-1c.64.36.71,1.19,1,1.75.57,1.12,1.9.47,1.56-.66A3.08,3.08,0,0,0,68.85,22l-.11-1c.78.58,1.09,1.71,1.64,2s1.35,0,1.34-.4a18.9,18.9,0,0,1-1.41-1.42,6.76,6.76,0,0,1-.19-1.09c.56.86,1.56,1.38,1.79,2.23.31,1.14-.14,2-1.08,1.72a1.7,1.7,0,0,1-.94-.81A4.33,4.33,0,0,1,70.1,24.21Zm-16,8.47c.13-.54.36-1.83.49-2.41,5.56-6.17,15.47-14.21,21.71-19.68l-.42,2.22C72.78,15.2,56.28,29.83,54.13,32.68Zm6.63.3a4.39,4.39,0,0,0-1.55.2A7.19,7.19,0,0,1,58.66,32c-.1-.43.11-.52.59-.57a5.12,5.12,0,0,1,3.38,1.36c.4.34.26.21,0-.23a7.44,7.44,0,0,1-1.25-3c-.08-1,.63-1.42,1.54-.94l.28,1a1.32,1.32,0,0,0-.93-.08c-.83.4.28,2.13.54,2.6a5.64,5.64,0,0,1,.85,2c0,.16-.09.21-.27.08a7,7,0,0,0-2.64-1.62C60.7,32.76,60.74,32.76,60.76,33Zm7-22.07c.14-.85.18-.44.16,0a15,15,0,0,0-.14,2.52c.06.41.49.84.86.72a3.15,3.15,0,0,0,.16-.69c.13-.27.14-.31.16.05a2.79,2.79,0,0,1-.14,1.23c-.31.73-1,.36-1.21-.17a2.71,2.71,0,0,1-.21-1.11A19.91,19.91,0,0,1,67.75,10.91ZM56,20.14A5.14,5.14,0,0,1,59.4,21.5c.4.34.26.22,0-.23a7.44,7.44,0,0,1-1.25-3c-.08-1,.63-1.42,1.54-.94l.28,1a1.38,1.38,0,0,0-.93-.08c-.83.4.27,2.13.54,2.6a5.69,5.69,0,0,1,.85,2.05c0,.15-.09.2-.27.07a7,7,0,0,0-2.64-1.62c-.05.09,0,.09,0,.31a4.39,4.39,0,0,0-1.55.2,5.8,5.8,0,0,1-.55-1.16C55.33,20.28,55.54,20.19,56,20.14Zm-3.87,1.7a22.72,22.72,0,0,0,.56,3.92c.21.61,1,1.13,1.53.83a5.94,5.94,0,0,0,0-1.12c.12-.45.11-.51.26,0a4.4,4.4,0,0,1,.15,1.93c-.24,1.23-1.37.88-1.9.15a4,4,0,0,1-.66-1.64,30.32,30.32,0,0,1-.22-4C51.86,20.58,52.06,21.19,52.15,21.84ZM49,30.41,49,33l-3-.06L46,30.35Zm-3,5.23-3-.06L42.94,33l3,.06Zm-4.08-8.53a14.51,14.51,0,0,0,.93,2.33c.22.34.79.53,1.07.26a3.25,3.25,0,0,0-.14-.69c0-.3,0-.34.17,0a3,3,0,0,1,.38,1.17c0,.79-.72.76-1.16.4a2.53,2.53,0,0,1-.65-.91,18.28,18.28,0,0,1-.74-2.44C41.54,26.37,41.75,26.72,41.91,27.11Zm-6,6.36.26,1.47c-1,1.8-5.79,12.52-6.43,14l-.31-1.65C31.38,43,34,37.18,35.94,33.47Zm-11,12.11a14.53,14.53,0,0,0,1.67,1.84c.32.23.92.21,1.09-.15a3,3,0,0,0-.38-.6c-.09-.28-.11-.31.15-.09a2.82,2.82,0,0,1,.76,1c.3.73-.41,1-.94.8a2.39,2.39,0,0,1-.92-.61,19.57,19.57,0,0,1-1.53-2C24.3,45,24.61,45.28,24.89,45.58Zm-.7,4.28c.82.08,1,.3.44.47-.23.07-.62.23-.85.3-.5.14-.37.21-.05.32C29,52.61,31,52.46,36.14,54.56a14.94,14.94,0,0,1,3.32,1.94c.4.3.77.6,1,.84.45.41.6.72.23.55-.93-.42-1.4-.71-2.45-1.1-8.47-3-8.87-2.32-17.49-5.36a2,2,0,0,0-1,0l-1.51-1.72C19.1,49.67,23.72,49.81,24.19,49.86ZM21,58.36a4.79,4.79,0,0,0-1.3.89,6.52,6.52,0,0,1-1-.78c-.26-.34-.12-.52.29-.78a5.08,5.08,0,0,1,3.61-.34c.5.12.33.07-.1-.21A6.93,6.93,0,0,1,20.15,55c-.51-.88,0-1.57,1-1.55l.69.77a1.37,1.37,0,0,0-.87.36c-.58.74,1.15,1.78,1.59,2.08a5.54,5.54,0,0,1,1.58,1.39l.22.13a19,19,0,0,0,2.82,2,1.1,1.1,0,0,0,1.45-.55,3.76,3.76,0,0,0-.69-.69c-.21-.36-.25-.39.18-.17a3.81,3.81,0,0,1,1.32,1c.63.91-.27,1.47-1.06,1.4a3.31,3.31,0,0,1-1.43-.53,25.34,25.34,0,0,1-2.68-2.26l-.2-.19s0,.1-.09.08a6.89,6.89,0,0,0-3.06-.23C20.89,58.2,20.92,58.17,21,58.36ZM10.8,65.89a19.77,19.77,0,0,0,2.82,2,1.1,1.1,0,0,0,1.45-.56,4.09,4.09,0,0,0-.69-.69c-.21-.35-.25-.39.18-.17a3.84,3.84,0,0,1,1.32,1.06c.63.9-.27,1.46-1.05,1.39a3.22,3.22,0,0,1-1.44-.53,26.64,26.64,0,0,1-2.68-2.25C9.83,65.33,10.34,65.56,10.8,65.89Zm0,9.07a15.19,15.19,0,0,1-1.9.51,7,7,0,0,1-1-.4c1,0,1.95-.67,2.77-.42,1.09.32,1.6,1.19.85,1.85a1.63,1.63,0,0,1-1.17.41,3.7,3.7,0,0,1,.85.29c1.13.51,1,2.23-.48,2.07C10.11,79.2,9.11,79,9,79.21l-.89-.41c.63-.38,1.35,0,2,0a.88.88,0,1,0,.27-1.73,2.74,2.74,0,0,0-1.58.05l-.85-.4c.89-.39,2-.08,2.53-.39S11.14,75.16,10.8,75ZM5.62,80.12c.17-.31.46-.42.73-.19A10.37,10.37,0,0,1,9,82.5a11.66,11.66,0,0,1,.06,3.07c0,.76-.16.37-.39-.4a10.81,10.81,0,0,0-1.21-3.48,19.27,19.27,0,0,0-.65,4L4.9,84.13A14.2,14.2,0,0,1,5.62,80.12Zm4.66,13.6c.46,2,4.11,13.23,4.6,14.73l-1.32-1C12.13,103,10.18,96.93,9.12,92.85ZM4.91,95a14.8,14.8,0,0,0,2,1.38c.37.15.95,0,1-.41a2.84,2.84,0,0,0-.49-.49c-.16-.25-.19-.27.12-.12a2.56,2.56,0,0,1,1,.74c.46.64-.18,1.05-.74,1a2.35,2.35,0,0,1-1-.37,18.87,18.87,0,0,1-1.93-1.59C4.22,94.6,4.58,94.77,4.91,95ZM5,100.93l1,.22a1.45,1.45,0,0,0-.5.82c0,1,1.93.75,2.46.72a5.33,5.33,0,0,1,2.14.18c.14.06.12.19-.07.29a7,7,0,0,0-2.62,1.66c.06.09.07.05.27.14a5.1,5.1,0,0,0-.56,1.51,5.51,5.51,0,0,1-1.24,0c-.41-.11-.39-.35-.21-.81a5.36,5.36,0,0,1,2.75-2.46c.47-.21.3-.14-.2-.11a6.64,6.64,0,0,1-3.13-.26C4.2,102.38,4.19,101.54,5,100.93Zm.79,9.39L8,111.61l-1.55,2.63L4.23,113Zm19.32,36.54a2.19,2.19,0,0,0,.84-2.13c-.33-.79-.61-1.25-.84-1.71l1.1.45c.77,1.58,1.36,2.76,2.27,4.44l-1-.31-.69-1.31a3,3,0,0,1-.92,1.27c-.54.3-3.11-1.71-2.38-2.43a1.31,1.31,0,0,1,1.19-.26l.54.33a1.63,1.63,0,0,0-.74.32C24.25,145.92,24.72,146.42,25.13,146.86Zm.22-6.37c-9,.25-9.09,1.08-18.19,1.39a2.11,2.11,0,0,0-.91.37c-.18-.11-1.58-.84-2-1.06.74-.34,5.11-1.9,5.57-2,.8-.24,1-.09.57.27-.19.15-.51.44-.69.6-.42.3-.28.32.06.31,5.5-.38,7.28-1.23,12.83-1.17a14.7,14.7,0,0,1,3.77.6,12.27,12.27,0,0,1,1.25.41c.55.22.81.46.4.43C27,140.57,26.47,140.47,25.35,140.49Zm-5.86-10.14c-.27-.2-.31-.21.08-.19a3,3,0,0,1,1.33.39c.76.49.24,1.2-.39,1.41a2.73,2.73,0,0,1-1.25,0,18.51,18.51,0,0,1-2.73-.86c-.91-.31-.45-.29,0-.19a15,15,0,0,0,2.75.59c.46,0,1-.43.94-.89A3.41,3.41,0,0,0,19.49,130.35Zm6.34-12.93.91.55c.79,2.06,2.85,7.39,3.27,8.72l-.74-.38C27.61,122.27,27.4,121.41,25.83,117.42Zm1.56,14c1.83,6.2-5,7.47-10,4.94-1.24-.54-1-.72-.15-.4l1.25.46c4.58,1.8,8-1,6.58-5.52-.86-2.72-4.69-7.45-6.88-9.08a2.1,2.1,0,0,0-.76,1.34c-.17,1,.29,2.26-.07,3.42-.44,1.51-2.32,1.73-3.77.94-1.69-.87-2.45-2.71-1-4.38,1.94-2.19,6.09-2.62,8.07-.93C23.13,124,26.51,128.22,27.39,131.38ZM14,137.19l-1.4-.86C10.81,132,8.36,126.13,7,122.17l1.23.77C8.82,124.92,13.4,135.74,14,137.19ZM7.08,118.28,4.89,117l1.58-2.68,2.17,1.29ZM4.56,134a15.85,15.85,0,0,0,2.75.6c.46,0,1-.44.94-.89a3,3,0,0,0-.73-.31c-.27-.21-.31-.22.08-.19a3.05,3.05,0,0,1,1.33.38c.75.49.24,1.21-.39,1.41a2.62,2.62,0,0,1-1.26.06,21.78,21.78,0,0,1-2.73-.86C3.65,133.87,4.1,133.88,4.56,134Zm14.53,64.17a9.29,9.29,0,0,0,4.21-.94c2.4-1.44,1.94-4.42.14-6.89a18.55,18.55,0,0,0-1.54-1.65c-.46-.64-.47-1,.17-.74a2,2,0,0,0,1.32.07c1.14-.57,1.33-3-.24-4.23a7.74,7.74,0,0,0-1.85-1.1c-.58-.3-.89-.79.21-.33.34.13.73.27,1,.14,1.12-.42,1.44-2.53.82-3.29a4.94,4.94,0,0,0-.95.73l-2.6-.81c1.33-1.41,4.43-.9,5.44,0,1.18,1.09.95,3.59-.61,4.07-.33.14-1,0-.28.33,2.87.82,3.34,5.4.23,5.56-.32,0-.26.07.09.49,2.91,2.5,3.7,7,.1,8.89a14,14,0,0,1-5.54,1c-5.43.39-9,.61-13.06,1.69-.24-.12-1.75-.65-2.36-.93C7.72,198.67,14.49,198.51,19.09,198.15ZM26,162.46a4.84,4.84,0,0,0-.56,1.51,6.1,6.1,0,0,1-1.25,0c-.4-.12-.39-.35-.2-.81a5.32,5.32,0,0,1,2.75-2.46c.47-.21.3-.14-.2-.11a6.89,6.89,0,0,1-3.13-.26c-.91-.41-.92-1.25-.08-1.86l1,.21a1.46,1.46,0,0,0-.5.82c-.06.95,1.93.75,2.46.73a5.11,5.11,0,0,1,2.13.18c.14.05.13.18-.07.28a7.17,7.17,0,0,0-2.61,1.67C25.82,162.41,25.83,162.38,26,162.46Zm-2-10.14a10.62,10.62,0,0,0-1.7.83c-5.91,3.32-8.21,7.53-15.16,11.75a3.06,3.06,0,0,0-.27.59l-1.38-.05c-.79-.08-1.09.11-.51-.65.85-1.13,2.29-3.29,3.12-4.25.25-.29.6-.38.41.07-.07.26-.14.49-.22.74-.12.4-.29,1.09.09.81,4.09-3.11,6.93-6.64,10.37-8.53a13.64,13.64,0,0,1,2.45-1.2,9.07,9.07,0,0,1,2.54-.34C24.55,152.07,24.91,152.1,24.08,152.32Zm-7.5,33.07,2.22,1.19-1.45,2.7-2.24-1.14Zm-2.68,3.09-2.24-1.14,1.47-2.75,2.21,1.19Zm2.68-3.17-2.24-1.14,1.47-2.75L18,182.61Zm-.92-9.42a10.93,10.93,0,0,0-1.77-3.2,18.72,18.72,0,0,0,0,4.09l-2.18-1.22a14,14,0,0,1,0-4.09c.11-.33.38-.49.69-.31a10.36,10.36,0,0,1,3.06,2.05,12,12,0,0,1,.57,3C16.21,177,16,176.62,15.66,175.89Zm-1.25,20.82-1.4-.86c-1.8-4.31-6.72-15.4-8.11-19.37l1.23.77C6.75,179.23,13.79,195.26,14.41,196.71Zm-3.1-23.21A7.06,7.06,0,0,0,8.59,175c.05.09.06.06.25.16a4.76,4.76,0,0,0-.65,1.46A5.44,5.44,0,0,1,7,176.47c-.4-.15-.37-.38-.15-.82a5.27,5.27,0,0,1,2.9-2.26c.49-.18.32-.12-.19-.12a6.82,6.82,0,0,1-3.1-.5c-.88-.47-.83-1.31,0-1.85l1,.28a1.47,1.47,0,0,0-.56.78c-.12,1,1.88.89,2.41.91a5.27,5.27,0,0,1,2.12.33C11.53,173.29,11.51,173.41,11.31,173.5ZM8.56,158.45a10.64,10.64,0,0,0-1.78-3.21,18.88,18.88,0,0,0,0,4.1l-2.18-1.23a14,14,0,0,1,0-4.09.45.45,0,0,1,.69-.3,9.91,9.91,0,0,1,3.06,2,11.7,11.7,0,0,1,.57,3C9.1,159.53,8.9,159.17,8.56,158.45Zm-3.8,33.91a15.74,15.74,0,0,0,3,.69c.5,0,1.1-.46,1-1a3.73,3.73,0,0,0-.79-.35c-.29-.23-.34-.24.09-.2a3.27,3.27,0,0,1,1.44.43c.81.55.24,1.32-.44,1.53a2.85,2.85,0,0,1-1.37,0,20.08,20.08,0,0,1-3-1C3.77,192.22,4.27,192.25,4.76,192.36Zm1.53,17.17a5.49,5.49,0,0,1-1.24-.12c-.4-.15-.37-.38-.15-.82a5.29,5.29,0,0,1,2.91-2.26c.48-.18.31-.12-.2-.12a6.85,6.85,0,0,1-3.1-.5c-.87-.47-.83-1.31,0-1.85l1,.28a1.45,1.45,0,0,0-.55.78c-.12,1,1.87.89,2.4.91a5.27,5.27,0,0,1,2.12.33c.14.07.11.19-.09.28a7.14,7.14,0,0,0-2.72,1.47c0,.09.07.06.26.16A4.8,4.8,0,0,0,6.29,209.53Zm17,10.36a13.41,13.41,0,0,1-5.3-1.42,1.28,1.28,0,0,1-1.07,1.1,3.51,3.51,0,0,1-1.69-.07A26.13,26.13,0,0,1,11.68,218c-1.18-.52-.57-.45,0-.26a21.57,21.57,0,0,0,3.64,1.11c.61.06,1.39-.47,1.35-1.09a4.75,4.75,0,0,0-1-.5c-.34-.3-.39-.32.14-.24a4,4,0,0,1,1.73.67c.1.07.11.15.17.22a11.3,11.3,0,0,0,4.84,1.29c1.48-.14,1.81-1.63,1.38-3.12a82.37,82.37,0,0,0-5.88-11.36,1.85,1.85,0,0,0-1.16.69c-2.35,2.58-3.2,6.44-7.09,8.78a1.08,1.08,0,0,0-.44.72L7,214.73c.52-.95,1.4-2.25,2-3.34.19-.36.63-.74.5.1,0,.19-.07.36-.09.56s-.06.41.06.34c1.4-.89,3.34-5.06,4.59-6.62,1.23-1.81,3.29-1.82,5.13-1.23a2.32,2.32,0,0,1,1.43.94c1.49,2.24,5.35,9.25,5.63,10.54C27.27,218.33,25.25,219.85,23.31,219.89Zm5.22-6.44c-2.09-4.31-3.83-7.29-5.51-11.26l1.37.77c.62,2,4.92,9.9,5.53,11.35Zm.87-30A75.6,75.6,0,0,0,26,175.87a52.51,52.51,0,0,0-7.12-11c-2.26.77-3.65,2-6.31,2.4-.12,0-.16.1-.33.36l-2.37-.72c1-.81,1.66-1.36,2.75-2.11.45-.27.9-.43.6,0a5.21,5.21,0,0,0-.33.56l-.07.1c-.09.18,0,.18.25.1,1.68-.51,2.19-1.27,4-1.62a6.14,6.14,0,0,1,3.63.83c2.76,2.52,5.86,7.67,7.34,11,.72,2.57,1.29,5.43,1.8,7.6S30.32,185.81,29.4,183.43Zm.7-24.69c-1.75-3.37-3.12-6.87-6-8.73a3.94,3.94,0,0,0-2.55-.43c-5.67.41-9.24,1.43-15,1.59a1.84,1.84,0,0,0-.65.37l-1.33-.79c-.54-.3-.48-.27.09-.53,1.1-.48,3.23-1.33,4.49-1.82.86-.34,1.25-.17.61.35a6.79,6.79,0,0,0-.58.52c-.2.19-.17.24.24.22,5.9-.54,6.3-1.3,12.23-.84,6.52.77,7.29,4,8.53,9.15C30.59,159.32,30.63,159.68,30.1,158.74Zm-.05-10.63c-2.13-3.79-1.16-2.19-3.18-6l1,.43c1,1.94,2.41,4.55,3,5.81Zm-3.86-34a11,11,0,0,1-5.46-1.4c.65,1.28.88,2.67-.46,3.06-1.8.52-4.56-.56-5.79-1.66a10.93,10.93,0,0,1-2.61,2.12,1.15,1.15,0,0,0-.38.59l-2.22-.28c.48-.82,1.28-2,1.76-2.77.26-.5.8-1,.56,0-.08.55-.15.77-.06.73a1.06,1.06,0,0,0,.27-.17A12.89,12.89,0,0,0,13.08,113a29.93,29.93,0,0,0-5.23-3.22,6.66,6.66,0,0,1,3.06.76c.91.54,2.11,1.32,2.8,1.77.78-.9,1.54-2.07,3.64-1.84a4.53,4.53,0,0,1,2.58,1,5.4,5.4,0,0,1,.3.47c1.82,1,4,1.72,5.9.88a4.46,4.46,0,0,0,2.5-4.19c0-3.38-3.83-8.53-6.07-11.08a3.24,3.24,0,0,0-1.09.38,7.7,7.7,0,0,1-.45,4c-.95,1.59-2.94,1-4.15,0C15,100.32,15,97.56,19.3,96.3A34.3,34.3,0,0,0,18.67,92c-1.07,1.83-3.94,3.25-6,2.35-3.7-1.58-4.25-7.31-.88-9.92.11-.1,1-1,.15.36a11.87,11.87,0,0,0,.84,8.64c1.79-.23,5.1-2.33,5.14-5.17-.16-1.54-1-5.2-1.39-7.18.57.32,1.22.9,1.78,1.29.26,2.36,1.47,6.8,2.07,9.45.39,1.71.8,3.3,1,4.62a11.85,11.85,0,0,1,3.34,1.44c2.43,2.09,5.49,6.62,6.19,10.36A4.89,4.89,0,0,1,26.19,114.08Zm-3.78-7.64c-.26-.31-.31-.34.15-.19a3.77,3.77,0,0,1,1.47.81c.76.79,0,1.49-.82,1.56a3.21,3.21,0,0,1-1.5-.28,25.94,25.94,0,0,1-3-1.77c-1-.62-.45-.47.06-.23a19.39,19.39,0,0,0,3.09,1.46c.54.13,1.3-.23,1.34-.79A4.19,4.19,0,0,0,22.41,106.44Zm-.16-28.75c-.16-.25-.18-.27.12-.12a2.56,2.56,0,0,1,.95.74c.46.65-.18,1-.74,1a2.35,2.35,0,0,1-1-.37,18.87,18.87,0,0,1-1.93-1.59c-.63-.55-.27-.38.06-.15a13.52,13.52,0,0,0,2,1.38c.36.15.94,0,1-.41A2.84,2.84,0,0,0,22.25,77.69Zm6.34,15c-.27-.31-.31-.34.14-.2a3.79,3.79,0,0,1,1.47.82c.76.79,0,1.49-.82,1.56a3.21,3.21,0,0,1-1.5-.28,25.94,25.94,0,0,1-3-1.77c-1-.62-.45-.47.06-.23A19.39,19.39,0,0,0,28,94c.54.13,1.3-.23,1.34-.79A4.47,4.47,0,0,0,28.59,92.68ZM29.3,72.4c-1.52.48-3.58.14-5.09-.07-.49-.07-.32,0,.19.18a7,7,0,0,1,2,1c1.75,1.47,3.75,7.13,3.86,10.09a2.46,2.46,0,0,1-2.12,2.88c-2.15.48-5.19-1.76-6.83-3.19-.55-.48-.47-.63.06-.33,1.32.91,3.32,2.71,4.95,2.62.83-.07,1.55-.53,1.78-1.86.37-2.08-1.12-8-4-10.82-.64-.63-.56-.54-1.41-.53a85.76,85.76,0,0,0-9.55.82c-.42-.18-1.81-1-2.23-1.2,2.36-1.14,7.65-1.27,10.77-1,1.52.12,2.55.41,4.1.4,2.66.15,5.11-1.34,3.52-5.48-6.83-1.46-9.2-1.62-16.27-3.28a1,1,0,0,0-.78.2c-.13-.11-1.2-1.27-1.8-1.8.71-.15,5-.44,5.52-.49,1-.07.85.27.51.43s-.52.21-.72.34c-.43.22-.25.17.18.34,2.3.63,5.65.66,11.84,2.6.78.27,2.88,1.28,3.35,2.13C32.07,68,32.2,71.6,29.3,72.4ZM36,68.06a13.63,13.63,0,0,0-1.3-2.13.78.78,0,0,0-1.1-.08,3.12,3.12,0,0,0,.26.66c0,.3.06.33-.16.06a2.7,2.7,0,0,1-.57-1.09c-.16-.78.58-.87,1.07-.59a2.26,2.26,0,0,1,.79.78,19,19,0,0,1,1.13,2.27C36.47,68.72,36.2,68.41,36,68.06ZM43.77,58c-1,8.4-8.5,5.76-11.49.07-.71-1.21-.38-1.18.1-.43.22.34.48.73.77,1.14,3.08,4.44,8,3.85,8.76-1.66a30.47,30.47,0,0,0-.76-10.51,2,2,0,0,0-1.38.64c-.73.76-1,2-2,2.77-1.22,1-2.89,0-3.63-1.53-.9-1.74-.48-3.72,1.7-4.18,2.82-.62,6.48,1.56,7.15,4.16A25.52,25.52,0,0,1,43.77,58ZM47,54.87a2.41,2.41,0,0,1-.65-.9,18.73,18.73,0,0,1-.74-2.44c-.23-.83,0-.48.14-.1a13.81,13.81,0,0,0,.93,2.33c.22.35.79.54,1.07.27a2.92,2.92,0,0,0-.15-.7c0-.29,0-.33.17,0a3,3,0,0,1,.39,1.17C48.23,55.27,47.48,55.24,47,54.87Zm7.52-4.25-.18-.83c1.93-3.91,2.44-4.62,4.39-8.42L59,42.45C57.92,44.39,55.28,49.44,54.56,50.62ZM68.29,39.19l-.08-2.59,3,.06,0,2.58Zm3-2.64L71.23,34l3,.06,0,2.59Zm2-5.95a3.42,3.42,0,0,1-1.75-1.14c-.22-.26-.44-.32-.78.63C69,36,63.94,40.47,59.47,40.32c-2.41-.07-3.14-.94-4.95-2C52.82,37,52,40.62,52.14,42.07c.09,1.14.42,2.55.6,3.75.7,4.33-1.15,5-3.93,3.47a13.27,13.27,0,0,1-4.1-5,7.28,7.28,0,0,1-.41-1,1.91,1.91,0,0,1-1.58-.36,5.24,5.24,0,0,1-1.53-1.81,41.26,41.26,0,0,1-2-5.05c-.62-1.71-.11-1,.27-.22a31.2,31.2,0,0,0,2.36,4.78c.52.69,1.62,1,2.17.38a7,7,0,0,0-.42-1.45c0-.63-.06-.71.35-.09a6,6,0,0,1,1,2.41,1.2,1.2,0,0,1-.45,1.23c.07.13.11.17.21.38,1,1.77,1.62,3,3.39,4.19,1.19.89,3.73,1.13,3.56-1.71,0-2-1.15-4.51-.77-7.48.53-3.64,2.34-3.4,3.5-2.48,1.57,1.16,3.34,2.28,5.35,2,4.67-.42,8.67-5.79,10.17-10,.16-.44.29-.85.43-1.28.21-.71.42-1,.71-.18,1.88,3.26,6,1.56,6.27-2.35a15.19,15.19,0,0,1,.11-2c0-.41.15,0,.22-.18.79-5.32,3.71-3.4,5.16-1.29a2.3,2.3,0,0,1,.47,1.41A5.3,5.3,0,0,1,83,23.93c-.11.26-.27.32-.63.38-2,.24-3.51.4-4.08-.17-.15-.22-.26-.21-.2.43C78.26,28.92,75.64,31.1,73.33,30.6Zm4.35,2c4.69-3.9,5.75-4.38,10.41-8.13L87.72,26c-2.43,1.9-8.68,6.86-10.27,8Zm18.68-3a11.83,11.83,0,0,1-1.63-5.14c0-1.05,0-1-.4.32-1,3.62-2.44,5.2-4.41,6.35a25.38,25.38,0,0,1-6.25,2.18c-1.7.45-1.23.06,0-.55A42.47,42.47,0,0,0,89.54,29c2.24-1.9,4.17-3.88,4.63-7,.3-4,0-12,0-14.41A24.34,24.34,0,0,1,95.33,5c.55,5,.43,10.88.49,16.14A12.86,12.86,0,0,0,97.63,28c4.75,6.44,16.8,7.07,24,4.56.52-.11.88-.13.46.35-.25.19-.78.94-.64,1.32.25,1.19,2.51,2,4,1.16a7.67,7.67,0,0,0,2-2c.3-.43.9-.7.5,0-.2.4-.58.8-.59,1.08,0,1.86,2.72,2.76,3.28,2.25-.13-.35-.35-1.15-.46-1.43.35-.62.92-1.51,1.32-2.27.92,1.65.19,3.84-1.17,5.45a2.71,2.71,0,0,1-4.21-1.53c-.11-.64.07-1.13-.29-.52-2,3-6.18,1.6-5.55-1.11.11-.36,0-.52-.5-.31C111.18,37,100.15,35.61,96.36,29.64Zm25.83,11.67a13.59,13.59,0,0,1-6.46.91c-.91-.11-1-.35,0-.28,3.48.16,7.38-2.2,8.75-1.29a.6.6,0,0,1,.29.3c.23.7.75,1.33,1.64.76a3.13,3.13,0,0,0,.53-.38c.34-.25.39-.13.19.07a2.73,2.73,0,0,1-.24.26c-.2.44.5.9.8.91a1.32,1.32,0,0,0,0-.53l.63-.47a1.52,1.52,0,0,1-.47,1.21c-.66.75-1.76.46-1.64-.52a1.22,1.22,0,0,1-2.11-.48C124,41,122.9,41.19,122.19,41.31Zm3.2,7.69c-1.37-.72-1.65-.94-.63-.68,3.55,1.06,8,2,11.29,1.11.92-.27,1.27-.79,1.93-1.59,3.5-4.29,6-9.15,9.23-13.32a4,4,0,0,0,.25-1.05l1.61-.44c.58-.19.53-.17.3.44-.44,1.15-1.23,3.89-1.77,5.17-.37.87-.76,1-.67.2a6.63,6.63,0,0,0,0-.79c0-.28,0-.4-.28-.08-1.55,2.22-2.75,4.11-3.93,5.89-1.82,2.89-4.55,6.06-7.57,7.31C132,52.52,128.74,51,125.39,49Zm19.86-.86a4.46,4.46,0,0,0,.92-.29c.4,0,.44-.05.06.24a3.78,3.78,0,0,1-1.53.7c-1.06.14-1.11-.94-.67-1.63a3.29,3.29,0,0,1,1.13-1,24.33,24.33,0,0,1,3.18-1.38c1.08-.43.64-.08.15.19a19.23,19.23,0,0,0-3,1.64A1.18,1.18,0,0,0,145.25,48.14ZM139,51.82c.18-.61,3.35-1.14,3.35-.08a1.44,1.44,0,0,1-.66,1.07l-.6.17a1.57,1.57,0,0,0,.29-.78c-.11-.45-.79-.44-1.37-.44a2.21,2.21,0,0,0,.88,2.11c.78.3,1.3.41,1.77.56l-1.08.51c-1.62-.53-2.85-.91-4.65-1.4l.93-.54,1.39.39A3,3,0,0,1,139,51.82Zm-5.55,2.68.77-.28c3.95,1.57,4.69,2,8.54,3.61l-1,.31C139.74,57.29,134.62,55.11,133.42,54.5Zm7.73,7.92c.72-.75,1.14-1.11,1.86-2,5.75-7.14,7-9.74,12.78-17a2.3,2.3,0,0,0,.34-.95l2.08-.85c-.24.8-2,5.23-2.23,5.67-.36.78-.61.85-.57.26,0-.24,0-.68,0-.93.05-.53-.06-.43-.27-.16-3.37,4.54-5.66,8.43-9.39,12.72a15.73,15.73,0,0,1-2.92,2.53,12.19,12.19,0,0,1-1.13.71C141.2,62.68,140.87,62.72,141.15,62.42Zm-.1,1.55.78-.28c3.95,1.56,4.69,2,8.53,3.61l-1,.3C147.38,66.75,142.26,64.58,141.05,64ZM151.37,98.1c2.57-1.22,5.58-.42,8,.74,2.08,1,1.47,1.1,0,.43-2.35-.82-4.06-1.62-6.41-.26s-2.11,3.9-.9,6.31c1.51,3,4.1,6.49,5.88,7.79l.86-.49c-.74-2-.44-4,.38-4.76,1.17-1.07,2.82-.61,3.9.13,2.32,1.57,1.45,4.05-1.82,5.85a16.73,16.73,0,0,0,2,5.15c.32.49-.05.5-.5.24a3.21,3.21,0,0,0-.89-.25c-1.58.19-1.45,2.83-.29,3.8a11.55,11.55,0,0,0,1.61,1.21c.59.37.47.63-.06.45A11,11,0,0,0,162,124a2.17,2.17,0,0,0,.14,3.47,10.55,10.55,0,0,0,1.33.5c.64.23,1,.58.19.57-1.82.35-2.14,2.57-1.38,3.87,7-1.11,10.9-1.65,13.68-1.8.32-.13.29-.16.62-.43.61.34,1.42.63,2,1-1.57.73-4.13,2.06-5.71,2.64-.49.12-.49-.06-.26-.27a9.62,9.62,0,0,1,.85-.84c.34-.29.31-.38-.36-.31-3.26.37-5.64,1.11-8.88,1.09a10.32,10.32,0,0,1-2.83-.29c-2.46-.71-2.43-3.94-.43-5.15.43-.18.46-.24,0-.4-2.05-.32-3-3.37-.75-4.22.3-.08.7-.15.26-.29-1.86-.79-2.8-3.45-1.41-4.58a1.82,1.82,0,0,1,1-.42c.31,0,.94.21.5-.49a24.31,24.31,0,0,1-1.44-3.57,7,7,0,0,1-2.89-.73,24.26,24.26,0,0,1-6.75-8.6C148.22,102.12,149,99.23,151.37,98.1Zm22.33,82a4.65,4.65,0,0,1-1.91-.41c-.12-.06-.1-.18.09-.25a6.49,6.49,0,0,0,2.55-1.2c-.05-.08-.06-.05-.23-.15a4.56,4.56,0,0,0,.66-1.3,4.7,4.7,0,0,1,1.13.17c.35.15.31.36.09.75a4.76,4.76,0,0,1-2.74,1.92c-.45.13-.29.09.17.12a6,6,0,0,1,2.8.6c.77.47.69,1.23-.13,1.68l-.87-.3a1.3,1.3,0,0,0,.54-.69C176,180.14,174.18,180.09,173.7,180.05Zm-2.8-4.9c-1.67.52-2.18,1.28-4,1.64a6.16,6.16,0,0,1-3.64-.82c-2.77-2.51-6.45-8.4-7.95-11.76-.72-2.58-1.3-5.43-1.82-7.59s-.52-2.4.42,0c2.32,6,6.91,14.57,11.17,19.31,2.26-.78,3.64-2,6.3-2.43.12,0,.16-.1.33-.36l2.38.71c-1,.81-1.67,1.37-2.75,2.13-.45.27-.9.42-.6-.05.08-.14.23-.35.33-.56a.37.37,0,0,0,.06-.1C171.25,175.07,171.12,175.07,170.9,175.15Zm-14.07,4.55a4.82,4.82,0,0,1-1.91-.41c-.12-.06-.1-.18.09-.25a6.37,6.37,0,0,0,2.54-1.2c0-.09-.06-.05-.23-.15a4.29,4.29,0,0,0,.67-1.31,5.29,5.29,0,0,1,1.12.18c.36.15.32.36.1.75a4.74,4.74,0,0,1-2.75,1.91c-.45.14-.29.1.17.12a6.25,6.25,0,0,1,2.8.6c.78.48.7,1.24-.12,1.69l-.87-.31a1.36,1.36,0,0,0,.54-.68C159.13,179.79,157.31,179.74,156.83,179.7ZM154.48,117a4.44,4.44,0,0,0,.66-1.3,5.28,5.28,0,0,1,1.13.17c.35.15.31.36.09.76a4.8,4.8,0,0,1-2.74,1.91c-.45.13-.29.09.17.12a6.17,6.17,0,0,1,2.8.6c.77.47.69,1.23-.13,1.69l-.87-.31a1.31,1.31,0,0,0,.54-.68c.15-.86-1.67-.9-2.15-.94a4.82,4.82,0,0,1-1.91-.41c-.12-.07-.1-.18.09-.25a6.35,6.35,0,0,0,2.54-1.21C154.66,117.07,154.64,117.1,154.48,117Zm16.84,20.15c.27.18.31.19-.07.18a2.83,2.83,0,0,1-1.3-.3c-.75-.43-.28-1.15.31-1.38a2.62,2.62,0,0,1,1.21-.12,21.68,21.68,0,0,1,2.67.69c.89.26.45.26,0,.19a15.23,15.23,0,0,0-2.69-.43c-.44,0-1,.47-.86.91A3.42,3.42,0,0,0,171.32,137.15Zm3.44,1.78a2.16,2.16,0,0,0,.9-.39c.19.09,1.61.77,2,1-.72.37-5,2.07-5.5,2.21-.79.26-1,.12-.57-.25l.67-.62c.41-.32.26-.34-.07-.32-5.49.57-7.24,1.47-12.8,1.59a14.51,14.51,0,0,1-3.78-.48,11.2,11.2,0,0,1-1.26-.36c-.56-.21-.82-.43-.42-.42,1,0,1.56.09,2.68,0C165.57,140.37,165.68,139.54,174.76,138.93Zm-.41,7.44c.27.18.31.19-.07.18a2.83,2.83,0,0,1-1.3-.3c-.75-.43-.28-1.15.31-1.38a2.53,2.53,0,0,1,1.21-.11,19.93,19.93,0,0,1,2.68.68c.89.26.44.26,0,.19a15,15,0,0,0-2.68-.43c-.44,0-.95.47-.87.91A3.42,3.42,0,0,0,174.35,146.37Zm-9,8.25a.74.74,0,0,0-.27.16,12.91,12.91,0,0,0-1.32,1.24,29.74,29.74,0,0,0,5.15,3.36,6.76,6.76,0,0,1-3-.84c-.89-.57-2.07-1.38-2.75-1.85-.8.88-1.59,2-3.69,1.74a4.49,4.49,0,0,1-2.55-1c-1.07-1.44-2.06-3.83-.24-4.31s4.55.68,5.75,1.81a10.77,10.77,0,0,1,2.66-2,1,1,0,0,0,.39-.58l2.22.34c-.5.8-1.33,2-1.82,2.72-.28.49-.83.93-.56,0C165.4,154.79,165.47,154.58,165.38,154.62Zm3.91,3.74,1.54-2.64L173,157l-1.57,2.69Zm6.26,14.2-1.32-.6c-1-2.05-4.76-8.9-5.76-10.28,0-.07,0-.07.07,0a6,6,0,0,1,1.19.31C172.77,167.13,173.44,168.43,175.55,172.56Zm-4.72-17-2.16-1.28,1.54-2.64,2.2,1.23Zm-5.9,12.16a4.82,4.82,0,0,1-1.91-.41c-.12-.07-.1-.18.09-.25a6.37,6.37,0,0,0,2.54-1.2c0-.09-.06,0-.23-.16a4.14,4.14,0,0,0,.67-1.3,5.29,5.29,0,0,1,1.12.18c.36.15.32.36.1.75a4.74,4.74,0,0,1-2.75,1.91c-.45.14-.29.1.17.12a6.32,6.32,0,0,1,2.81.6c.77.48.69,1.24-.13,1.69l-.87-.31a1.32,1.32,0,0,0,.54-.68C167.23,167.83,165.41,167.78,164.93,167.74Zm-6.39-19.39c.29.29.34.31-.13.21a3.81,3.81,0,0,1-1.53-.69c-.82-.72-.08-1.49.7-1.62a3.1,3.1,0,0,1,1.51.15,24.31,24.31,0,0,1,3.13,1.51c1,.53.49.43,0,.23A18,18,0,0,0,159,147c-.55-.09-1.28.34-1.28.9A4.07,4.07,0,0,0,158.54,148.35Zm-2.68-14.07a4.48,4.48,0,0,0,.67-1.3,5.21,5.21,0,0,1,1.12.17c.35.15.32.36.1.76a4.82,4.82,0,0,1-2.75,1.91c-.45.13-.29.09.17.12a6.14,6.14,0,0,1,2.8.6c.78.47.7,1.23-.12,1.69l-.87-.31a1.34,1.34,0,0,0,.53-.68c.16-.86-1.66-.9-2.14-.94a4.82,4.82,0,0,1-1.91-.41c-.13-.07-.1-.18.09-.25a6.35,6.35,0,0,0,2.54-1.21C156.05,134.35,156,134.38,155.86,134.28Zm2.16-7.87a15,15,0,0,0-2.68-.44c-.45,0-1,.48-.87.91a2.58,2.58,0,0,0,.72.26c.27.19.31.2-.07.19a3,3,0,0,1-1.3-.3c-.75-.44-.28-1.15.31-1.38a2.65,2.65,0,0,1,1.21-.12,18.77,18.77,0,0,1,2.68.69C158.9,126.47,158.46,126.48,158,126.41ZM174.53,161c-.45,0-.95.47-.87.91a3.42,3.42,0,0,0,.72.26c.27.18.31.19-.07.18a2.83,2.83,0,0,1-1.3-.3c-.75-.43-.28-1.15.31-1.38a2.65,2.65,0,0,1,1.21-.12,21.89,21.89,0,0,1,2.68.69c.88.25.44.26,0,.19A15,15,0,0,0,174.53,161Zm1.87-6.44a4.35,4.35,0,0,1-1.55-.57,3.78,3.78,0,0,1-.95.86c-.12.11-.67-.24-.89-.32a8.07,8.07,0,0,0,1.06-1.13c-3-2-5.46-7.22-6.81-9.85-.82-1.59.13-.31.33,0,1.86,3,4,7.11,6.68,9.53.43-.5,1-1.34,1.69-1.34a1.92,1.92,0,0,1,1.48,1C178.24,153.92,177.64,154.67,176.4,154.52Zm-19,65.69c-1.29-1.77-4.64-6.34-5.39-7.5l.81.16c2.64,3.43,3.06,4.21,5.6,7.61ZM155,200c.22.23.26.24-.1.17a2.92,2.92,0,0,1-1.18-.54c-.64-.55-.07-1.15.53-1.25a2.42,2.42,0,0,1,1.17.12,19.11,19.11,0,0,1,2.42,1.16c.79.41.37.34,0,.18a15.25,15.25,0,0,0-2.47-.92c-.42-.06-1,.27-1,.7A2.71,2.71,0,0,0,155,200Zm15.76,3.85a5.21,5.21,0,0,0,.33-.56l.07-.1c.09-.18,0-.18-.25-.1-1.68.52-2.19,1.28-4,1.63a6.11,6.11,0,0,1-3.63-.81c-.12-.11-.24-.25-.36-.37-4.53-1.13-7.65,2.09-5.38,6.76a28.81,28.81,0,0,0,6.42,8,2.09,2.09,0,0,0,.75-1.34c.18-1.05-.27-2.26.09-3.42.44-1.51,2.32-1.73,3.77-.93,1.69.87,2.44,2.72.93,4.38-1.94,2.19-6.09,2.61-8.07.91a24.36,24.36,0,0,1-5.89-7.24c-3.26-6.31,1.76-8.9,6.76-7.77a48,48,0,0,1-7-10.78c-.73-2.57-1.31-5.42-1.83-7.59s-.51-2.39.42,0c2.32,6,6.91,14.57,11.17,19.31,2.26-.78,3.64-2,6.31-2.43.11,0,.15-.1.32-.37l2.38.72c-1,.81-1.66,1.36-2.74,2.12C170.92,204.14,170.48,204.29,170.77,203.82Zm-7.09,5.61c.23.22.26.24-.1.16a2.86,2.86,0,0,1-1.17-.53c-.64-.56-.07-1.15.53-1.25a2.54,2.54,0,0,1,1.17.11,18.83,18.83,0,0,1,2.41,1.17c.8.41.38.33,0,.18a14.68,14.68,0,0,0-2.47-.92c-.43-.07-1,.26-1,.69A2.89,2.89,0,0,0,163.68,209.43Zm-.85-20.25a5.79,5.79,0,0,1,1.18.31c3,5.17,3.71,6.47,5.83,10.61l-1.32-.61c-1-2.05-4.76-8.9-5.76-10.27C162.72,189.14,162.73,189.14,162.83,189.18Zm10.64,10.09,1.55-2.64,2.19,1.23-1.57,2.69Zm3.27,13.85-.87-.3a1.4,1.4,0,0,0,.54-.69c.15-.85-1.67-.9-2.15-.94a4.65,4.65,0,0,1-1.91-.41c-.13-.06-.1-.18.09-.25a6.37,6.37,0,0,0,2.54-1.2c0-.08-.06-.05-.23-.15a4.61,4.61,0,0,0,.67-1.3,4.57,4.57,0,0,1,1.12.17c.36.15.32.36.1.76a4.79,4.79,0,0,1-2.75,1.91c-.45.13-.29.09.17.12a6,6,0,0,1,2.8.6C177.64,211.91,177.56,212.67,176.74,213.12Zm.72-20.1a18.94,18.94,0,0,0-3.2-1.2c-.55-.08-1.28.35-1.27.9a3.67,3.67,0,0,0,.83.5c.29.29.33.31-.13.21a3.69,3.69,0,0,1-1.53-.69c-.82-.72-.09-1.49.69-1.62a3.28,3.28,0,0,1,1.52.16,25.05,25.05,0,0,1,3.13,1.5C178.53,193.31,178,193.21,177.46,193Zm-4.15-6.19c-.78.29-1,.15-.59-.23.18-.17.48-.48.66-.64.4-.34.25-.35-.09-.32-5.47.76-6.21,1.58-11.75,1.89a14.8,14.8,0,0,1-3.8-.34,12.26,12.26,0,0,1-1.27-.32c-.57-.19-.84-.4-.43-.41,1,0,1.56,0,2.67-.05,8.92-.86,8-1.54,17.08-2.46a2.26,2.26,0,0,0,.89-.43l2,.91C178,184.82,173.76,186.67,173.31,186.83Z"/><path class="cls-1" d="M15.09,123.77h0l0,0Z"/><path class="cls-1" d="M15.07,113.4A7.09,7.09,0,0,0,18,115a.83.83,0,0,0,.66-.08c.83-.66-.7-3.33-1.26-3.91A19.56,19.56,0,0,0,15.07,113.4Z"/><path class="cls-1" d="M177.32,111.15c-.38-.24-1.23,1-1.5,1.26a4.32,4.32,0,0,0,1.07.11C177.57,112.42,177.87,111.84,177.32,111.15Z"/><path class="cls-1" d="M15.09,123.78c-.72.62-1.26,1.29-1.09,1.93a1.21,1.21,0,0,0,.85.85C15.33,126.23,15.05,124.28,15.09,123.78Z"/></svg>