<svg id="Layer_1" data-name="Layer 1" xmlns="http://www.w3.org/2000/svg" viewBox="0 0 247.69 243.9"><defs><style>.cls-1{fill:#acb8c1;}.cls-2{fill:#fff;}</style></defs><title>icon</title><rect class="cls-1" x="16.43" y="10.74" width="216.1" height="11.37"/><rect class="cls-1" x="208.51" y="5.69" width="20.22" height="20.22"/><path class="cls-1" d="M234.42,31.6h-31.6V0h31.6ZM214.2,20.22h8.85V11.37H214.2Z"/><rect class="cls-1" x="20.22" y="5.69" width="20.22" height="20.22"/><path class="cls-1" d="M46.12,31.6H14.53V0H46.12ZM25.9,20.22h8.85V11.37H25.9Z"/><path class="cls-1" d="M239.44,118.16a101.62,101.62,0,0,0-2.37-20.22c-.41-1.91-.89-3.81-1.42-5.69-8.66-30.91-31.4-56.47-61.32-70.13a117.82,117.82,0,0,0-15.14-5.69,121.58,121.58,0,0,0-69.42,0,118,118,0,0,0-15.15,5.69C44.7,35.78,22,61.34,13.29,92.25c-.53,1.88-1,3.78-1.42,5.69A101.62,101.62,0,0,0,9.5,118.16c0,.63,0,1.26,0,1.9H20.85c0-.63,0-1.27,0-1.9a91.29,91.29,0,0,1,2.68-20.22c.48-1.92,1-3.82,1.62-5.69,12.76-40.15,52.45-69.5,99.31-69.5S211,52.1,223.78,92.25c.61,1.87,1.14,3.77,1.62,5.69a90.06,90.06,0,0,1,2.07,11.42v-5.74h8.84v8.85h-8.52c.15,1.88.25,3.78.29,5.69,0,.63,0,1.27,0,1.9h11.37C239.47,119.42,239.46,118.79,239.44,118.16ZM11.37,103.62h8.85v8.85H11.37Z"/><path class="cls-2" d="M221.78,97.94v20.22H242V97.94Zm14.53,14.53h-8.84v-8.85h8.84Z"/><path class="cls-1" d="M216.09,92.25v31.6h31.6V92.25Zm11.38,20.22v-8.85h8.84v8.85Z"/><path class="cls-2" d="M5.68,97.94v20.22H25.9V97.94Zm14.54,14.53H11.37v-8.85h8.85Z"/><path class="cls-1" d="M0,92.25v31.6H31.59V92.25Zm20.22,20.22H11.37v-8.85h8.85Z"/><rect class="cls-1" x="112.47" y="129.53" width="20.22" height="20.22"/><polygon class="cls-1" points="171.23 202.2 171.72 202.2 171.23 204.01 167.87 216.33 165.55 215.7 159.86 214.15 157.74 213.57 156.9 213.34 158.39 207.88 159.94 202.2 159.94 202.19 171.23 202.19 171.23 202.2"/><polygon class="cls-1" points="187.52 144.28 176.43 184.95 164.64 184.95 175.16 146.37 128.27 78.08 123.26 70.78 116.89 80.26 72.52 146.33 88.04 202.19 89.62 207.88 90.78 212.05 82.14 214.45 79.82 215.09 76.45 202.96 60.16 144.33 123.16 50.53 187.52 144.28"/><rect class="cls-1" x="82.14" y="207.88" width="83.41" height="30.33"/><path class="cls-1" d="M76.45,202.19V243.9h94.78V202.19Zm83.41,30.34h-72v-19h72Z"/><rect class="cls-1" x="116.89" y="60.03" width="11.37" height="72.03"/><rect class="cls-2" x="153.13" y="202.19" width="18.1" height="0.01"/></svg>