<svg id="Layer_1" data-name="Layer 1" xmlns="http://www.w3.org/2000/svg" xmlns:xlink="http://www.w3.org/1999/xlink" viewBox="0 0 398.21 271.73"><defs><style>.cls-1{fill:#acb8c1;}.cls-2{clip-path:url(#clip-path);}.cls-3{clip-path:url(#clip-path-2);}.cls-4{clip-path:url(#clip-path-3);}.cls-5{clip-path:url(#clip-path-4);}.cls-6{clip-path:url(#clip-path-5);}.cls-7{clip-path:url(#clip-path-6);}.cls-8{clip-path:url(#clip-path-7);}.cls-9{clip-path:url(#clip-path-8);}.cls-10{clip-path:url(#clip-path-9);}.cls-11{clip-path:url(#clip-path-10);}.cls-12{clip-path:url(#clip-path-11);}.cls-13{clip-path:url(#clip-path-12);}.cls-14{clip-path:url(#clip-path-13);}.cls-15{clip-path:url(#clip-path-14);}.cls-16{clip-path:url(#clip-path-15);}.cls-17{clip-path:url(#clip-path-16);}.cls-18{clip-path:url(#clip-path-17);}.cls-19{clip-path:url(#clip-path-18);}.cls-20{clip-path:url(#clip-path-19);}.cls-21{clip-path:url(#clip-path-20);}.cls-22{clip-path:url(#clip-path-21);}.cls-23{clip-path:url(#clip-path-22);}.cls-24{clip-path:url(#clip-path-23);}</style><clipPath id="clip-path"><path class="cls-1" d="M163,9.26V18a2.61,2.61,0,0,0,2.59,2.6,2.7,2.7,0,0,0,2.6-2.6V9.26a2.61,2.61,0,0,0-2.6-2.59A2.69,2.69,0,0,0,163,9.26"/></clipPath><clipPath id="clip-path-2"><path class="cls-1" d="M163,93.38v8.77a2.6,2.6,0,0,0,2.59,2.59,2.7,2.7,0,0,0,2.6-2.59V93.38a2.6,2.6,0,1,0-5.19,0"/></clipPath><clipPath id="clip-path-3"><path class="cls-1" d="M230,9.26V18a2.61,2.61,0,0,0,2.6,2.6,2.7,2.7,0,0,0,2.59-2.6V9.26a2.6,2.6,0,0,0-5.19,0"/></clipPath><clipPath id="clip-path-4"><path class="cls-1" d="M230,93.38v8.77a2.61,2.61,0,0,0,2.6,2.59,2.7,2.7,0,0,0,2.59-2.59V93.38a2.61,2.61,0,0,0-2.59-2.6,2.53,2.53,0,0,0-2.6,2.6"/></clipPath><clipPath id="clip-path-5"><path class="cls-1" d="M184.28,25.32V86.21a3.09,3.09,0,0,0,6.18,0V25.32a3.06,3.06,0,0,0-3.09-3.09,2.92,2.92,0,0,0-3.09,3.09"/></clipPath><clipPath id="clip-path-6"><path class="cls-1" d="M163,36.31V49.78a2.6,2.6,0,0,0,2.59,2.59,2.7,2.7,0,0,0,2.6-2.59V36.31a2.6,2.6,0,0,0-5.19,0"/></clipPath><clipPath id="clip-path-7"><path class="cls-1" d="M175.64,14.08c-.13,0-.37.12-.5.12a2.86,2.86,0,0,0-1.73,2.72V94.74a2.93,2.93,0,0,0,1.86,2.71c.12,0,.12,0,.24.13h.74a2.79,2.79,0,0,0,2.84-2.84V16.92a2.79,2.79,0,0,0-2.84-2.84.56.56,0,0,0-.61,0"/></clipPath><clipPath id="clip-path-8"><path class="cls-1" d="M153.28,33.23V44.59a2.35,2.35,0,1,0,4.69,0V33.23a2.35,2.35,0,1,0-4.69,0"/></clipPath><clipPath id="clip-path-9"><path class="cls-1" d="M143.89,30.14v8.52a2.1,2.1,0,1,0,4.2,0V30.14A2.17,2.17,0,0,0,146,28a2.08,2.08,0,0,0-2.1,2.1"/></clipPath><clipPath id="clip-path-10"><path class="cls-1" d="M184.28,25.32V86.21a3.09,3.09,0,0,0,6.18,0V25.32a3.06,3.06,0,0,0-3.09-3.09,3,3,0,0,0-3.09,3.09"/></clipPath><clipPath id="clip-path-11"><path class="cls-1" d="M163,61.63V75.1a2.6,2.6,0,0,0,2.59,2.59,2.7,2.7,0,0,0,2.6-2.59V61.63a2.6,2.6,0,0,0-5.19,0"/></clipPath><clipPath id="clip-path-12"><path class="cls-1" d="M153.28,66.82V78.18a2.35,2.35,0,1,0,4.69,0V66.82a2.34,2.34,0,0,0-2.34-2.35,2.27,2.27,0,0,0-2.35,2.35"/></clipPath><clipPath id="clip-path-13"><path class="cls-1" d="M143.89,72.87V81.4a2.1,2.1,0,1,0,4.2,0V72.87a2.17,2.17,0,0,0-2.1-2.1,2.09,2.09,0,0,0-2.1,2.1"/></clipPath><clipPath id="clip-path-14"><path class="cls-1" d="M207.75,25.32V86.21a3.09,3.09,0,1,0,6.18,0V25.32a3.06,3.06,0,0,0-3.09-3.09,2.92,2.92,0,0,0-3.09,3.09"/></clipPath><clipPath id="clip-path-15"><path class="cls-1" d="M230,36.31V49.78a2.61,2.61,0,0,0,2.6,2.59,2.7,2.7,0,0,0,2.59-2.59V36.31a2.6,2.6,0,0,0-5.19,0"/></clipPath><clipPath id="clip-path-16"><path class="cls-1" d="M219.11,16.8V94.61A2.79,2.79,0,0,0,222,97.45h.75c.12,0,.24,0,.24-.12a2.83,2.83,0,0,0,1.85-2.72V16.8a3.19,3.19,0,0,0-1.72-2.72.78.78,0,0,0-.5-.12c-.25,0-.37-.13-.62-.13a3.08,3.08,0,0,0-2.84,3"/></clipPath><clipPath id="clip-path-17"><path class="cls-1" d="M240.23,33.23V44.59a2.35,2.35,0,1,0,4.7,0V33.23a2.35,2.35,0,0,0-2.35-2.35,2.44,2.44,0,0,0-2.35,2.35"/></clipPath><clipPath id="clip-path-18"><path class="cls-1" d="M250.12,30.14v8.52a2.1,2.1,0,1,0,4.19,0V30.14a2.16,2.16,0,0,0-2.09-2.1,2.07,2.07,0,0,0-2.1,2.1"/></clipPath><clipPath id="clip-path-19"><path class="cls-1" d="M207.75,25.32V86.21a3.09,3.09,0,1,0,6.18,0V25.32a3.06,3.06,0,0,0-3.09-3.09,3,3,0,0,0-3.09,3.09"/></clipPath><clipPath id="clip-path-20"><path class="cls-1" d="M230,61.63V75.1a2.61,2.61,0,0,0,2.6,2.59,2.7,2.7,0,0,0,2.59-2.59V61.63a2.6,2.6,0,0,0-5.19,0"/></clipPath><clipPath id="clip-path-21"><path class="cls-1" d="M240.23,66.82V78.18a2.35,2.35,0,1,0,4.7,0V66.82a2.35,2.35,0,1,0-4.7,0"/></clipPath><clipPath id="clip-path-22"><path class="cls-1" d="M250.12,72.87V81.4a2.1,2.1,0,1,0,4.19,0V72.87a2.16,2.16,0,0,0-2.09-2.1,2.08,2.08,0,0,0-2.1,2.1"/></clipPath><clipPath id="clip-path-23"><path class="cls-1" d="M196,3.09V132.53a3.09,3.09,0,1,0,6.17,0V3.09a3.09,3.09,0,1,0-6.17,0"/></clipPath></defs><title>icon</title><path class="cls-1" d="M176.25,159a2.61,2.61,0,0,0-2.59,2.6v13.09a2.6,2.6,0,0,0,5.19,0V161.56a2.61,2.61,0,0,0-2.6-2.6"/><path class="cls-1" d="M165.63,168.6a2.21,2.21,0,0,0-2.22,2.22V180a2.23,2.23,0,0,0,4.45,0v-9.14a2.14,2.14,0,0,0-2.23-2.22"/><path class="cls-1" d="M187.37,138.58a3.06,3.06,0,0,0-3.09,3.09v27.67a3.09,3.09,0,0,0,6.18,0V141.67a3.06,3.06,0,0,0-3.09-3.09"/><path class="cls-1" d="M165.63,128.45a2.61,2.61,0,0,0-2.59,2.6v13.34a2.6,2.6,0,0,0,2.59,2.59,2.69,2.69,0,0,0,2.6-2.59V131.05a2.48,2.48,0,0,0-2.6-2.6"/><path class="cls-1" d="M176.25,133.27a1.12,1.12,0,0,0-.61.12c-.13,0-.37.13-.5.13a2.84,2.84,0,0,0-1.73,2.72v16a2.94,2.94,0,0,0,1.86,2.72c.12,0,.12,0,.24.12h.74a2.79,2.79,0,0,0,2.84-2.84v-16a2.9,2.9,0,0,0-2.84-3"/><path class="cls-1" d="M155.63,123.76a2.35,2.35,0,0,0-2.35,2.35v10.74a2.35,2.35,0,1,0,4.69,0V126.11a2.34,2.34,0,0,0-2.34-2.35"/><path class="cls-1" d="M146,119.31a2.17,2.17,0,0,0-2.1,2.1v8.28a2.1,2.1,0,1,0,4.2,0v-8.28a2,2,0,0,0-2.1-2.1"/><path class="cls-1" d="M137.1,115.11a1.69,1.69,0,0,0-1.73,1.73v6.3a1.73,1.73,0,0,0,3.46,0v-6.3a1.69,1.69,0,0,0-1.73-1.73"/><path class="cls-1" d="M199.1,144A3,3,0,0,0,196,147.1v18.28a3.09,3.09,0,1,0,6.17,0V147.1A3,3,0,0,0,199.1,144"/><path class="cls-1" d="M222.08,159a2.61,2.61,0,0,1,2.59,2.6v13.09a2.6,2.6,0,0,1-5.19,0V161.56a2.54,2.54,0,0,1,2.6-2.6"/><path class="cls-1" d="M232.58,168.6a2.21,2.21,0,0,1,2.22,2.22V180a2.23,2.23,0,0,1-4.45,0v-9.14a2.21,2.21,0,0,1,2.23-2.22"/><path class="cls-1" d="M211,138.58a3.06,3.06,0,0,1,3.09,3.09v27.67a3.09,3.09,0,0,1-6.18,0V141.67a3,3,0,0,1,3.09-3.09"/><path class="cls-1" d="M232.58,128.45a2.61,2.61,0,0,1,2.59,2.6v13.34a2.6,2.6,0,0,1-5.19,0V131.05a2.54,2.54,0,0,1,2.6-2.6"/><path class="cls-1" d="M222.08,133.27a1.17,1.17,0,0,1,.62.12c.12,0,.37.13.49.13a2.84,2.84,0,0,1,1.73,2.72v16a2.94,2.94,0,0,1-1.85,2.72c-.13,0-.13,0-.25.12h-.74a2.79,2.79,0,0,1-2.84-2.84v-16a2.82,2.82,0,0,1,2.84-3"/><path class="cls-1" d="M242.7,123.76a2.35,2.35,0,0,1,2.35,2.35v10.74a2.35,2.35,0,1,1-4.69,0V126.11a2.2,2.2,0,0,1,2.34-2.35"/><path class="cls-1" d="M252.22,119.31a2.16,2.16,0,0,1,2.09,2.1v8.28a2.1,2.1,0,1,1-4.19,0v-8.28a2.08,2.08,0,0,1,2.1-2.1"/><path class="cls-1" d="M261.11,115.11a1.69,1.69,0,0,1,1.73,1.73v6.3a1.73,1.73,0,1,1-3.46,0v-6.3a1.69,1.69,0,0,1,1.73-1.73"/><path class="cls-1" d="M163,9.26V18a2.61,2.61,0,0,0,2.59,2.6,2.7,2.7,0,0,0,2.6-2.6V9.26a2.61,2.61,0,0,0-2.6-2.59A2.69,2.69,0,0,0,163,9.26"/><g class="cls-2"><rect class="cls-1" x="163.04" y="6.67" width="5.19" height="14.08"/></g><path class="cls-1" d="M163,93.38v8.77a2.6,2.6,0,0,0,2.59,2.59,2.7,2.7,0,0,0,2.6-2.59V93.38a2.6,2.6,0,1,0-5.19,0"/><g class="cls-3"><rect class="cls-1" x="163.04" y="90.78" width="5.19" height="14.08"/></g><path class="cls-1" d="M230,9.26V18a2.61,2.61,0,0,0,2.6,2.6,2.7,2.7,0,0,0,2.59-2.6V9.26a2.6,2.6,0,0,0-5.19,0"/><g class="cls-4"><rect class="cls-1" x="229.98" y="6.67" width="5.19" height="14.08"/></g><path class="cls-1" d="M230,93.38v8.77a2.61,2.61,0,0,0,2.6,2.59,2.7,2.7,0,0,0,2.59-2.59V93.38a2.61,2.61,0,0,0-2.59-2.6,2.53,2.53,0,0,0-2.6,2.6"/><g class="cls-5"><rect class="cls-1" x="229.98" y="90.78" width="5.19" height="14.08"/></g><path class="cls-1" d="M184.28,25.32V86.21a3.09,3.09,0,0,0,6.18,0V25.32a3.06,3.06,0,0,0-3.09-3.09,2.92,2.92,0,0,0-3.09,3.09"/><g class="cls-6"><rect class="cls-1" x="184.28" y="22.11" width="6.3" height="67.19"/></g><path class="cls-1" d="M163,36.31V49.78a2.6,2.6,0,0,0,2.59,2.59,2.7,2.7,0,0,0,2.6-2.59V36.31a2.6,2.6,0,0,0-5.19,0"/><g class="cls-7"><rect class="cls-1" x="163.04" y="33.6" width="5.19" height="18.77"/></g><path class="cls-1" d="M175.64,14.08c-.13,0-.37.12-.5.12a2.86,2.86,0,0,0-1.73,2.72V94.74a2.93,2.93,0,0,0,1.86,2.71c.12,0,.12,0,.24.13h.74a2.79,2.79,0,0,0,2.84-2.84V16.92a2.79,2.79,0,0,0-2.84-2.84.56.56,0,0,0-.61,0"/><g class="cls-8"><rect class="cls-1" x="173.41" y="13.96" width="5.81" height="83.5"/></g><path class="cls-1" d="M153.28,33.23V44.59a2.35,2.35,0,1,0,4.69,0V33.23a2.35,2.35,0,1,0-4.69,0"/><g class="cls-9"><rect class="cls-1" x="153.28" y="30.88" width="4.69" height="16.06"/></g><path class="cls-1" d="M143.89,30.14v8.52a2.1,2.1,0,1,0,4.2,0V30.14A2.17,2.17,0,0,0,146,28a2.08,2.08,0,0,0-2.1,2.1"/><g class="cls-10"><rect class="cls-1" x="143.89" y="28.04" width="4.2" height="12.72"/></g><path class="cls-1" d="M184.28,25.32V86.21a3.09,3.09,0,0,0,6.18,0V25.32a3.06,3.06,0,0,0-3.09-3.09,3,3,0,0,0-3.09,3.09"/><g class="cls-11"><rect class="cls-1" x="184.28" y="22.11" width="6.3" height="67.19"/></g><path class="cls-1" d="M163,61.63V75.1a2.6,2.6,0,0,0,2.59,2.59,2.7,2.7,0,0,0,2.6-2.59V61.63a2.6,2.6,0,0,0-5.19,0"/><g class="cls-12"><rect class="cls-1" x="163.04" y="59.04" width="5.19" height="18.77"/></g><path class="cls-1" d="M153.28,66.82V78.18a2.35,2.35,0,1,0,4.69,0V66.82a2.34,2.34,0,0,0-2.34-2.35,2.27,2.27,0,0,0-2.35,2.35"/><g class="cls-13"><rect class="cls-1" x="153.28" y="64.47" width="4.69" height="16.06"/></g><path class="cls-1" d="M143.89,72.87V81.4a2.1,2.1,0,1,0,4.2,0V72.87a2.17,2.17,0,0,0-2.1-2.1,2.09,2.09,0,0,0-2.1,2.1"/><g class="cls-14"><rect class="cls-1" x="143.89" y="70.77" width="4.2" height="12.72"/></g><path class="cls-1" d="M207.75,25.32V86.21a3.09,3.09,0,1,0,6.18,0V25.32a3.06,3.06,0,0,0-3.09-3.09,2.92,2.92,0,0,0-3.09,3.09"/><g class="cls-15"><rect class="cls-1" x="207.75" y="22.11" width="6.3" height="67.19"/></g><path class="cls-1" d="M230,36.31V49.78a2.61,2.61,0,0,0,2.6,2.59,2.7,2.7,0,0,0,2.59-2.59V36.31a2.6,2.6,0,0,0-5.19,0"/><g class="cls-16"><rect class="cls-1" x="229.98" y="33.6" width="5.19" height="18.77"/></g><path class="cls-1" d="M219.11,16.8V94.61A2.79,2.79,0,0,0,222,97.45h.75c.12,0,.24,0,.24-.12a2.83,2.83,0,0,0,1.85-2.72V16.8a3.19,3.19,0,0,0-1.72-2.72.78.78,0,0,0-.5-.12c-.25,0-.37-.13-.62-.13a3.08,3.08,0,0,0-2.84,3"/><g class="cls-17"><rect class="cls-1" x="219.11" y="13.96" width="5.81" height="83.5"/></g><path class="cls-1" d="M240.23,33.23V44.59a2.35,2.35,0,1,0,4.7,0V33.23a2.35,2.35,0,0,0-2.35-2.35,2.44,2.44,0,0,0-2.35,2.35"/><g class="cls-18"><rect class="cls-1" x="240.23" y="30.88" width="4.69" height="16.06"/></g><path class="cls-1" d="M250.12,30.14v8.52a2.1,2.1,0,1,0,4.19,0V30.14a2.16,2.16,0,0,0-2.09-2.1,2.07,2.07,0,0,0-2.1,2.1"/><g class="cls-19"><rect class="cls-1" x="250.12" y="28.04" width="4.2" height="12.72"/></g><path class="cls-1" d="M207.75,25.32V86.21a3.09,3.09,0,1,0,6.18,0V25.32a3.06,3.06,0,0,0-3.09-3.09,3,3,0,0,0-3.09,3.09"/><g class="cls-20"><rect class="cls-1" x="207.75" y="22.11" width="6.3" height="67.19"/></g><path class="cls-1" d="M230,61.63V75.1a2.61,2.61,0,0,0,2.6,2.59,2.7,2.7,0,0,0,2.59-2.59V61.63a2.6,2.6,0,0,0-5.19,0"/><g class="cls-21"><rect class="cls-1" x="229.98" y="59.04" width="5.19" height="18.77"/></g><path class="cls-1" d="M240.23,66.82V78.18a2.35,2.35,0,1,0,4.7,0V66.82a2.35,2.35,0,1,0-4.7,0"/><g class="cls-22"><rect class="cls-1" x="240.23" y="64.47" width="4.69" height="16.06"/></g><path class="cls-1" d="M250.12,72.87V81.4a2.1,2.1,0,1,0,4.19,0V72.87a2.16,2.16,0,0,0-2.09-2.1,2.08,2.08,0,0,0-2.1,2.1"/><g class="cls-23"><rect class="cls-1" x="250.12" y="70.77" width="4.2" height="12.72"/></g><path class="cls-1" d="M196,3.09V132.53a3.09,3.09,0,1,0,6.17,0V3.09a3.09,3.09,0,1,0-6.17,0"/><g class="cls-24"><rect class="cls-1" x="196.02" width="6.3" height="135.74"/></g><path class="cls-1" d="M.74,224.67H13.46a.8.8,0,0,0,.74-.74v-1.36a.8.8,0,0,0-.74-.74H6.3v-2.72a4.49,4.49,0,0,1,1-3,3.81,3.81,0,0,1,2.71-1,7,7,0,0,1,2.72.49H13a.82.82,0,0,0,.74-.49l.37-1.23a.65.65,0,0,0-.37-.87,7.58,7.58,0,0,0-3.46-.74,8.9,8.9,0,0,0-3.83.74A5.5,5.5,0,0,0,4,215.28a6,6,0,0,0-.86,3.22v3.33H.74a.8.8,0,0,0-.74.74v1.36a.71.71,0,0,0,.74.74"/><path class="cls-1" d="M318.54,201.57l.37-1.23c.13-.25-.12-.25-.12-.25a3.65,3.65,0,0,0-2-.49,5,5,0,0,0-2,.37,2.74,2.74,0,0,0-1.24,1.11,3.94,3.94,0,0,0-.49,1.61v1H312a.39.39,0,0,0-.37.37v1.12a.39.39,0,0,0,.37.37h6.54a.39.39,0,0,0,.37-.37v-1.24a.39.39,0,0,0-.37-.37h-3.46v-.74a1.91,1.91,0,0,1,.37-1.24,1.56,1.56,0,0,1,1.12-.37,3.41,3.41,0,0,1,1.48.37c.12.13.37.25.49,0"/><path class="cls-1" d="M108.69,229.86l.37-1.24c.13-.24-.12-.24-.12-.24a3.65,3.65,0,0,0-2-.5,5.2,5.2,0,0,0-2,.37,2.74,2.74,0,0,0-1.24,1.11,4,4,0,0,0-.49,1.61v1h-1.11a.39.39,0,0,0-.37.37v1.11a.39.39,0,0,0,.37.37h6.54a.39.39,0,0,0,.37-.37v-1.23a.39.39,0,0,0-.37-.37h-3.46v-.75a1.88,1.88,0,0,1,.37-1.23,1.51,1.51,0,0,1,1.12-.37,3.27,3.27,0,0,1,1.48.37c.25.12.49.25.49,0"/><path class="cls-1" d="M88.19,215.28A14,14,0,0,0,87,211a5.8,5.8,0,0,0-5.43-3,12.19,12.19,0,0,0-5.81,1.36.65.65,0,0,0-.24,1l.61,1.12a.71.71,0,0,0,.62.37.43.43,0,0,0,.37-.13,8.84,8.84,0,0,1,4-1,3.63,3.63,0,0,1,3,1.12,8.09,8.09,0,0,1,1.36,3.95,10.81,10.81,0,0,0,2.84,5.93H67.93V216.4c0-2.84-.62-5.07-2-6.43a8.17,8.17,0,0,0-5.44-2.1h-.37a12.92,12.92,0,0,0-5.56,1.24,15,15,0,0,0-6.79,5.8V210a.8.8,0,0,0-.74-.74H45.58a.8.8,0,0,0-.74.74v11.74H22.73V200a.8.8,0,0,0-.74-.74H20.26a.8.8,0,0,0-.74.74v24.58H91.4a.59.59,0,0,0,.62-.62v-2.1a10.38,10.38,0,0,1-3.83-6.55M47.92,222A10.81,10.81,0,0,1,50,216a12.32,12.32,0,0,1,9.51-4.95,5.51,5.51,0,0,1,4,1.36,6.62,6.62,0,0,1,1.35,4.45V222Z"/><path class="cls-1" d="M96.22,224.67h29a.59.59,0,0,0,.62-.62v-24a.8.8,0,0,0-.74-.74h-1.73a.8.8,0,0,0-.74.74v21.74h-7.91V200.09a.8.8,0,0,0-.74-.74h-1.6a.8.8,0,0,0-.74.74v21.74h-4.2l-4.2-17.41a.78.78,0,0,0-.74-.62h-1.73a1,1,0,0,0-.62.24.55.55,0,0,0-.12.62l4.07,17.17H96.34a.8.8,0,0,0-.74.74v1.24c-.25.61.12.86.62.86"/><path class="cls-1" d="M255.55,224.05v-24a.8.8,0,0,0-.74-.74h-1.73a.8.8,0,0,0-.74.74v21.74H232.21a11.32,11.32,0,0,1-3.46-.62,13.21,13.21,0,0,0,4.2-4.81,14.83,14.83,0,0,0,1.6-6.06.82.82,0,0,0-.49-.86,15.43,15.43,0,0,0-3.83-1.61,15.13,15.13,0,0,0-4.2-.49,16,16,0,0,0-4.32.49,14.52,14.52,0,0,0-3.71,1.61,1,1,0,0,0-.49.86,15.35,15.35,0,0,0,1.6,6.06,13.81,13.81,0,0,0,4.33,4.94,10.61,10.61,0,0,1-3.71.61h-18.4V200.22a.81.81,0,0,0-.74-.75h-1.73a.81.81,0,0,0-.74.75v24a.57.57,0,0,0,.61.61h21.12a13.09,13.09,0,0,0,6.18-1.6,13.17,13.17,0,0,0,6.18,1.6h22.6c.37-.12.74-.37.74-.74m-33.23-8a9.47,9.47,0,0,1-1.35-4.57,10.58,10.58,0,0,1,4.81-1.24h.5a9.26,9.26,0,0,1,4.81,1.24,10.48,10.48,0,0,1-1.35,4.57,13.31,13.31,0,0,1-3.71,3.7,13.31,13.31,0,0,1-3.71-3.7"/><path class="cls-1" d="M266.05,199.35h-1.73a.8.8,0,0,0-.74.74v23.84a.8.8,0,0,0,.74.74h1.73a.8.8,0,0,0,.74-.74V200.09c.12-.37-.25-.74-.74-.74"/><path class="cls-1" d="M387.09,224.67a.59.59,0,0,0,.62-.62v-24a.8.8,0,0,0-.74-.74h-1.73a.8.8,0,0,0-.74.74v21.74H370.29V216.4c0-3.59-1-6.3-3-8.28s-4.82-3-8.52-3a19.84,19.84,0,0,0-6.3.86c-.25,0-.37.12-.5.37a.57.57,0,0,0,0,.62l.37,1.23a.7.7,0,0,0,.75.5h.12a22.29,22.29,0,0,1,5.56-.62c2.84,0,5.06.74,6.42,2.1s2,3.58,2,6.55V222h-3.46v-4.2c0-4.81-2.23-7.16-6.55-7.16a6.85,6.85,0,0,0-3.46.87A6,6,0,0,0,351,214.3a7.62,7.62,0,0,0,0,6,5,5,0,0,0,1.35,1.73H336.57V209.36a.81.81,0,0,0-.74-.75H334.1a.81.81,0,0,0-.74.75v12.72H316.81V209.36a.81.81,0,0,0-.74-.75h-1.73a.81.81,0,0,0-.74.75v12.72H295.07V209.36a.81.81,0,0,0-.74-.75h-4.44a10,10,0,0,0-6.8,2.23,8.66,8.66,0,0,0-.24,11.86c1.48,1.35,3.58,2,6.3,2Zm-30-11.11c2.47,0,3.7,1.48,3.7,4.57v3.7h-2.59a4.5,4.5,0,0,1-3.34-1.23,4.23,4.23,0,0,1-1.23-3.22,5.3,5.3,0,0,1,.86-3,4.13,4.13,0,0,1,2.6-.86m-65-2.35v10.62h-2.84a5.43,5.43,0,0,1-3.95-1.23,6,6,0,0,1,.24-7.91,6.58,6.58,0,0,1,4.57-1.48Z"/><path class="cls-1" d="M397.47,199.35h-1.73a.8.8,0,0,0-.74.74v23.84a.8.8,0,0,0,.74.74h1.73a.8.8,0,0,0,.74-.74V200.09a.8.8,0,0,0-.74-.74"/><path class="cls-1" d="M173.78,224.67a4.37,4.37,0,0,0,4.33-2.47c1.11,1.73,3.21,2.47,6.91,2.47h6.67a.59.59,0,0,0,.62-.62V216.4c0-5.32-2.47-7.91-7.41-7.91s-8.28,3.46-8.28,8.77c0,4.08-1.35,4.69-2.84,4.69H153.9V209.23a.8.8,0,0,0-.74-.74h-4.45a10,10,0,0,0-6.79,2.22,8.68,8.68,0,0,0-.25,11.86c1.48,1.36,3.58,2,6.3,2l25.81.12m-23-13.46v10.62H148A5.43,5.43,0,0,1,144,220.6a6,6,0,0,1,.24-7.91,6.58,6.58,0,0,1,4.57-1.48Zm33.84,0c3.09,0,4.45,1.73,4.45,5.8V222h-3.71c-3.95,0-5.55-1.48-5.55-4.94s1.85-5.8,4.81-5.8"/><path class="cls-1" d="M338.8,227.76h-1.61c-.24,0-.37.12-.62.25a.94.94,0,0,0-.24.61v2.47c0,.25.12.37.24.62a1,1,0,0,0,.62.25h1.61c.25,0,.37-.12.62-.25a1,1,0,0,0,.24-.62v-2.47a1.3,1.3,0,0,0-.24-.61.93.93,0,0,0-.62-.25"/><path class="cls-1" d="M332.75,227.76h-1.61c-.25,0-.37.12-.62.25a.94.94,0,0,0-.24.61v2.47c0,.25.12.37.24.62a.93.93,0,0,0,.62.25h1.61a1.22,1.22,0,0,0,.61-.25.91.91,0,0,0,.25-.62v-2.47a1.22,1.22,0,0,0-.25-.61.9.9,0,0,0-.61-.25"/><path class="cls-1" d="M292.6,206.14h1.61c.25,0,.37-.12.62-.24a1,1,0,0,0,.24-.62v-2.47c0-.25-.12-.37-.24-.62a1,1,0,0,0-.62-.25H292.6c-.24,0-.37.13-.61.25a.93.93,0,0,0-.25.62v2.47c0,.25.12.37.25.62a.68.68,0,0,0,.61.24"/><path class="cls-1" d="M286.55,206.14h1.61a1.38,1.38,0,0,0,.62-.24,1,1,0,0,0,.24-.62v-2.47c0-.25-.12-.37-.24-.62a1,1,0,0,0-.62-.25h-1.61c-.25,0-.37.13-.62.25a1,1,0,0,0-.24.62v2.47c0,.25.12.37.24.62a.69.69,0,0,0,.62.24"/><path class="cls-1" d="M151.67,206.14h1.61c.25,0,.37-.12.62-.24a1,1,0,0,0,.25-.62v-2.47c0-.25-.13-.37-.25-.62a1,1,0,0,0-.62-.25h-1.61c-.24,0-.37.13-.61.25a.93.93,0,0,0-.25.62v2.47c0,.25.12.37.25.62s.37.24.61.24"/><path class="cls-1" d="M145.62,206.14h1.61c.25,0,.37-.12.62-.24a1,1,0,0,0,.24-.62v-2.47c0-.25-.12-.37-.24-.62a1,1,0,0,0-.62-.25h-1.61c-.24,0-.37.13-.61.25a.93.93,0,0,0-.25.62v2.47c0,.25.12.37.25.62a.68.68,0,0,0,.61.24"/><path class="cls-1" d="M14.2,253.57H12.6a.67.67,0,0,0-.5.25.75.75,0,0,0-.12.49V263c-.37,0-.86.12-1.36.12H8.28a5.06,5.06,0,0,1-2-.37,3.71,3.71,0,0,1-1.61-1.23,5.85,5.85,0,0,1-1.11-2.1,12,12,0,0,1-.37-3.21v-4.08a8.4,8.4,0,0,1,.5-3.33,6.44,6.44,0,0,1,1.11-2.1,4.93,4.93,0,0,1,1.73-1.11,5.47,5.47,0,0,1,2-.38h4.57c.37,0,.87.13,1.36.13h.12c.5,0,.5-.25.5-.37v-1.48a.64.64,0,0,0-.25-.5.46.46,0,0,0-.37-.12,11,11,0,0,0-2.35-.25,31,31,0,0,0-3.58-.12,8.29,8.29,0,0,0-3,.49,7,7,0,0,0-2.72,1.61,9,9,0,0,0-2,3,13,13,0,0,0-.74,4.69v4.08a12.72,12.72,0,0,0,.74,4.57,8.89,8.89,0,0,0,1.86,3,5.74,5.74,0,0,0,2.59,1.6,8.34,8.34,0,0,0,3,.49,31.07,31.07,0,0,0,3.58-.12c1-.12,1.85-.25,2.59-.37a.78.78,0,0,0,.62-.74V254.31a.62.62,0,0,0-.25-.49,2.19,2.19,0,0,0-.62-.25"/><path class="cls-1" d="M30.26,250.36a6.38,6.38,0,0,0-2.1-1.48,7.45,7.45,0,0,0-3-.49,6.6,6.6,0,0,0-5.19,2,7.44,7.44,0,0,0-1.73,5.31v2.72A9.33,9.33,0,0,0,18.9,262a6.69,6.69,0,0,0,1.6,2.35,4.85,4.85,0,0,0,2.23,1.23,9.28,9.28,0,0,0,2.59.38,19.84,19.84,0,0,0,2.84-.13l2.59-.37a.91.91,0,0,0,.62-.25.7.7,0,0,0,.13-.49v-1a.64.64,0,0,0-.25-.49.44.44,0,0,0-.37-.13h-.13c-.74.13-1.6.13-2.59.25s-2,.12-2.84.12a3.94,3.94,0,0,1-3.09-1.11c-.74-.74-1-2-1-3.83v-.37H31.37a.69.69,0,0,0,.74-.74v-1.73a7.45,7.45,0,0,0-.49-3,6.18,6.18,0,0,0-1.36-2.35m-9.14,5.31a5.62,5.62,0,0,1,1-3.58,4,4,0,0,1,3-1.11,3.66,3.66,0,0,1,3,1.11,5.62,5.62,0,0,1,1,3.58v.13H21.12Z"/><path class="cls-1" d="M42.86,248.39a7.34,7.34,0,0,0-2.47.37,8.62,8.62,0,0,0-2.22,1v-.37a.89.89,0,0,0-.75-.74h-1.6a.67.67,0,0,0-.5.25.94.94,0,0,0-.24.49v15.69a.63.63,0,0,0,.24.49.64.64,0,0,0,.5.25H37.3a.64.64,0,0,0,.5-.25.94.94,0,0,0,.24-.49V252.22a14.36,14.36,0,0,1,2.1-.87,6.07,6.07,0,0,1,2-.37,4.4,4.4,0,0,1,1.48.25,2.76,2.76,0,0,1,1,.61,3,3,0,0,1,.62,1.24,7.93,7.93,0,0,1,.24,2v10.12a.67.67,0,0,0,.25.5,1,1,0,0,0,.49.25h1.49a.65.65,0,0,0,.49-.25,1,1,0,0,0,.25-.5V255.06a7.75,7.75,0,0,0-1.36-4.82c-.87-1.36-2.35-1.85-4.2-1.85"/><path class="cls-1" d="M63.61,250.36a6.48,6.48,0,0,0-2.1-1.48,7.45,7.45,0,0,0-3-.49,6.6,6.6,0,0,0-5.19,2,7.44,7.44,0,0,0-1.73,5.31v2.72a9.33,9.33,0,0,0,.62,3.58,6.56,6.56,0,0,0,1.6,2.35,4.85,4.85,0,0,0,2.23,1.23,9.23,9.23,0,0,0,2.59.38,19.84,19.84,0,0,0,2.84-.13l2.59-.37a.91.91,0,0,0,.62-.25.75.75,0,0,0,.12-.49v-1a.63.63,0,0,0-.24-.49.45.45,0,0,0-.37-.13H64.1c-.74.13-1.6.13-2.59.25s-2,.12-2.84.12a3.94,3.94,0,0,1-3.09-1.11c-.74-.74-1-2-1-3.83v-.37H64.72a.69.69,0,0,0,.74-.74v-1.73a7.45,7.45,0,0,0-.49-3,6.18,6.18,0,0,0-1.36-2.35m-9.14,5.31a5.62,5.62,0,0,1,1-3.58,4,4,0,0,1,3-1.11,3.66,3.66,0,0,1,3,1.11,5.69,5.69,0,0,1,1,3.58v.13h-7.9Z"/><path class="cls-1" d="M75.59,248.39a5.72,5.72,0,0,0-2.1.37c-.62.24-1.36.61-2.1,1v-.37a.62.62,0,0,0-.25-.49.64.64,0,0,0-.49-.25H69.17a.67.67,0,0,0-.5.25.94.94,0,0,0-.24.49v15.69a.63.63,0,0,0,.24.49.64.64,0,0,0,.5.25h1.48a.61.61,0,0,0,.49-.25.89.89,0,0,0,.25-.49V252.34a10.25,10.25,0,0,1,2.1-1,5.72,5.72,0,0,1,2.1-.25c.62,0,.74-.37.74-.61v-1.24c0-.62-.25-.86-.74-.86"/><path class="cls-1" d="M84.61,248.39a18.82,18.82,0,0,0-2.72.12c-.74.12-1.48.12-2.1.25s-.74.37-.74.74v1.11a.61.61,0,0,0,.25.49c.12.13.24.13.49.13h.12c.62,0,1.36-.13,2.1-.13s1.61-.12,2.6-.12a3.51,3.51,0,0,1,2.47.74,3.64,3.64,0,0,1,.74,2.59v1.12h-2.1a25.72,25.72,0,0,0-3.46.24,6,6,0,0,0-2.35,1,4.46,4.46,0,0,0-1.36,1.61,6.1,6.1,0,0,0-.37,2.22v.37a7.1,7.1,0,0,0,.37,2.47,3.75,3.75,0,0,0,1.12,1.61,4,4,0,0,0,1.6.86,9.23,9.23,0,0,0,2,.25,5.42,5.42,0,0,0,2.47-.5,10.65,10.65,0,0,0,2.1-1v.49a.61.61,0,0,0,.25.49.89.89,0,0,0,.49.25h1.36a.61.61,0,0,0,.49-.25.89.89,0,0,0,.25-.49V254.31A5.91,5.91,0,0,0,89.18,250c-.87-1.11-2.35-1.6-4.57-1.6m-3.59,12a4.52,4.52,0,0,1,.25-1.36,1.71,1.71,0,0,1,.74-.87,4.56,4.56,0,0,1,1.36-.49,12.42,12.42,0,0,1,2.23-.12h2.09v4.81a9,9,0,0,1-2,.87,5.61,5.61,0,0,1-2,.24,2.91,2.91,0,0,1-2-.49,2.52,2.52,0,0,1-.75-2.1v-.49Z"/><path class="cls-1" d="M96.83,242.33h-1.6a.64.64,0,0,0-.49.25.63.63,0,0,0-.25.5v21.86c0,.24.12.37.12.49a.67.67,0,0,0,.5.25h1.6a.67.67,0,0,0,.5-.25.75.75,0,0,0,.12-.49V243.08c0-.25,0-.38-.12-.5s-.13-.25-.38-.25"/><path class="cls-1" d="M120.3,244.8a3.75,3.75,0,0,0-.62-1.23,1.61,1.61,0,0,0-.86-.74,7.21,7.21,0,0,0-1-.37,2.29,2.29,0,0,0-.86-.13,2.93,2.93,0,0,0-1,.13c-.37.12-.62.24-1,.37a2.2,2.2,0,0,0-.86.74,11.68,11.68,0,0,0-.62,1.23l-5.68,20v.25a.58.58,0,0,0,.62.62h1.85a.45.45,0,0,0,.37-.13c.12-.12.25-.24.25-.37l2-6.91h7.78l2,7c0,.12.12.24.25.37a.45.45,0,0,0,.37.12h1.85a.59.59,0,0,0,.62-.62v-.24Zm-6.42,10.75,2.72-10c.12-.38.37-.5.49-.5s.37,0,.5.5l2.71,10Z"/><path class="cls-1" d="M140.81,248.51h-1.49a.62.62,0,0,0-.49.25,1,1,0,0,0-.25.49V262.1c-.74.37-1.36.61-2,.86a6.07,6.07,0,0,1-2,.37,4.4,4.4,0,0,1-1.48-.25,2.76,2.76,0,0,1-1-.61,2.94,2.94,0,0,1-.62-1.24,7.9,7.9,0,0,1-.24-2V249.13a.67.67,0,0,0-.25-.5,1,1,0,0,0-.5-.24h-1.48a.63.63,0,0,0-.49.24.91.91,0,0,0-.25.5v10.13a7.65,7.65,0,0,0,1.36,4.81,5,5,0,0,0,4.2,1.73,7.34,7.34,0,0,0,2.47-.37,18,18,0,0,0,2.22-1v.37a.67.67,0,0,0,.25.5.64.64,0,0,0,.49.24h1.49a.64.64,0,0,0,.49-.24,1,1,0,0,0,.25-.5V249.13a.67.67,0,0,0-.25-.5c-.12,0-.25-.12-.49-.12"/><path class="cls-1" d="M152.05,263.45h-1.73a2.75,2.75,0,0,1-1.24-.24,2.12,2.12,0,0,1-.37-1.48V251.1h3.21a.67.67,0,0,0,.5-.24,1,1,0,0,0,.24-.5v-1a.64.64,0,0,0-.24-.49,1,1,0,0,0-.5-.25h-3.21v-3.21c0-.25,0-.37-.12-.49s-.25-.13-.5-.13l-1.6.25a.78.78,0,0,0-.62.74v16.06a8.59,8.59,0,0,0,.25,2.1,4.69,4.69,0,0,0,.74,1.36,2.36,2.36,0,0,0,1.36.62,8.37,8.37,0,0,0,1.85.12h1c.37,0,.74-.12,1-.12.49-.13.61-.38.61-.62V264.2c.13-.37,0-.75-.61-.75"/><path class="cls-1" d="M167,249.87a4.48,4.48,0,0,0-1.85-1.11,6.91,6.91,0,0,0-2.23-.37,19.53,19.53,0,0,0-2.34.24,9.77,9.77,0,0,0-2.23.62v-6.17a.65.65,0,0,0-.24-.5.67.67,0,0,0-.5-.25h-1.48a.64.64,0,0,0-.49.25.88.88,0,0,0-.25.5v21.86a.62.62,0,0,0,.25.49.64.64,0,0,0,.49.25h1.48a.67.67,0,0,0,.5-.25.94.94,0,0,0,.24-.49V251.72a8.81,8.81,0,0,1,1-.37,3.71,3.71,0,0,1,1.11-.25,3.57,3.57,0,0,1,1.12-.12h.86a3.11,3.11,0,0,1,2.35.86c.61.5.86,1.61.86,3.09v10.13a.64.64,0,0,0,.25.49.89.89,0,0,0,.49.25h1.49a.62.62,0,0,0,.49-.25,1,1,0,0,0,.25-.49V254.93a11,11,0,0,0-.37-3,6.7,6.7,0,0,0-1.24-2.1"/><path class="cls-1" d="M183.79,250.49a7.37,7.37,0,0,0-2.22-1.61,7.54,7.54,0,0,0-3-.49,7.45,7.45,0,0,0-3,.49,5.63,5.63,0,0,0-2.23,1.61,7.58,7.58,0,0,0-1.36,2.34,12.8,12.8,0,0,0-.49,3.09v2.35a8.16,8.16,0,0,0,.49,3.09,5,5,0,0,0,1.36,2.34,7.29,7.29,0,0,0,2.23,1.61,7.45,7.45,0,0,0,3,.49,7.54,7.54,0,0,0,3-.49,5.77,5.77,0,0,0,2.22-1.61,6.72,6.72,0,0,0,1.36-2.47,12.72,12.72,0,0,0,.49-3.09V255.8a8.12,8.12,0,0,0-.49-3.09,6,6,0,0,0-1.36-2.22m-5.19,12.84a3.66,3.66,0,0,1-3.09-1.36,6.34,6.34,0,0,1-1-3.7v-2.35a6.32,6.32,0,0,1,1-3.7,3.51,3.51,0,0,1,3.09-1.36,3.66,3.66,0,0,1,3.09,1.36,6.25,6.25,0,0,1,1,3.7v2.35a6.27,6.27,0,0,1-1,3.7,3.66,3.66,0,0,1-3.09,1.36"/><path class="cls-1" d="M195.89,248.39a5.72,5.72,0,0,0-2.1.37c-.61.24-1.36.61-2.1,1v-.37a.64.64,0,0,0-.24-.49.67.67,0,0,0-.5-.25h-1.48a.64.64,0,0,0-.49.25.89.89,0,0,0-.25.49v15.69a.89.89,0,0,0,.74.74H191a.64.64,0,0,0,.5-.25.94.94,0,0,0,.24-.49V252.34a10.5,10.5,0,0,1,2.1-1,5.72,5.72,0,0,1,2.1-.25c.62,0,.74-.37.74-.61v-1.24c0-.62-.24-.86-.74-.86"/><path class="cls-1" d="M201.57,248.51h-1.48a.62.62,0,0,0-.49.25.89.89,0,0,0-.25.49v15.69a.62.62,0,0,0,.25.49,1,1,0,0,0,.49.25h1.48a.67.67,0,0,0,.5-.25,1,1,0,0,0,.25-.49V249.25a.64.64,0,0,0-.25-.49.64.64,0,0,0-.5-.25"/><path class="cls-1" d="M201.7,242.21h-1.61a.62.62,0,0,0-.49.25.89.89,0,0,0-.25.49v2.47a.64.64,0,0,0,.25.5.94.94,0,0,0,.49.24h1.61a.64.64,0,0,0,.49-.24.91.91,0,0,0,.25-.5V243a.61.61,0,0,0-.25-.49.49.49,0,0,0-.49-.25"/><path class="cls-1" d="M212.81,263.45h-1.73a2.73,2.73,0,0,1-1.23-.24,2.12,2.12,0,0,1-.37-1.48V251.1h3.21a.63.63,0,0,0,.49-.24.91.91,0,0,0,.25-.5v-1a.62.62,0,0,0-.25-.49,1,1,0,0,0-.49-.25h-3.21v-3.21c0-.25,0-.37-.12-.49s-.25-.13-.5-.13l-1.6.25a.78.78,0,0,0-.62.74v16.06a8.59,8.59,0,0,0,.25,2.1,4.69,4.69,0,0,0,.74,1.36,2.36,2.36,0,0,0,1.36.62,8.37,8.37,0,0,0,1.85.12h1c.37,0,.74-.12,1-.12.5-.13.62-.38.62-.62V264.2c.13-.37,0-.75-.62-.75"/><path class="cls-1" d="M229.36,248.51h-1.72a.78.78,0,0,0-.5.12c-.12.13-.25.25-.25.37l-3.7,14h-.37c-.12,0-.12,0-.25-.12a1.56,1.56,0,0,1-.25-.5L218.74,249c0-.12-.12-.24-.24-.37s-.25-.24-.37-.24H216.4c-.5,0-.62.24-.62.61v.25l4.07,14.08a2.3,2.3,0,0,0,.5,1.11,2.94,2.94,0,0,0,.62.74,1.22,1.22,0,0,0,.61.25c.25,0,.5.12.74.12h.25l-.25,1.12a2.8,2.8,0,0,1-.49,1.23,1.23,1.23,0,0,1-.62.74l-.74.37a3.25,3.25,0,0,1-1.11.13H218c-.62,0-1-.13-1.48-.13s-.74.37-.74.62v1.11a.64.64,0,0,0,.25.5c.12.12.24.12.49.12s.74.12,1.23.25,1,.12,1.36.12a10.65,10.65,0,0,0,2.23-.25,4,4,0,0,0,1.6-.86,3.31,3.31,0,0,0,1.11-1.48,20.43,20.43,0,0,0,.75-2.1l5.06-17.67v-.24c.12-.37-.12-.62-.5-.62"/><path class="cls-1" d="M247.77,242.33c-.25,0-.5-.12-.74-.12s-.62-.12-1-.12a7.64,7.64,0,0,0-1.85.24,2.91,2.91,0,0,0-1.36.75,3.75,3.75,0,0,0-.87,1.35,5.62,5.62,0,0,0-.24,2.1v2.1h-2.84c-.25,0-.38,0-.5.13a.64.64,0,0,0-.25.49v.87c0,.24.13.61.75.61l2.84.37v14a.63.63,0,0,0,.24.49.91.91,0,0,0,.5.25h1.48a.61.61,0,0,0,.49-.25.89.89,0,0,0,.25-.49V251.23h3.09c.49,0,.74-.25.74-.62v-1.24a.62.62,0,0,0-.25-.49c-.12-.12-.24-.12-.49-.12h-3.21v-2.1a2.31,2.31,0,0,1,.37-1.61,2,2,0,0,1,1.36-.37h1.48c.62,0,.62-.37.62-.62v-1c.12-.5-.13-.75-.62-.75"/><path class="cls-1" d="M262.22,250.49a7.37,7.37,0,0,0-2.22-1.61,7.54,7.54,0,0,0-3-.49,7.45,7.45,0,0,0-3,.49,5.63,5.63,0,0,0-2.23,1.61,6.77,6.77,0,0,0-1.35,2.47A12.17,12.17,0,0,0,250,256v2.35a8.15,8.15,0,0,0,.5,3.09,4.93,4.93,0,0,0,1.35,2.35,6.37,6.37,0,0,0,5.19,2.1,7.53,7.53,0,0,0,3-.5,5.75,5.75,0,0,0,2.22-1.6,6.81,6.81,0,0,0,1.36-2.47,12.32,12.32,0,0,0,.49-3.09v-2.35a8.16,8.16,0,0,0-.49-3.09,5.56,5.56,0,0,0-1.36-2.34M257,263.33a3.66,3.66,0,0,1-3.09-1.36,6.34,6.34,0,0,1-1-3.7v-2.35a6.32,6.32,0,0,1,1-3.7,3.51,3.51,0,0,1,3.09-1.36,3.66,3.66,0,0,1,3.09,1.36,6.25,6.25,0,0,1,1,3.7v2.35a6.27,6.27,0,0,1-1,3.7,3.66,3.66,0,0,1-3.09,1.36"/><path class="cls-1" d="M274.32,248.39a5.72,5.72,0,0,0-2.1.37c-.61.24-1.35.61-2.1,1v-.37a.64.64,0,0,0-.24-.49.67.67,0,0,0-.5-.25H267.9a.64.64,0,0,0-.49.25.89.89,0,0,0-.25.49v15.69a.89.89,0,0,0,.74.74h1.48a.64.64,0,0,0,.5-.25.94.94,0,0,0,.24-.49V252.34a10.77,10.77,0,0,1,2.1-1,5.72,5.72,0,0,1,2.1-.25c.62,0,.75-.37.75-.61v-1.24c0-.62-.25-.86-.75-.86"/><path class="cls-1" d="M296.56,256.29a8.34,8.34,0,0,0-1.49-1.48c-.61-.5-1.35-1-2.22-1.61L290,251.47a17.28,17.28,0,0,1-2.47-1.85,2.44,2.44,0,0,1-.74-1.73,2.4,2.4,0,0,1,1-2.22,7.83,7.83,0,0,1,3.46-.62h2.84c1,0,1.85.12,2.59.12a.58.58,0,0,0,.62-.61V243.2c0-.25-.13-.5-.62-.62-.25,0-.62-.12-1.11-.12s-.87-.13-1.36-.13a6.17,6.17,0,0,1-1.48-.12h-1.48a10.22,10.22,0,0,0-5.56,1.36,4.65,4.65,0,0,0-2,4.2,4.84,4.84,0,0,0,1.11,3.21,14.77,14.77,0,0,0,3.21,2.59l3,1.86c.74.37,1.23.86,1.73,1.11a4.61,4.61,0,0,1,1.11,1,3.64,3.64,0,0,1,.62.86,2.49,2.49,0,0,1,.12,1,5.88,5.88,0,0,1-.25,1.48,2.87,2.87,0,0,1-.74,1.11,6.19,6.19,0,0,1-1.36.74A10.55,10.55,0,0,1,290,263h-3.95a3.93,3.93,0,0,1-1.24-.12.75.75,0,0,0-.49.12.62.62,0,0,0-.25.49v1.24c0,.25,0,.37.12.49s.25.13.62.25a12.56,12.56,0,0,0,2.23.25,20.51,20.51,0,0,0,2.84.12,11.58,11.58,0,0,0,3.83-.49,6.52,6.52,0,0,0,2.34-1.48,4.89,4.89,0,0,0,1.24-2,7.18,7.18,0,0,0,.37-2.22,7.42,7.42,0,0,0-.25-1.73,10.51,10.51,0,0,0-.86-1.61"/><path class="cls-1" d="M306.93,263.45H305.2a2.67,2.67,0,0,1-1.23-.24c-.13-.13-.37-.5-.37-1.48V251.1h3.21a.63.63,0,0,0,.49-.24.91.91,0,0,0,.25-.5v-1a.62.62,0,0,0-.25-.49,1,1,0,0,0-.49-.25H303.6v-3.21c0-.25,0-.37-.13-.49s-.24-.13-.49-.13l-1.61.25a.77.77,0,0,0-.61.74v16.06A9.19,9.19,0,0,0,301,264a5.22,5.22,0,0,0,.74,1.36,2.39,2.39,0,0,0,1.36.62,8.47,8.47,0,0,0,1.86.12h1c.37,0,.74-.12,1-.12.5-.13.62-.38.62-.62V264.2c.12-.37,0-.75-.62-.75"/><path class="cls-1" d="M316.57,248.39a18.82,18.82,0,0,0-2.72.12c-.74.12-1.48.12-2.1.25s-.74.37-.74.74v1.11a.63.63,0,0,0,.24.49c.13.13.25.13.5.13h.12c.62,0,1.36-.13,2.1-.13s1.61-.12,2.6-.12a3.51,3.51,0,0,1,2.47.74,3.64,3.64,0,0,1,.74,2.59v1.12h-2.1a25.72,25.72,0,0,0-3.46.24,6,6,0,0,0-2.35,1,4.27,4.27,0,0,0-1.36,1.61,6.1,6.1,0,0,0-.37,2.22v.37a7.1,7.1,0,0,0,.37,2.47,3.75,3.75,0,0,0,1.12,1.61,4,4,0,0,0,1.6.86,9.23,9.23,0,0,0,2,.25,5.42,5.42,0,0,0,2.47-.5,10.65,10.65,0,0,0,2.1-1v.49a.63.63,0,0,0,.24.49.91.91,0,0,0,.5.25h1.36a.62.62,0,0,0,.49-.25,1,1,0,0,0,.25-.49V254.31a6,6,0,0,0-1.48-4.32c-.87-1.11-2.47-1.6-4.57-1.6m-3.59,12a4.52,4.52,0,0,1,.25-1.36,1.67,1.67,0,0,1,.74-.87,4.56,4.56,0,0,1,1.36-.49,12.36,12.36,0,0,1,2.22-.12h2.1v4.81a9.23,9.23,0,0,1-2,.87,5.61,5.61,0,0,1-2,.24,3,3,0,0,1-2-.49,2.55,2.55,0,0,1-.74-2.1Z"/><path class="cls-1" d="M332.62,263.45h-1.73a2.73,2.73,0,0,1-1.23-.24c-.13-.13-.37-.5-.37-1.48V251.1h3.21a.63.63,0,0,0,.49-.24.91.91,0,0,0,.25-.5v-1a.62.62,0,0,0-.25-.49,1,1,0,0,0-.49-.25h-3.21v-3.21c0-.25,0-.37-.13-.49s-.24-.13-.49-.13l-1.61.25a.77.77,0,0,0-.61.74v16.06a9.19,9.19,0,0,0,.24,2.1,5.22,5.22,0,0,0,.74,1.36,2.43,2.43,0,0,0,1.36.62,8.52,8.52,0,0,0,1.86.12h1c.37,0,.75-.12,1-.12.5-.13.62-.38.62-.62V264.2c.12-.37,0-.75-.62-.75"/><path class="cls-1" d="M338.43,242.21h-1.61a.61.61,0,0,0-.49.25.89.89,0,0,0-.25.49v2.47a.64.64,0,0,0,.25.5.94.94,0,0,0,.49.24h1.61a.64.64,0,0,0,.49-.24.91.91,0,0,0,.25-.5V243a.61.61,0,0,0-.25-.49.49.49,0,0,0-.49-.25"/><path class="cls-1" d="M338.3,248.51h-1.48a.61.61,0,0,0-.49.25.89.89,0,0,0-.25.49v15.69a.62.62,0,0,0,.25.49,1,1,0,0,0,.49.25h1.48a.67.67,0,0,0,.5-.25,1,1,0,0,0,.25-.49V249.25a.64.64,0,0,0-.25-.49.64.64,0,0,0-.5-.25"/><path class="cls-1" d="M350.28,256.66l-3.08-1.85a6,6,0,0,1-1.61-1.11,1.5,1.5,0,0,1-.49-1.11c0-.75.24-1.24.74-1.36a4.72,4.72,0,0,1,2-.25,18.86,18.86,0,0,1,2.6.12c.86,0,1.6.13,2.22.13a.59.59,0,0,0,.62-.62V249.5c0-.25-.12-.62-.74-.74a13,13,0,0,0-2.35-.25,17,17,0,0,0-2.47-.12c-.74,0-1.6.12-2.22.12a7.73,7.73,0,0,0-1.85.62,4.31,4.31,0,0,0-1.24,1.36,4.57,4.57,0,0,0-.49,2,3.89,3.89,0,0,0,.86,2.6,9.55,9.55,0,0,0,2.35,2l3.09,1.85a5.52,5.52,0,0,1,1.72,1.36,2.2,2.2,0,0,1,.5,1.12,1.7,1.7,0,0,1-.74,1.6,5,5,0,0,1-2.23.49h-1a4.35,4.35,0,0,1-1.24-.12c-.49,0-.86-.12-1.36-.12s-.86-.13-1.23-.13h-.13c-.24,0-.37,0-.49.13s-.25.24-.25.37v1.11c0,.25.13.62.74.74.37.12.74.12,1.24.25s.86.12,1.36.12.86.13,1.23.13h1a14,14,0,0,0,2.35-.25,4.36,4.36,0,0,0,1.85-.87,5.11,5.11,0,0,0,1.24-1.48,5.44,5.44,0,0,0,.37-2.1,4.42,4.42,0,0,0-.75-2.47c0-.62-.86-1.36-2.1-2.1"/><path class="cls-1" d="M363,263.45h-1.73a2.75,2.75,0,0,1-1.24-.24,2.12,2.12,0,0,1-.37-1.48V251.1h3.21a.67.67,0,0,0,.5-.24,1,1,0,0,0,.24-.5v-1a.64.64,0,0,0-.24-.49,1,1,0,0,0-.5-.25h-3.21v-3.21c0-.25,0-.37-.12-.49s-.25-.13-.5-.13l-1.6.25a.78.78,0,0,0-.62.74v16.06a8.59,8.59,0,0,0,.25,2.1,4.69,4.69,0,0,0,.74,1.36,2.36,2.36,0,0,0,1.36.62,8.37,8.37,0,0,0,1.85.12h1c.37,0,.74-.12,1-.12.49-.13.61-.38.61-.62V264.2c.25-.37.13-.75-.61-.75"/><path class="cls-1" d="M368.81,248.63h-1.48a.64.64,0,0,0-.49.25.89.89,0,0,0-.25.49v15.69a.61.61,0,0,0,.25.49.89.89,0,0,0,.49.25h1.48a.64.64,0,0,0,.5-.25.94.94,0,0,0,.24-.49V249.37a.64.64,0,0,0-.24-.49.5.5,0,0,0-.5-.25"/><path class="cls-1" d="M368.81,242.21h-1.6a.64.64,0,0,0-.5.25.94.94,0,0,0-.24.49v2.47a.67.67,0,0,0,.24.5,1,1,0,0,0,.5.24h1.6a.67.67,0,0,0,.5-.24,1,1,0,0,0,.24-.5V243a.63.63,0,0,0-.24-.49.64.64,0,0,0-.5-.25"/><path class="cls-1" d="M383.39,248.76a7.07,7.07,0,0,0-1.73-.25,11.65,11.65,0,0,0-2.1-.12,6.86,6.86,0,0,0-2.84.49,6.28,6.28,0,0,0-2.1,1.48,5.38,5.38,0,0,0-1.24,2.35,12.32,12.32,0,0,0-.49,3.09v2.34a8.09,8.09,0,0,0,.49,3.09,5,5,0,0,0,1.36,2.35,6.48,6.48,0,0,0,2.1,1.48,6.86,6.86,0,0,0,2.84.49,11.65,11.65,0,0,0,2.1-.12,6.93,6.93,0,0,0,1.73-.25,1,1,0,0,0,.62-.24c.12-.13.12-.25.12-.5v-1.11a.61.61,0,0,0-.25-.49c-.12-.13-.24-.13-.49-.13h-.12a9,9,0,0,1-1.86.13h-2a3,3,0,0,1-2.72-1.24,6.17,6.17,0,0,1-1-3.83v-2.34a6.43,6.43,0,0,1,1-3.83,3.56,3.56,0,0,1,2.72-1.24h2c.5,0,1.12.13,1.86.13h.12a.7.7,0,0,0,.49-.13.61.61,0,0,0,.25-.49v-.37a1,1,0,0,0-.12-.62c-.25,0-.5-.12-.74-.12"/><path class="cls-1" d="M394.75,256.66l-3.09-1.85a6,6,0,0,1-1.6-1.11,1.52,1.52,0,0,1-.5-1.11c0-.75.25-1.24.74-1.36a4.8,4.8,0,0,1,2-.25,18.72,18.72,0,0,1,2.59.12c.87,0,1.61.13,2.23.13a.58.58,0,0,0,.61-.62V249.5c0-.25-.12-.62-.74-.74a13,13,0,0,0-2.34-.25,17.1,17.1,0,0,0-2.47-.12c-.74,0-1.61.12-2.23.12a7.89,7.89,0,0,0-1.85.62,4.41,4.41,0,0,0-1.23,1.36,4.57,4.57,0,0,0-.5,2,3.9,3.9,0,0,0,.87,2.6,9.31,9.31,0,0,0,2.34,2l3.09,1.85a5.72,5.72,0,0,1,1.73,1.36,2.17,2.17,0,0,1,.49,1.12,1.68,1.68,0,0,1-.74,1.6,4.86,4.86,0,0,1-2.22.49h-1a4.28,4.28,0,0,1-1.23-.12c-.5,0-.87-.12-1.36-.12s-.87-.13-1.24-.13H387c-.25,0-.37,0-.5.13s-.24.24-.24.37v1.11c0,.25.12.62.74.74.37.12.74.12,1.23.25s.87.12,1.36.12.87.13,1.24.13h1a14,14,0,0,0,2.34-.25,4.46,4.46,0,0,0,1.86-.87,4.93,4.93,0,0,0,1.23-1.48,5.26,5.26,0,0,0,.37-2.1,4.49,4.49,0,0,0-.74-2.47c.12-.62-.74-1.36-2.1-2.1"/></svg>