<svg id="Layer_1" data-name="Layer 1" xmlns="http://www.w3.org/2000/svg" viewBox="0 0 321.65 268.99"><defs><style>.cls-1{fill:#216af6;}</style></defs><title>icon</title><path class="cls-1" d="M291.89,147.64l-58-.5c10.21-18.67,17.32-36.93,17.32-51.47C251.17,41.17,212.1,0,160.28,0S69.39,41.17,69.39,95.67c0,14.24,6.77,32,16.68,50.18l-56.35-.5L0,269H321.66ZM160.28,10.35c45.95,0,80.59,36.69,80.59,85.32,0,13.49-7.72,31.86-19,51.37-17.13,29.67-42.51,62-61.63,83.92-19.36-22.15-45.14-55.05-62.22-85-11-19.11-18.36-37-18.36-50.27C79.7,47,114.34,10.35,160.28,10.35Z"/><path class="cls-1" d="M164.51,135.64a49.48,49.48,0,0,0,41.67-22.75,49.52,49.52,0,0,1-69-45.54,49.05,49.05,0,0,1,7.86-26.73,49.51,49.51,0,0,0,19.46,95Z"/></svg>