<svg id="Layer_1" data-name="Layer 1" xmlns="http://www.w3.org/2000/svg" viewBox="0 0 236.09 237.43"><defs><style>.cls-1{fill:#acb8c1;}</style></defs><title>icon</title><path class="cls-1" d="M229.92,200.25h6.17V0H0V237.43H236.09V225.14H12.29v-178H223.74V200.25ZM101.54,17.42V31.71H87.21V17.42Zm9.36,14.29V17.42h14.29V31.71Zm37.93,0H134.54V17.42h14.29Z"/><polygon class="cls-1" points="108.91 168.69 138.63 92.39 127.13 87.91 97.46 164.21 108.91 168.69"/><polygon class="cls-1" points="70.93 100.55 43.21 128.32 70.93 156.05 79.64 147.34 60.63 128.32 79.64 109.26 70.93 100.55"/><polygon class="cls-1" points="165.11 156.05 192.83 128.32 165.11 100.55 156.4 109.26 175.41 128.32 156.4 147.34 165.11 156.05"/></svg>