<?xml version="1.0" encoding="utf-8"?>
<!-- Generator: Adobe Illustrator 25.0.0, SVG Export Plug-In . SVG Version: 6.00 Build 0)  -->
<svg version="1.1" id="Layer_1" xmlns="http://www.w3.org/2000/svg" xmlns:xlink="http://www.w3.org/1999/xlink" x="0px" y="0px"
	 viewBox="0 0 932 317.3" style="enable-background:new 0 0 932 317.3;" xml:space="preserve">
<style type="text/css">
	.st0{fill:#0065FF;}
	.st1{opacity:0.5;fill:none;stroke:url(#SVGID_1_);stroke-width:1.6604;stroke-miterlimit:10;}
	.st2{opacity:0.5;fill:url(#SVGID_2_);}
	.st3{fill:#F5F8FA;}
	.st4{fill:#FFFFFF;}
	.st5{fill:#707070;}
</style>
<g>
	<path class="st0" d="M242.7,20.3c0-16,1.5-17.4-14.5-17.4h-211c-16,0-14.5,1.4-14.5,17.4v277.2c0,16-1.5,17.4,14.5,17.4h211
		c16,0,14.5-1.4,14.5-17.4V20.3z"/>
	<linearGradient id="SVGID_1_" gradientUnits="userSpaceOnUse" x1="25.9418" y1="-8.609" x2="219.3628" y2="326.4061">
		<stop  offset="9.181651e-07" style="stop-color:#FFFFFF;stop-opacity:0.25"/>
		<stop  offset="1" style="stop-color:#FFFFFF;stop-opacity:0.6"/>
	</linearGradient>
	<path class="st1" d="M242.7,20.3c0-16,1.5-17.4-14.5-17.4h-211c-16,0-14.5,1.4-14.5,17.4v277.2c0,16-1.5,17.4,14.5,17.4h211
		c16,0,14.5-1.4,14.5-17.4V20.3z"/>
</g>
<linearGradient id="SVGID_2_" gradientUnits="userSpaceOnUse" x1="-32.8381" y1="69.1261" x2="278.1427" y2="248.671">
	<stop  offset="4.311825e-07" style="stop-color:#00C7E5"/>
	<stop  offset="0.1715" style="stop-color:#00BEE7;stop-opacity:0.8285"/>
	<stop  offset="0.4511" style="stop-color:#00A6EE;stop-opacity:0.5489"/>
	<stop  offset="0.802" style="stop-color:#007EF8;stop-opacity:0.198"/>
	<stop  offset="1" style="stop-color:#0065FF;stop-opacity:0"/>
</linearGradient>
<path class="st2" d="M242.7,20.3c0-16,1.5-17.4-14.5-17.4h-211c-16,0-14.5,1.4-14.5,17.4v277.2c0,16-1.5,17.4,14.5,17.4h211
	c16,0,14.5-1.4,14.5-17.4V20.3z"/>
<path class="st3" d="M174.3,255.4H71c-6.4,0-11.6-5.2-11.6-11.6V126.6c0-17.4,9.3-33.4,24.4-42.1l33.1-18.9c3.6-2,7.9-2,11.5,0
	l33.1,18.9c15.1,8.7,24.4,24.7,24.4,42.1v117.2C185.9,250.2,180.7,255.4,174.3,255.4z"/>
<path class="st4" d="M174.3,255.4H71c-6.4,0-11.6-5.2-11.6-11.6V126.6c0-17.4,9.3-33.4,24.4-42.1l33.1-18.9c3.6-2,7.9-2,11.5,0
	l33.1,18.9c15.1,8.7,24.4,24.7,24.4,42.1v117.2C185.9,250.2,180.7,255.4,174.3,255.4z"/>
<g>
	<path d="M336.1,152.7h-6.7h-2.9c-1.3,0-2.2,0.3-2.6,1c-0.5,0.7-0.9,1.9-1.3,3.8l-0.2,1.1l6.9-0.5v27.2L303,152.7h-4.1h-6.7h-1.8
		c-1.2,0-2.1,0.3-2.5,1c-0.5,0.7-0.9,1.9-1.3,3.8l-0.2,1.1l5.8-0.3v39.9l-2.5,0.9c-1,0.4-1.8,0.9-2.3,1.5c-0.5,0.6-0.7,1.6-0.7,2.9
		l0.1,1.5h5.4h6.6h3.4c1.3,0,2.2-0.3,2.6-1c0.4-0.7,0.9-1.9,1.3-3.8l0.2-1.1l-7.4,0.5v-31.7l30.1,37.1h7.4v-45.3l2.8-1
		c1-0.4,1.8-0.9,2.3-1.5c0.5-0.6,0.7-1.6,0.7-2.9l-0.1-1.5H336.1z"/>
	<path d="M364.2,166.8c-3.9,0-7.3,0.9-10.3,2.6c-3,1.7-5.3,4.1-6.9,7.3c-1.6,3.1-2.5,6.8-2.5,10.9c0,5.9,1.7,10.5,5.1,13.7
		c3.4,3.2,8.1,4.9,14.2,4.9c1.8,0,3.6-0.1,5.5-0.4c1.9-0.3,3.4-0.6,4.6-1.2l5.7-6.9l-0.6-1c-1.7,0.6-3.4,1-5.1,1.3
		c-1.7,0.3-3.2,0.4-4.6,0.4c-4.1,0-7.2-1-9.2-3c-1.8-1.8-2.8-4.4-3-8h23.3c0.2-1.5,0.3-3,0.3-4.6c0-4.9-1.4-8.8-4.2-11.7
		C373.7,168.3,369.6,166.8,364.2,166.8z M364.1,173.4c2,0,3.5,0.8,4.4,2.5c0.8,1.5,1.3,3.6,1.4,6.2l-12.7,1.3c0.2-2.7,0.8-5,1.7-6.7
		C360.1,174.5,361.9,173.4,364.1,173.4z"/>
	<path d="M424.3,199.7l-0.7-0.2L412,184.6l9.9-10.8l1.6-0.6c1.3-0.4,2.2-0.9,2.7-1.4c0.5-0.5,0.7-1.3,0.7-2.3l-0.3-1.5h-11.7
		c-1.3,0-2.1,0.2-2.6,0.7c-0.4,0.5-0.8,1.4-1.1,2.7l-0.3,1.3l4.6-0.4l-6.4,8.4l-6.3-8.1l0.8,0c1.4,0.1,2.4-0.1,2.8-0.6
		c0.5-0.5,0.9-1.4,1.2-2.8l0.3-1.3h-23l-0.3,1.5c0,1,0.2,1.8,0.7,2.3c0.5,0.5,1.4,1,2.7,1.4l0.7,0.2l10.9,14l-10.3,11.5l-1.9,0.6
		c-1.3,0.4-2.2,0.8-2.7,1.3c-0.5,0.5-0.7,1.3-0.7,2.4l0.3,1.5h12.1c1.3,0,2.1-0.2,2.6-0.7c0.4-0.5,0.8-1.4,1.1-2.7l0.3-1.3l-4.9,0.4
		l7-9.1l6.9,8.8l-1.3-0.1c-1.3-0.1-2.2,0.1-2.7,0.6c-0.5,0.5-0.8,1.4-1.2,2.8l-0.3,1.3h23.3l0.3-1.5c0-1.1-0.2-1.9-0.7-2.4
		C426.3,200.6,425.5,200.1,424.3,199.7z"/>
	<path d="M450.5,197.9c-1.7,0-2.9-0.4-3.7-1.3c-0.8-0.9-1.2-2.4-1.2-4.5v-16.7h10.8v-6h-10.8v-10.2h-3l-9.2,10.2l-2,0.6
		c-1.3,0.4-2.2,0.9-2.7,1.4c-0.5,0.6-0.7,1.5-0.7,2.7l0.3,1.3h5.1v18.7c0,4,0.9,7,2.8,9c1.9,2,4.8,3,8.7,3c3.1,0,5.6-0.4,7.5-1.3
		l5.1-7.5l-0.7-1C455.2,197.4,453,197.9,450.5,197.9z"/>
	<path d="M524.7,159.6l2.4-0.9c1.3-0.4,2.1-1,2.5-1.6c0.4-0.6,0.6-1.7,0.7-3.1l-0.1-1.3h-5.5h-1h-12.6l-14.3,27.6l-14.6-27.6h-7.9
		h-6.7h-1.8c-1.2,0-2,0.3-2.5,0.9c-0.4,0.6-0.9,2-1.3,4.1l-0.2,0.9l5.8-0.3V198l-2.7,1c-1,0.4-1.8,0.9-2.3,1.5
		c-0.5,0.6-0.7,1.6-0.7,2.9l0.1,1.5h5.6h6.6h2.7c1.3,0,2.2-0.3,2.6-1c0.4-0.7,0.9-1.9,1.3-3.8l0.2-1.1l-6.7,0.5V164l16.1,30.5h5.6
		l15.9-30V198l-2,0.7c-1.2,0.4-2.1,0.9-2.7,1.5c-0.6,0.6-0.9,1.6-0.9,3l0.1,1.7h5.6h13h1.8c1.1,0,1.9-0.4,2.4-1.1
		c0.5-0.7,0.9-2,1.3-4l0.2-0.9l-5.7,0.3V159.6z"/>
	<path d="M570.4,198v-17.4c0-4.9-1.3-8.4-3.8-10.6c-2.5-2.2-6.1-3.2-10.8-3.2c-5.1,0-9.6,0.6-13.5,1.8l-5.2,8.1l0.7,1.1
		c5.4-1.9,10-2.8,13.7-2.8c4.5,0,6.7,2,6.7,6v3.6l-19.9,2.3c-1.1,1.3-1.9,2.8-2.4,4.3c-0.5,1.5-0.8,3.1-0.8,4.5
		c0,3.2,1.1,5.8,3.2,7.6s5.1,2.8,8.9,2.8c2.7,0,4.8-0.3,6.2-0.9l4.8-6.3c0.2,2.5,0.6,4.8,1.5,6.9l11.4-2.4c1.7-0.3,2.8-0.8,3.4-1.5
		c0.6-0.7,0.9-1.7,0.9-3l-0.1-1H570.4z M556,198.5c-0.9,0.3-2,0.4-3.2,0.4c-1.9,0-3.4-0.5-4.4-1.5c-1-1-1.5-2.4-1.5-4
		c0-1.3,0.3-2.7,0.7-4h10.6v7.9c0,0.1,0,0.2,0,0.3C557.5,198,556.7,198.3,556,198.5z"/>
	<path d="M601.5,182.6l-4.6-1.4c-2.7-0.8-4.5-1.5-5.4-2.1c-0.9-0.5-1.3-1.3-1.3-2.3c0-1.3,0.7-2.2,2.1-2.9c1.4-0.6,3-1,5-1
		c2,0,4,0.4,6.1,1.3v4.6l1.5,0.2c1.4,0,2.4-0.2,2.9-0.7c0.5-0.5,0.9-1.5,1.2-2.9l1.1-6.3c-4-1.5-8.3-2.2-13-2.2
		c-5.2,0-9.4,1.2-12.6,3.5c-3.2,2.3-4.8,5.5-4.8,9.5c0,3,0.8,5.1,2.5,6.5c1.6,1.4,4.4,2.7,8.1,3.9l5.2,1.6c2.7,0.8,4.5,1.5,5.3,2.1
		c0.8,0.6,1.3,1.3,1.3,2.2c0,1.2-0.5,2.2-1.6,2.8c-1.1,0.6-2.9,1-5.5,1c-1.5,0-3.4-0.3-5.5-1c-1.3-0.4-2.4-0.8-3.5-1.3v-5.1
		l-1.4-0.2c-1.4,0-2.4,0.3-3,0.8c-0.6,0.5-1,1.5-1.3,3.1l-1.1,6.9c1.9,0.9,4.3,1.6,7.2,2.1s5.9,0.8,8.8,0.8c5.1,0,9.3-1.1,12.4-3.4
		c3.1-2.3,4.7-5.4,4.7-9.3c0-2.8-0.9-5-2.6-6.7C608.1,185.1,605.3,183.7,601.5,182.6z"/>
	<polygon points="618,155.3 626.2,163.5 634.3,155.3 626.2,147.1 	"/>
	<path d="M615.9,171.2c-0.5,0.6-0.8,1.5-0.8,2.7l0.3,1.4h5.5v24.3c0,4.7-0.3,8.6-1,11.8c-0.7,3.2-2,6.9-3.9,11.2l2.2,1.4
		c3-2.4,5.5-4.7,7.8-6.9c2.2-2.2,4.2-4.6,6-7.2c0.7-2.3,1.1-5.1,1.1-8.4v-26.3V174V167l-14.4,2.9
		C617.3,170.2,616.4,170.6,615.9,171.2z"/>
	<polygon points="658.7,155.3 650.6,147.1 642.4,155.3 650.6,163.5 	"/>
	<path d="M657.5,175.4v-1.6V167l-14.4,2.9c-1.3,0.3-2.2,0.7-2.7,1.3c-0.5,0.6-0.8,1.5-0.8,2.7l0.3,1.4h5.5V199l-2,0.7
		c-1.3,0.5-2.2,0.9-2.7,1.4c-0.5,0.5-0.7,1.3-0.7,2.3l0.3,1.5h18.6c1.3,0,2.1-0.2,2.6-0.7c0.4-0.5,0.8-1.4,1.1-2.7l0.3-1.3l-5.3,0.2
		V175.4z"/>
	<path d="M709.8,198h-5v-40.9v-3.7v-4.3l-14.4,2.5c-1.3,0.3-2.2,0.7-2.7,1.3c-0.5,0.6-0.8,1.6-0.8,2.8l0.1,1.3h5.7v10.4
		c-2.1-0.4-4.3-0.7-6.7-0.7c-6.3,0.1-11.2,2-14.7,5.9c-3.5,3.9-5.3,9.2-5.3,16c0,5.5,1.4,9.7,4.1,12.8c2.7,3.1,6.7,4.6,11.8,4.6
		c1.4,0,2.8-0.2,4.1-0.5c1.3-0.3,2.4-0.8,3.3-1.3l3.3-6.5v7.7l12.7-2.2c1.7-0.3,2.9-0.8,3.6-1.4c0.6-0.6,1-1.8,1-3.4L709.8,198z
		 M690,197.4c-1.2,0.4-2.3,0.6-3.3,0.6c-2.6,0-4.6-1-6-2.9c-1.4-1.9-2.1-4.6-2.1-7.9c0-4.5,0.8-7.8,2.3-10c1.5-2.2,3.8-3.3,6.7-3.3
		c1.2,0,2.4,0.2,3.5,0.6c0.5,0.2,1.1,0.4,1.5,0.7v21C691.8,196.7,690.9,197.1,690,197.4z"/>
</g>
<g>
	<path class="st5" d="M331.8,249.6c-0.9,0-1.5,0.2-1.9,0.7c-0.3,0.5-0.6,1.2-0.8,2.4l-0.2,1.1l5.5-0.3l-7.5,26.1l-7.6-28.7l-8.3,1.9
		l-6.9,26.2l-7.6-25.3l2.5,0.1c1.2,0,2-0.1,2.4-0.4c0.5-0.3,0.8-1,1-2.1l0.3-1.6h-18.8l-0.1,1.1c0,1,0.2,1.7,0.5,2.1
		c0.3,0.4,0.9,0.8,1.8,1.1l0.9,0.3l10.1,32.3h9.2l6.8-24.8l6.7,24.8h9.1l9.9-32.1l1.1-0.4c0.9-0.3,1.5-0.7,1.8-1.2
		c0.4-0.5,0.5-1,0.5-1.8l-0.1-1.4H331.8z"/>
	<path class="st5" d="M374.7,268.8c0-3.1-0.8-5.4-2.3-6.9c-1.5-1.5-3.7-2.3-6.6-2.3c-1.9,0-4,0.4-6.2,1.2l-2.8,4.7v-12.7v-2v-3.6
		l-10.1,1.8c-0.9,0.2-1.6,0.5-1.9,0.9c-0.4,0.4-0.6,1.1-0.6,2l0.1,1h4v29.5l-1.4,0.5c-0.9,0.3-1.5,0.7-1.9,1
		c-0.3,0.4-0.5,0.9-0.5,1.6l0.2,1.1h12.8c0.9,0,1.5-0.2,1.8-0.5c0.3-0.3,0.6-1,0.8-1.9l0.2-1l-3.5,0.2v-16.5
		c1.7-0.9,3.4-1.4,5.2-1.4c2.7,0,4.1,1.5,4.1,4.6v12.5l-0.9,0.3c-0.9,0.3-1.5,0.7-1.9,1c-0.3,0.4-0.5,0.9-0.5,1.6l0.2,1.1h12.4
		c0.9,0,1.5-0.2,1.8-0.5c0.3-0.3,0.6-1,0.8-1.9l0.2-1l-3.6,0.2V268.8z"/>
	<path class="st5" d="M394,259.6c-2.7,0-5.1,0.6-7.2,1.8c-2.1,1.2-3.7,2.9-4.9,5.1c-1.2,2.2-1.7,4.8-1.7,7.7c0,4.2,1.2,7.4,3.6,9.7
		c2.4,2.3,5.7,3.4,10,3.4c1.3,0,2.6-0.1,3.9-0.3c1.3-0.2,2.4-0.5,3.3-0.8l4-4.9l-0.4-0.7c-1.2,0.4-2.4,0.7-3.6,0.9
		c-1.2,0.2-2.3,0.3-3.3,0.3c-2.9,0-5.1-0.7-6.5-2.1c-1.3-1.2-2-3.1-2.1-5.6h16.4c0.1-1,0.2-2.1,0.2-3.3c0-3.5-1-6.2-3-8.2
		C400.7,260.6,397.8,259.6,394,259.6z M394,264.2c1.4,0,2.4,0.6,3.1,1.8c0.6,1,0.9,2.5,1,4.4l-8.9,0.9c0.2-1.9,0.6-3.5,1.2-4.7
		C391.2,265,392.4,264.2,394,264.2z"/>
	<path class="st5" d="M423.1,261.5l-2.4,5v-0.8v-1.2v-4.8l-10.1,2c-1,0.2-1.6,0.5-2,1c-0.4,0.4-0.5,1-0.5,1.9l0.2,1h3.9v16.6
		l-1.4,0.5c-0.9,0.3-1.5,0.7-1.9,1s-0.5,0.9-0.5,1.6l0.2,1.1h13.2c0.9,0,1.5-0.2,1.8-0.5c0.3-0.3,0.6-1,0.8-1.9l0.2-1l-3.8,0.2
		v-15.7c0.7-0.2,1.7-0.4,3.1-0.6c1.6-0.2,3.2-0.3,4.8-0.3v-7.1c-1,0-2,0.2-3.1,0.5C424.5,260.5,423.7,261,423.1,261.5z"/>
	<path class="st5" d="M443.9,259.6c-2.7,0-5.1,0.6-7.2,1.8c-2.1,1.2-3.7,2.9-4.9,5.1c-1.2,2.2-1.7,4.8-1.7,7.7
		c0,4.2,1.2,7.4,3.6,9.7c2.4,2.3,5.7,3.4,10,3.4c1.3,0,2.6-0.1,3.9-0.3c1.3-0.2,2.4-0.5,3.3-0.8l4-4.9l-0.4-0.7
		c-1.2,0.4-2.4,0.7-3.6,0.9c-1.2,0.2-2.3,0.3-3.3,0.3c-2.9,0-5.1-0.7-6.5-2.1c-1.3-1.2-2-3.1-2.1-5.6h16.4c0.1-1,0.2-2.1,0.2-3.3
		c0-3.5-1-6.2-3-8.2C450.6,260.6,447.7,259.6,443.9,259.6z M443.8,264.2c1.4,0,2.4,0.6,3.1,1.8c0.6,1,0.9,2.5,1,4.4l-8.9,0.9
		c0.2-1.9,0.6-3.5,1.2-4.7C441,265,442.2,264.2,443.8,264.2z"/>
	<path class="st5" d="M483.8,281.5c-1.2,0-2-0.3-2.6-0.9c-0.5-0.6-0.8-1.7-0.8-3.2v-11.8h7.6v-4.2h-7.6v-7.2h-2.1l-6.5,7.2l-1.4,0.4
		c-1,0.3-1.6,0.6-1.9,1c-0.3,0.4-0.5,1-0.5,1.9l0.2,0.9h3.6v13.2c0,2.8,0.7,4.9,2,6.4c1.3,1.4,3.4,2.1,6.1,2.1
		c2.2,0,3.9-0.3,5.3-0.9l3.6-5.3l-0.5-0.7C487.1,281.2,485.6,281.5,483.8,281.5z"/>
	<path class="st5" d="M504.6,259.6c-2.9,0-5.5,0.6-7.7,1.8c-2.2,1.2-3.9,2.9-5.1,5.2c-1.2,2.2-1.8,4.8-1.8,7.6
		c0,4.3,1.2,7.5,3.7,9.7c2.5,2.2,5.9,3.4,10.3,3.4c2.9,0,5.5-0.6,7.7-1.8c2.2-1.2,3.9-2.9,5.2-5.1c1.2-2.2,1.8-4.8,1.8-7.7
		c0-4.1-1.2-7.3-3.6-9.6C512.8,260.8,509.2,259.6,504.6,259.6z M508.5,280.4c-1,1.6-2.3,2.4-4.1,2.4c-1.7,0-3-0.8-4-2.4
		c-1-1.6-1.5-3.8-1.5-6.5c0-3.2,0.5-5.6,1.4-7.2c1-1.7,2.4-2.5,4.2-2.5c1.8,0,3.1,0.8,4,2.4c0.9,1.6,1.4,3.9,1.4,6.8
		C509.9,276.4,509.4,278.8,508.5,280.4z"/>
	<path class="st5" d="M564.3,268.8c-1.6-0.9-3.5-1.5-5.9-1.9c1.3-0.4,2.4-0.9,3.4-1.5c2.8-1.7,4.2-4.2,4.2-7.3
		c0-2.7-1.2-4.7-3.6-6.2c-2.4-1.5-6.2-2.2-11.3-2.2h-3.8h-9.4h-1.4c-1,0-1.7,0.2-2,0.7c-0.3,0.5-0.6,1.4-0.9,2.7l-0.1,0.7l4.4-0.2
		v28l-1.8,0.7c-0.9,0.3-1.5,0.7-1.8,1.2c-0.3,0.5-0.5,1.2-0.5,2.1l0.1,1h3.9h9.4h3.1c5.9,0,10.4-0.9,13.4-2.8
		c3.1-1.9,4.6-4.5,4.6-7.8C568.5,272.7,567.1,270.3,564.3,268.8z M549.4,253.9c2.5,0,4.3,0.5,5.3,1.4c1.1,0.9,1.6,2.3,1.6,4.1
		c0,2-0.6,3.6-1.8,4.7c-1.2,1.1-2.9,1.7-5.2,1.7h-2v-11.9H549.4z M556.5,280.5c-1.4,1.2-3.6,1.7-6.5,1.7h-2.6v-12.2h3.1
		c5.5,0,8.2,1.9,8.2,5.6C558.7,277.7,558,279.4,556.5,280.5z"/>
	<path class="st5" d="M600.1,281.6v-15.9V264v-4.2l-10.1,2c-0.9,0.2-1.6,0.5-1.9,1c-0.4,0.5-0.6,1.1-0.6,2l0.2,0.9h3.9v14.8
		c-0.6,0.3-1.2,0.6-1.9,0.8c-0.9,0.2-1.9,0.3-2.9,0.3c-1.4,0-2.5-0.3-3.3-1.1c-0.7-0.7-1.1-1.9-1.1-3.6v-11.3v-1.9v-4l-10.3,2.1
		c-0.7,0.1-1.3,0.4-1.7,0.8c-0.4,0.4-0.6,1.1-0.6,1.9l0.2,1h3.7v12.4c0,3.1,0.8,5.4,2.3,6.9c1.5,1.5,3.7,2.3,6.6,2.3
		c1.1,0,2.2-0.1,3.2-0.3s2-0.5,2.9-0.9l2.8-4.4v0.8v4.6l9.1-1.6c1.1-0.2,1.9-0.5,2.3-1c0.5-0.5,0.7-1.1,0.7-1.9l-0.1-1H600.1z"/>
	<path class="st5" d="M617.6,265.7v-1.2v-4.8l-10.1,2c-0.9,0.2-1.6,0.5-1.9,0.9c-0.4,0.4-0.6,1.1-0.6,1.9l0.2,1h3.9v16.6l-1.4,0.5
		c-0.9,0.3-1.5,0.7-1.9,1c-0.3,0.4-0.5,0.9-0.5,1.6l0.2,1.1h13.1c0.9,0,1.5-0.2,1.8-0.5c0.3-0.3,0.6-1,0.8-1.9l0.2-1l-3.7,0.2V265.7
		z"/>
	<polygon class="st5" points="618.5,251.5 612.8,245.7 607,251.5 612.8,257.3 	"/>
	<path class="st5" d="M634.8,252.8v-2v-3.6l-10.1,1.8c-0.9,0.2-1.6,0.5-1.9,0.9c-0.4,0.4-0.6,1.1-0.6,2l0.1,1h4v29.5l-1.4,0.5
		c-0.9,0.3-1.5,0.7-1.9,1s-0.5,0.9-0.5,1.6l0.2,1.1h13.1c0.9,0,1.5-0.2,1.8-0.5c0.3-0.3,0.6-1,0.8-1.9l0.2-1l-3.7,0.2V252.8z"/>
	<path class="st5" d="M668.2,281.6v-28.8v-2.6v-3.1l-10.1,1.8c-0.9,0.2-1.6,0.5-1.9,0.9c-0.4,0.4-0.6,1.1-0.6,2l0.1,1h4v7.3
		c-1.4-0.3-3-0.5-4.7-0.5c-4.4,0-7.9,1.4-10.4,4.2c-2.5,2.7-3.7,6.5-3.7,11.2c0,3.8,1,6.9,2.9,9s4.7,3.3,8.3,3.3c1,0,2-0.1,2.9-0.3
		c0.9-0.2,1.7-0.5,2.3-1l2.3-4.6v5.5l9-1.6c1.2-0.2,2.1-0.6,2.5-1c0.5-0.5,0.7-1.2,0.7-2.4l-0.1-0.4H668.2z M657.8,281.2
		c-0.8,0.3-1.6,0.4-2.3,0.4c-1.9,0-3.3-0.7-4.2-2s-1.5-3.2-1.5-5.6c0-3.2,0.5-5.5,1.6-7.1s2.6-2.3,4.7-2.3c0.9,0,1.7,0.1,2.4,0.4
		c0.4,0.1,0.7,0.3,1.1,0.5v14.8C659,280.6,658.4,280.9,657.8,281.2z"/>
	<path class="st5" d="M709.7,281.6v-12.2c0-3.4-0.9-5.9-2.6-7.4c-1.8-1.5-4.3-2.3-7.6-2.3c-3.6,0-6.7,0.4-9.5,1.3l-3.7,5.7l0.5,0.7
		c3.8-1.3,7-2,9.6-2c3.2,0,4.8,1.4,4.8,4.2v2.5l-14,1.6c-0.8,1-1.3,2-1.7,3.1c-0.4,1.1-0.5,2.2-0.5,3.2c0,2.3,0.8,4.1,2.3,5.4
		c1.5,1.3,3.6,2,6.3,2c1.9,0,3.4-0.2,4.3-0.6l3.4-4.5c0.1,1.7,0.4,3.4,1,4.9l8-1.7c1.2-0.2,2-0.6,2.4-1.1s0.6-1.2,0.6-2.1l-0.1-0.7
		H709.7z M699.6,281.9c-0.7,0.2-1.4,0.3-2.3,0.3c-1.4,0-2.4-0.4-3.1-1.1c-0.7-0.7-1.1-1.7-1.1-2.9c0-0.9,0.2-1.9,0.5-2.8h7.5v5.6
		c0,0.1,0,0.1,0,0.2C700.6,281.6,700.1,281.8,699.6,281.9z"/>
	<path class="st5" d="M771.1,254.6l1.7-0.6c0.9-0.3,1.5-0.7,1.8-1.2c0.3-0.5,0.4-1.2,0.5-2.2l-0.1-1h-3.9h-0.7h-8.9l-10.1,19.4
		l-10.3-19.4h-5.6h-4.8h-1.3c-0.9,0-1.4,0.2-1.7,0.6c-0.3,0.4-0.6,1.4-0.9,2.9l-0.1,0.6l4.1-0.2v28.1l-1.9,0.7
		c-0.7,0.3-1.3,0.6-1.6,1.1c-0.3,0.4-0.5,1.1-0.5,2.1l0.1,1.1h3.9h4.6h1.9c0.9,0,1.5-0.2,1.8-0.7c0.3-0.5,0.6-1.4,0.9-2.7l0.1-0.7
		l-4.8,0.4v-25.1l11.3,21.5h3.9L762,258v23.6l-1.4,0.5c-0.9,0.3-1.5,0.6-1.9,1.1c-0.4,0.5-0.6,1.2-0.6,2.1l0.1,1.2h3.9h9.2h1.3
		c0.8,0,1.3-0.2,1.7-0.7c0.3-0.5,0.6-1.4,0.9-2.8l0.1-0.6l-4,0.2V254.6z"/>
	<path class="st5" d="M792.6,259.6c-2.9,0-5.5,0.6-7.7,1.8s-3.9,2.9-5.1,5.2c-1.2,2.2-1.8,4.8-1.8,7.6c0,4.3,1.2,7.5,3.7,9.7
		c2.5,2.2,5.9,3.4,10.3,3.4c2.9,0,5.5-0.6,7.7-1.8c2.2-1.2,3.9-2.9,5.2-5.1c1.2-2.2,1.8-4.8,1.8-7.7c0-4.1-1.2-7.3-3.6-9.6
		C800.8,260.8,797.2,259.6,792.6,259.6z M796.5,280.4c-1,1.6-2.3,2.4-4.1,2.4c-1.7,0-3-0.8-4-2.4c-1-1.6-1.5-3.8-1.5-6.5
		c0-3.2,0.5-5.6,1.4-7.2c1-1.7,2.4-2.5,4.2-2.5c1.8,0,3.1,0.8,4,2.4c0.9,1.6,1.4,3.9,1.4,6.8C797.9,276.4,797.4,278.8,796.5,280.4z"
		/>
	<path class="st5" d="M826.4,270.7l-3.3-1c-1.9-0.6-3.2-1.1-3.8-1.5s-0.9-0.9-0.9-1.6c0-0.9,0.5-1.6,1.5-2c1-0.5,2.1-0.7,3.5-0.7
		c1.4,0,2.9,0.3,4.3,0.9v3.2l1.1,0.1c1,0,1.7-0.2,2.1-0.5c0.4-0.3,0.7-1,0.8-2.1l0.7-4.4c-2.8-1-5.9-1.6-9.2-1.6
		c-3.7,0-6.6,0.8-8.9,2.4c-2.2,1.6-3.4,3.9-3.4,6.7c0,2.1,0.6,3.6,1.7,4.6c1.2,1,3.1,1.9,5.7,2.8l3.7,1.2c1.9,0.6,3.1,1.1,3.7,1.5
		c0.6,0.4,0.9,0.9,0.9,1.6c0,0.9-0.4,1.5-1.2,2c-0.8,0.5-2.1,0.7-3.9,0.7c-1.1,0-2.4-0.2-3.9-0.7c-0.9-0.3-1.7-0.6-2.4-0.9v-3.6
		l-1-0.1c-1,0-1.7,0.2-2.1,0.5s-0.7,1.1-0.9,2.2l-0.7,4.9c1.3,0.6,3,1.1,5.1,1.5c2.1,0.4,4.1,0.5,6.2,0.5c3.6,0,6.5-0.8,8.7-2.4
		c2.2-1.6,3.3-3.8,3.3-6.6c0-2-0.6-3.6-1.8-4.7C831,272.5,829,271.5,826.4,270.7z"/>
	<path class="st5" d="M864.5,259.4l-0.3-0.1l-4.6,1.9c-2.4-1.1-5.1-1.7-8.3-1.7c-4.4,0-7.9,1.4-10.4,4.2c-2.5,2.7-3.7,6.5-3.7,11.2
		c0,3.8,1,6.9,2.9,9c1.9,2.2,4.7,3.3,8.3,3.3c1,0,2-0.1,2.9-0.3c0.9-0.2,1.7-0.5,2.3-1l2.3-4.6V295l-2.8,0.8c-0.9,0.3-1.6,0.6-1.9,1
		s-0.6,0.9-0.6,1.6l0.2,1.1h14.4c0.9,0,1.5-0.2,1.8-0.5c0.3-0.3,0.5-1,0.8-2l0.3-1l-3.6,0.2V259.4z M854.1,281.2
		c-0.8,0.3-1.6,0.4-2.3,0.4c-1.9,0-3.3-0.7-4.2-2c-1-1.4-1.5-3.2-1.5-5.6c0-3.2,0.5-5.5,1.6-7.1s2.6-2.3,4.7-2.3
		c0.9,0,1.7,0.1,2.4,0.4c0.4,0.1,0.7,0.3,1.1,0.5v14.8C855.3,280.6,854.7,280.9,854.1,281.2z"/>
	<path class="st5" d="M898.6,281.6v-15.9V264v-4.2l-10.1,2c-0.9,0.2-1.6,0.5-1.9,1c-0.4,0.5-0.6,1.1-0.6,2l0.2,0.9h3.9v14.8
		c-0.6,0.3-1.2,0.6-1.9,0.8c-0.9,0.2-1.9,0.3-2.9,0.3c-1.5,0-2.5-0.3-3.3-1.1c-0.7-0.7-1.1-1.9-1.1-3.6v-11.3v-1.9v-4l-10.3,2.1
		c-0.7,0.1-1.3,0.4-1.7,0.8c-0.4,0.4-0.6,1.1-0.6,1.9l0.2,1h3.7v12.4c0,3.1,0.8,5.4,2.3,6.9c1.5,1.5,3.7,2.3,6.6,2.3
		c1.1,0,2.2-0.1,3.2-0.3c1-0.2,2-0.5,2.9-0.9l2.8-4.4v0.8v4.6l9.1-1.6c1.1-0.2,1.9-0.5,2.3-1c0.5-0.5,0.7-1.1,0.7-1.9l-0.1-1H898.6z
		"/>
	<path class="st5" d="M930.2,270.8c0-3.5-1-6.2-3-8.2c-2-2-4.9-3-8.7-3c-2.7,0-5.1,0.6-7.2,1.8c-2.1,1.2-3.7,2.9-4.9,5.1
		c-1.2,2.2-1.7,4.8-1.7,7.7c0,4.2,1.2,7.4,3.6,9.7c2.4,2.3,5.7,3.4,10,3.4c1.3,0,2.6-0.1,3.9-0.3c1.3-0.2,2.4-0.5,3.3-0.8l4-4.9
		l-0.4-0.7c-1.2,0.4-2.4,0.7-3.6,0.9c-1.2,0.2-2.3,0.3-3.3,0.3c-2.9,0-5.1-0.7-6.5-2.1c-1.3-1.2-2-3.1-2.1-5.6H930
		C930.1,273.1,930.2,272,930.2,270.8z M918.5,264.2c1.4,0,2.4,0.6,3.1,1.8c0.6,1,0.9,2.5,1,4.4l-8.9,0.9c0.2-1.9,0.6-3.5,1.2-4.7
		C915.7,265,916.9,264.2,918.5,264.2z"/>
</g>
</svg>
