<?xml version="1.0" standalone="no"?>
<!DOCTYPE svg PUBLIC "-//W3C//DTD SVG 20010904//EN"
 "http://www.w3.org/TR/2001/REC-SVG-20010904/DTD/svg10.dtd">
<svg version="1.0" xmlns="http://www.w3.org/2000/svg"
 width="654.000000pt" height="654.000000pt" viewBox="0 0 654.000000 654.000000"
 preserveAspectRatio="xMidYMid meet">
<metadata>
Created by potrace 1.11, written by Peter Selinger 2001-2013
</metadata>
<g transform="translate(0.000000,654.000000) scale(0.100000,-0.100000)"
fill="#000000" stroke="none">
<path d="M1354 6426 c-5 -13 -43 -14 -63 -1 -6 3 -11 1 -11 -5 0 -7 -6 -8 -18
-1 -10 5 -36 6 -60 1 -23 -4 -45 -4 -47 1 -3 4 -19 4 -35 -1 -18 -5 -32 -5
-36 1 -3 5 -10 7 -15 3 -6 -3 -35 -8 -64 -9 -65 -4 -101 -20 -129 -58 -21 -28
-21 -33 -22 -841 0 -446 -4 -818 -9 -826 -5 -7 -4 -11 1 -7 11 6 12 -363 1
-380 -4 -6 -4 -14 0 -16 11 -7 8 -680 -2 -697 -5 -7 -4 -11 1 -8 5 4 9 -28 9
-73 0 -46 -4 -79 -10 -79 -7 0 -7 -3 0 -8 6 -4 10 -142 10 -377 0 -235 -4
-373 -10 -377 -7 -5 -7 -8 0 -8 14 0 14 -70 1 -70 -7 0 -8 -3 -1 -8 13 -9 14
-392 1 -385 -5 4 -6 0 -1 -7 12 -20 13 -80 1 -80 -7 0 -7 -3 -1 -8 13 -9 14
-1132 1 -1125 -5 4 -6 0 -1 -7 10 -16 10 -104 0 -120 -6 -9 -4 -11 4 -6 15 10
11 -25 -4 -36 -7 -5 -7 -8 0 -8 8 0 12 -103 5 -120 -1 -3 -1 -9 0 -15 5 -24 2
-193 -4 -203 -3 -6 0 -13 6 -15 10 -4 9 -8 -2 -16 -12 -8 -12 -11 -1 -11 11 0
11 -3 1 -15 -7 -8 -8 -15 -4 -15 5 0 9 -27 9 -59 -1 -33 2 -58 7 -55 4 3 8 -4
8 -14 0 -11 7 -25 15 -32 8 -7 12 -16 9 -21 -3 -5 1 -6 9 -3 8 3 18 0 22 -5 3
-6 11 -9 16 -6 5 4 9 2 9 -4 0 -5 13 -7 29 -5 16 3 32 0 35 -5 4 -6 15 -7 30
-1 15 5 27 5 35 -3 8 -8 11 -8 11 2 0 10 3 11 13 2 10 -8 17 -7 25 1 9 9 12 9
12 -1 0 -10 3 -11 14 -2 10 8 16 9 21 1 4 -7 12 -7 26 0 14 8 19 7 19 -1 0 -8
4 -9 13 0 8 6 17 8 21 4 9 -9 46 -11 46 -3 0 9 32 6 49 -4 8 -5 16 -4 21 4 5
9 9 9 14 1 5 -8 13 -8 27 -1 14 8 19 7 19 -2 0 -9 3 -9 10 2 8 12 10 12 10 1
0 -10 3 -11 13 -2 8 6 17 8 20 4 9 -8 57 -11 57 -3 0 9 32 6 48 -4 7 -4 12 -2
12 4 0 6 5 8 13 3 17 -11 41 -10 49 2 5 6 8 5 8 -2 0 -9 7 -10 24 -3 13 5 27
6 30 3 8 -9 56 -10 56 -3 0 9 32 6 48 -4 7 -4 12 -2 12 5 0 7 4 8 13 2 14 -11
27 -11 45 0 7 5 12 3 12 -5 0 -9 3 -9 10 2 8 12 10 12 10 1 0 -10 3 -11 13 -2
8 6 17 8 20 4 9 -8 57 -11 57 -3 0 9 32 6 48 -4 7 -4 12 -2 12 5 0 7 4 8 12 2
15 -11 28 -11 46 0 7 5 12 3 12 -5 0 -9 3 -9 10 2 8 12 10 12 10 1 0 -10 3
-11 13 -2 8 6 17 8 20 4 9 -8 57 -11 57 -3 0 9 32 6 48 -4 7 -4 12 -2 12 6 0
8 3 9 8 3 4 -5 16 -10 27 -10 11 0 23 5 27 10 5 6 8 5 8 -2 0 -9 7 -10 25 -3
14 5 25 6 25 2 0 -4 14 -7 30 -7 17 0 30 3 30 6 0 8 33 5 48 -5 7 -4 12 -2 12
5 0 7 4 8 13 2 14 -11 27 -11 45 0 7 5 12 3 12 -5 0 -9 3 -9 10 2 8 12 10 12
10 1 0 -11 3 -11 15 -1 8 7 15 9 15 4 0 -5 14 -9 30 -9 17 0 30 3 30 6 0 8 33
5 48 -5 7 -4 12 -2 12 5 0 7 4 8 13 2 14 -11 27 -11 45 0 7 5 12 3 12 -5 0 -9
3 -9 10 2 8 12 10 12 10 1 0 -11 3 -11 15 -1 12 10 15 10 15 0 0 -10 3 -10 15
0 8 7 15 8 15 3 0 -5 7 -10 15 -10 8 0 15 3 15 7 0 8 37 6 46 -3 11 -10 26 -8
19 2 -3 6 6 6 25 1 16 -5 30 -6 30 -2 0 4 13 7 29 7 16 0 27 -3 24 -7 -7 -13
12 -9 25 4 9 9 12 9 12 -1 0 -7 5 -9 12 -5 15 10 77 11 71 2 -7 -13 12 -9 25
4 9 9 12 9 12 -1 0 -7 5 -9 12 -5 18 11 62 11 71 -1 4 -6 10 -5 16 4 6 9 11
10 15 2 5 -8 13 -8 28 0 16 8 19 8 13 -1 -6 -9 -2 -9 14 -1 12 7 21 8 21 2 0
-10 19 -9 38 2 7 5 12 3 12 -3 0 -6 5 -8 12 -4 15 10 77 11 71 2 -7 -13 12 -9
25 4 9 9 12 9 12 -1 0 -7 5 -9 12 -5 15 10 77 11 71 2 -7 -13 12 -9 25 4 9 9
12 9 12 -1 0 -7 5 -9 12 -5 15 10 58 12 58 3 0 -10 34 -5 42 6 5 6 8 5 8 -3 0
-10 5 -10 20 -2 15 8 20 8 20 -2 0 -10 2 -10 9 1 6 9 11 10 15 2 5 -8 13 -8
27 -1 11 6 19 7 19 1 0 -12 33 -9 42 4 5 6 8 5 8 -3 0 -10 5 -10 20 -2 15 8
20 8 20 -2 0 -10 2 -10 9 1 6 9 11 10 15 2 5 -8 13 -8 27 -1 11 6 19 7 19 1 0
-12 33 -9 42 4 5 6 8 5 8 -3 0 -10 5 -10 20 -2 15 8 20 8 20 -2 0 -10 2 -10 9
1 6 9 11 10 15 2 5 -8 13 -8 27 -1 11 6 19 7 19 1 0 -12 33 -9 42 4 5 6 8 5 8
-3 0 -10 5 -10 20 -2 15 8 20 8 20 -2 0 -10 2 -10 9 1 6 9 11 10 15 2 5 -8 13
-8 27 -1 11 6 19 7 19 1 0 -12 33 -9 42 4 5 6 8 5 8 -3 0 -10 5 -10 20 -2 15
8 20 8 20 -2 0 -10 2 -10 9 1 6 9 11 10 15 2 5 -8 13 -8 27 -1 11 6 19 7 19 1
0 -12 33 -9 42 4 5 6 8 5 8 -3 0 -10 5 -10 20 -2 15 8 20 8 20 -2 0 -10 2 -10
9 1 6 9 11 10 15 2 5 -8 13 -8 27 -1 11 6 19 7 19 1 0 -12 33 -9 42 4 5 6 8 5
8 -3 0 -10 5 -10 20 -2 15 8 20 8 20 -2 0 -10 2 -10 9 1 6 9 11 10 15 2 5 -8
13 -8 27 -1 11 6 19 7 19 1 0 -12 33 -9 42 4 5 6 8 5 8 -3 0 -10 5 -10 20 -2
15 8 20 8 20 -2 0 -10 2 -10 9 1 6 9 11 10 15 2 5 -8 13 -8 27 -1 11 6 19 7
19 1 0 -12 33 -9 42 4 5 6 8 5 8 -3 0 -10 5 -10 20 -2 15 8 20 8 20 -2 0 -10
2 -10 9 1 6 9 11 10 15 2 5 -8 13 -8 27 -1 11 6 19 7 19 1 0 -12 33 -9 42 4 5
6 8 5 8 -3 0 -10 5 -10 20 -2 15 8 20 8 20 -2 0 -10 2 -10 9 1 6 9 11 10 15 2
5 -7 15 -7 31 -1 16 6 25 6 25 -1 0 -6 6 -6 18 -1 9 5 25 8 35 7 9 -2 17 0 17
5 0 4 11 6 24 5 14 -2 27 3 30 12 3 8 10 12 15 9 15 -10 45 47 44 82 -1 19 3
30 9 26 6 -4 6 1 -1 14 -13 25 -14 35 -2 28 10 -7 9 13 -2 31 -4 6 -2 15 4 19
8 5 7 9 -2 14 -10 7 -10 12 0 23 8 11 9 16 1 19 -8 2 -8 11 -1 31 6 15 7 27 2
27 -4 0 -6 12 -4 28 7 44 7 46 -1 71 -6 17 -5 22 4 16 9 -6 9 -2 0 15 -8 15
-8 20 -1 16 6 -4 11 -2 11 3 0 6 -6 11 -12 11 -10 0 -9 3 1 9 9 6 10 10 2 12
-9 3 -9 12 -2 32 6 15 7 27 2 27 -4 0 -6 12 -4 28 7 44 7 46 -1 71 -5 14 -4
21 1 18 5 -4 10 0 10 8 0 8 -5 15 -11 15 -6 0 -4 5 4 10 8 5 10 10 4 10 -7 0
-10 12 -7 27 7 45 7 47 -1 72 -5 14 -4 21 1 18 5 -4 10 0 10 8 0 8 -5 15 -11
15 -6 0 -4 5 4 10 8 5 10 10 4 10 -7 0 -10 12 -7 27 7 45 7 47 -1 72 -5 14 -4
21 1 18 5 -4 10 0 10 8 0 8 -5 15 -11 15 -6 0 -4 5 4 10 8 5 10 10 4 10 -7 0
-10 12 -7 28 7 44 7 46 -1 71 -6 16 -5 21 3 17 14 -9 10 16 -4 26 -6 5 -4 8 5
8 12 0 12 2 1 9 -10 6 -11 13 -2 29 7 14 8 23 1 27 -5 3 -10 11 -10 16 0 6 4
8 9 5 9 -6 7 29 -4 64 -4 12 -3 20 1 17 5 -3 9 6 9 19 0 13 -4 24 -10 24 -5 0
-3 5 5 10 8 5 10 10 4 10 -12 0 -12 79 0 98 4 7 2 12 -4 12 -7 0 -8 6 -1 18 5
10 6 24 1 32 -5 8 -5 21 1 31 6 12 5 20 -1 24 -8 5 -8 11 -1 19 7 9 7 16 0 23
-8 8 -8 17 0 31 7 14 8 23 1 27 -5 3 -10 11 -10 16 0 6 4 8 9 5 9 -6 7 29 -4
64 -5 17 -4 21 6 15 11 -6 11 -5 2 5 -8 9 -9 19 -3 31 7 11 7 20 0 24 -5 3
-10 11 -10 16 0 6 5 7 11 3 8 -5 8 -1 0 14 -8 14 -8 23 -1 27 8 5 7 11 -1 21
-9 11 -8 14 2 14 12 0 12 2 0 9 -9 6 -10 10 -2 16 9 5 9 10 1 20 -8 9 -8 15 0
20 6 3 7 12 3 18 -10 17 -11 59 -1 79 5 10 4 19 -2 23 -5 3 -10 11 -10 16 0 6
4 7 10 4 6 -4 7 2 1 18 -5 13 -5 30 -1 37 5 8 5 19 -1 26 -7 8 -6 14 1 19 8 5
8 11 0 20 -8 10 -8 19 -1 34 7 13 8 22 1 26 -15 9 -12 27 3 19 9 -5 9 -4 0 6
-8 9 -9 19 -3 31 7 11 7 20 0 24 -15 9 -12 27 3 19 9 -5 9 -4 0 6 -8 9 -9 19
-3 31 7 11 7 20 0 24 -15 9 -12 27 3 19 9 -5 9 -4 0 6 -8 9 -9 19 -3 31 7 11
7 20 0 24 -5 3 -10 11 -10 16 0 6 4 8 8 5 10 -6 9 24 -1 41 -4 6 -3 14 3 18 6
4 7 12 3 18 -10 17 -11 59 -1 79 5 10 4 19 -2 23 -5 3 -10 11 -10 16 0 6 4 7
10 4 6 -4 7 2 1 18 -5 13 -5 30 -1 37 5 8 5 19 -1 26 -7 8 -6 14 1 19 8 5 8
11 -1 21 -9 11 -9 17 1 29 7 8 8 15 3 15 -5 0 -9 9 -10 20 -1 13 2 18 10 14 9
-5 9 -4 0 6 -8 9 -9 19 -3 31 7 11 7 20 0 24 -5 3 -10 11 -10 16 0 6 6 7 13 3
9 -6 9 -5 0 7 -10 12 -10 18 -1 27 7 7 8 12 2 12 -5 0 -10 9 -11 20 -1 13 2
18 10 14 9 -5 9 -4 0 6 -8 9 -9 19 -3 31 7 11 7 20 0 24 -5 3 -10 11 -10 16 0
6 4 8 8 5 10 -6 9 24 -1 41 -4 6 -3 14 3 18 6 4 7 12 3 18 -10 17 -11 59 -1
79 5 10 4 19 -2 23 -5 3 -10 11 -10 16 0 6 4 7 10 4 6 -4 7 2 1 18 -5 13 -5
30 -1 37 5 8 5 19 -1 26 -7 8 -6 14 1 19 8 5 8 11 -1 21 -9 11 -9 17 1 29 7 8
8 15 3 15 -5 0 -9 9 -10 20 -1 13 2 18 10 14 9 -5 9 -4 0 6 -8 9 -9 19 -3 31
7 11 7 20 0 24 -5 3 -10 11 -10 16 0 6 6 7 13 3 9 -6 9 -5 0 7 -10 12 -10 18
-1 27 7 7 8 12 2 12 -5 0 -10 9 -11 20 -1 13 2 18 10 13 9 -5 9 -3 0 8 -10 12
-10 18 -1 27 7 7 8 12 2 12 -5 0 -10 9 -11 20 -1 11 2 18 6 16 4 -3 8 1 8 9 0
8 -4 15 -9 15 -11 0 -6 23 7 32 7 5 6 8 0 8 -12 0 -13 69 -2 88 5 6 4 12 0 12
-5 0 -9 9 -10 20 -1 11 2 18 8 15 5 -4 5 3 0 18 -6 16 -6 28 2 36 7 7 7 11 1
11 -6 0 -11 7 -11 15 0 8 5 15 11 15 7 0 7 3 1 8 -14 10 -17 32 -6 46 6 7 6
17 1 26 -14 21 -12 32 3 24 9 -6 9 -4 -1 8 -9 11 -10 18 -2 23 7 4 7 13 -1 27
-9 16 -8 23 2 29 12 7 11 9 -1 9 -10 0 -11 3 -2 12 8 8 8 17 0 31 -7 15 -7 22
3 28 12 7 11 9 -1 9 -10 0 -11 3 -2 12 8 8 8 17 0 31 -7 15 -7 22 3 28 12 8
12 10 1 18 -8 4 -14 12 -14 16 0 4 6 12 14 16 7 5 8 9 3 9 -12 0 -14 75 -2 86
3 4 1 16 -4 27 -8 13 -8 22 -1 26 7 4 8 12 2 21 -5 9 -5 19 2 27 7 9 7 13 -1
13 -13 0 -10 22 4 32 7 5 6 8 0 8 -14 0 -17 38 -4 45 5 4 5 15 -2 28 -9 16 -9
22 0 25 6 2 8 9 4 14 -10 18 -12 68 -1 68 5 0 6 5 2 12 -11 18 -13 68 -2 68 5
0 6 5 2 12 -11 17 -13 68 -3 68 5 0 9 5 9 11 0 5 -3 8 -7 6 -5 -3 -9 6 -9 19
-1 14 2 21 9 17 6 -4 7 -1 2 7 -12 19 -13 140 -1 140 6 0 5 5 -2 12 -7 7 -8
17 -2 28 5 9 5 22 -1 31 -12 20 -11 32 3 23 7 -5 8 -3 3 6 -11 18 -14 100 -3
100 5 0 6 5 2 12 -11 18 -13 68 -2 68 5 0 6 5 2 12 -11 18 -13 68 -2 68 5 0 6
5 2 12 -11 17 -13 68 -3 68 5 0 9 5 9 11 0 5 -4 8 -9 5 -12 -8 -8 27 4 36 7 5
6 8 0 8 -12 0 -13 69 -2 88 5 6 4 12 0 12 -5 0 -9 9 -10 20 -1 11 3 20 10 20
8 0 8 3 -1 12 -7 7 -12 26 -12 44 0 42 -53 99 -95 102 -47 4 -64 8 -70 13 -3
3 -25 3 -50 -1 -24 -4 -50 -3 -57 1 -6 4 -19 4 -29 -1 -9 -5 -19 -7 -23 -3 -7
8 -132 6 -146 -2 -5 -3 -10 -3 -10 2 0 10 -84 8 -101 -3 -8 -5 -10 -3 -4 5 6
10 3 11 -13 2 -12 -6 -23 -7 -26 -3 -3 5 -17 7 -33 6 -29 -3 -76 -4 -105 -4
-10 0 -24 0 -30 -1 -7 0 -43 0 -79 1 -37 2 -72 -1 -78 -4 -6 -4 -11 -4 -11 1
0 10 -84 8 -101 -3 -8 -5 -10 -3 -4 5 6 10 3 11 -13 2 -12 -6 -23 -7 -26 -3
-3 5 -17 7 -33 6 -29 -3 -76 -4 -105 -4 -10 0 -24 0 -30 -1 -7 0 -43 0 -79 1
-37 2 -72 -1 -78 -4 -6 -4 -11 -4 -11 1 0 6 -88 9 -97 3 -4 -3 -52 -2 -55 0
-9 6 -60 4 -65 -3 -2 -4 -10 -4 -17 2 -7 6 -26 7 -48 2 -21 -5 -39 -6 -42 -4
-7 8 -133 6 -145 -1 -6 -4 -11 -4 -11 1 0 6 -88 9 -97 3 -4 -3 -52 -2 -55 0
-9 6 -60 4 -65 -3 -2 -4 -11 -3 -18 3 -8 7 -18 9 -24 6 -9 -6 -26 -7 -143 -5
-32 0 -62 -2 -68 -6 -5 -3 -10 -3 -10 2 0 4 -22 8 -49 8 -27 0 -48 -2 -46 -5
5 -8 -50 -4 -63 4 -7 4 -12 2 -12 -4 0 -7 -6 -8 -19 0 -14 7 -22 7 -26 0 -5
-8 -11 -7 -20 0 -8 7 -18 9 -24 6 -10 -7 -56 -8 -149 -4 -34 2 -62 0 -62 -4 0
-3 -8 -5 -17 -3 -10 2 -18 4 -18 5 0 1 -17 2 -37 4 -21 2 -36 0 -34 -3 5 -7
-52 -6 -60 1 -3 3 -21 2 -40 -2 -19 -5 -37 -4 -40 1 -3 6 -14 7 -24 4 -20 -6
-39 -7 -202 -3 -64 2 -115 1 -113 -2 2 -3 -13 -4 -33 -2 -21 2 -48 2 -62 2
-14 -1 -31 -1 -37 -1 -7 1 -19 1 -25 2 -7 0 -31 0 -53 0 -22 -1 -80 -1 -128 0
-49 0 -91 -2 -94 -5 -3 -3 -13 -1 -22 3 -9 5 -35 6 -59 1 -23 -4 -45 -4 -48 1
-2 4 -15 5 -27 0 -12 -5 -31 -5 -42 -1 -11 4 -34 4 -52 0 -18 -4 -34 -5 -37
-2 -3 3 -31 4 -62 3 -36 -1 -53 2 -49 9 3 5 4 10 0 10 -3 0 -8 -6 -11 -14z"/>
</g>
</svg>
